<?xml version="1.0" encoding="UTF-8" standalone="no"?>
<!-- Created with Inkscape (http://www.inkscape.org/) -->

<svg
   version="1.1"
   id="svg1"
   width="332.21732"
   height="294.42203"
   viewBox="0 0 332.21732 294.42203"
   sodipodi:docname="upload_br4wohnyzni2tir4izizmnp4pp.pdf"
   xmlns:inkscape="http://www.inkscape.org/namespaces/inkscape"
   xmlns:sodipodi="http://sodipodi.sourceforge.net/DTD/sodipodi-0.dtd"
   xmlns="http://www.w3.org/2000/svg"
   xmlns:svg="http://www.w3.org/2000/svg">
  <defs
     id="defs1">
    <clipPath
       clipPathUnits="userSpaceOnUse"
       id="clipPath22">
      <path
         d="M 40.8775,28.28375 H 247.72298 V 172.88711 H 40.8775 Z"
         id="path22" />
    </clipPath>
    <clipPath
       clipPathUnits="userSpaceOnUse"
       id="clipPath26">
      <path
         d="M 40.8775,28.28375 H 247.72298 V 172.88711 H 40.8775 Z"
         id="path26" />
    </clipPath>
    <clipPath
       clipPathUnits="userSpaceOnUse"
       id="clipPath30">
      <path
         d="M 40.8775,28.28375 H 247.72298 V 172.88711 H 40.8775 Z"
         id="path30" />
    </clipPath>
    <clipPath
       clipPathUnits="userSpaceOnUse"
       id="clipPath34">
      <path
         d="M 40.8775,28.28375 H 247.72298 V 172.88711 H 40.8775 Z"
         id="path34" />
    </clipPath>
    <clipPath
       clipPathUnits="userSpaceOnUse"
       id="clipPath38">
      <path
         d="M 40.8775,28.28375 H 247.72298 V 172.88711 H 40.8775 Z"
         id="path38" />
    </clipPath>
    <clipPath
       clipPathUnits="userSpaceOnUse"
       id="clipPath39">
      <path
         d="M -6.9,-6.9 H 6.9 V 6.9 H -6.9 Z"
         id="path39" />
    </clipPath>
    <clipPath
       clipPathUnits="userSpaceOnUse"
       id="clipPath41">
      <path
         d="M 40.8775,28.28375 H 247.72298 V 172.88711 H 40.8775 Z"
         transform="matrix(1.3333333,0,0,-1.3333333,0,294.42204)"
         id="path41" />
    </clipPath>
    <clipPath
       clipPathUnits="userSpaceOnUse"
       id="clipPath42">
      <path
         d="M -6.9,-6.9 H 6.9 V 6.9 H -6.9 Z"
         transform="translate(-2.4165001e-6)"
         id="path42" />
    </clipPath>
    <clipPath
       clipPathUnits="userSpaceOnUse"
       id="clipPath44">
      <path
         d="M 40.8775,28.28375 H 247.72298 V 172.88711 H 40.8775 Z"
         transform="matrix(1.3333333,0,0,-1.3333333,0,294.42204)"
         id="path44" />
    </clipPath>
    <clipPath
       clipPathUnits="userSpaceOnUse"
       id="clipPath45">
      <path
         d="M -6.9,-6.9 H 6.9 V 6.9 H -6.9 Z"
         transform="translate(-1.7831e-6)"
         id="path45" />
    </clipPath>
    <clipPath
       clipPathUnits="userSpaceOnUse"
       id="clipPath47">
      <path
         d="M 40.8775,28.28375 H 247.72298 V 172.88711 H 40.8775 Z"
         transform="matrix(1.3333333,0,0,-1.3333333,0,294.42204)"
         id="path47" />
    </clipPath>
    <clipPath
       clipPathUnits="userSpaceOnUse"
       id="clipPath48">
      <path
         d="M -6.9,-6.9 H 6.9 V 6.9 H -6.9 Z"
         transform="translate(-1.1497e-6)"
         id="path48" />
    </clipPath>
    <clipPath
       clipPathUnits="userSpaceOnUse"
       id="clipPath50">
      <path
         d="M 40.8775,28.28375 H 247.72298 V 172.88711 H 40.8775 Z"
         transform="matrix(1.3333333,0,0,-1.3333333,0,294.42204)"
         id="path50" />
    </clipPath>
    <clipPath
       clipPathUnits="userSpaceOnUse"
       id="clipPath51">
      <path
         d="M -6.9,-6.9 H 6.9 V 6.9 H -6.9 Z"
         id="path51" />
    </clipPath>
    <clipPath
       clipPathUnits="userSpaceOnUse"
       id="clipPath53">
      <path
         d="M 40.8775,28.28375 H 247.72298 V 172.88711 H 40.8775 Z"
         transform="matrix(1.3333333,0,0,-1.3333333,0,294.42204)"
         id="path53" />
    </clipPath>
    <clipPath
       clipPathUnits="userSpaceOnUse"
       id="clipPath54">
      <path
         d="M -6.9,-6.9 H 6.9 V 6.9 H -6.9 Z"
         id="path54" />
    </clipPath>
    <clipPath
       clipPathUnits="userSpaceOnUse"
       id="clipPath56">
      <path
         d="M 40.8775,28.28375 H 247.72298 V 172.88711 H 40.8775 Z"
         transform="matrix(1.3333333,0,0,-1.3333333,0,294.42204)"
         id="path56" />
    </clipPath>
    <clipPath
       clipPathUnits="userSpaceOnUse"
       id="clipPath58">
      <path
         d="M 40.8775,28.28375 H 247.72298 V 172.88711 H 40.8775 Z"
         id="path58" />
    </clipPath>
    <clipPath
       clipPathUnits="userSpaceOnUse"
       id="clipPath59">
      <path
         d="M -6.9,-6.9 H 6.9 V 6.9 H -6.9 Z"
         id="path59" />
    </clipPath>
    <clipPath
       clipPathUnits="userSpaceOnUse"
       id="clipPath61">
      <path
         d="M 40.8775,28.28375 H 247.72298 V 172.88711 H 40.8775 Z"
         transform="matrix(1.3333333,0,0,-1.3333333,0,294.42204)"
         id="path61" />
    </clipPath>
    <clipPath
       clipPathUnits="userSpaceOnUse"
       id="clipPath62">
      <path
         d="M -6.9,-6.9 H 6.9 V 6.9 H -6.9 Z"
         transform="translate(-2.4165001e-6)"
         id="path62" />
    </clipPath>
    <clipPath
       clipPathUnits="userSpaceOnUse"
       id="clipPath64">
      <path
         d="M 40.8775,28.28375 H 247.72298 V 172.88711 H 40.8775 Z"
         transform="matrix(1.3333333,0,0,-1.3333333,0,294.42204)"
         id="path64" />
    </clipPath>
    <clipPath
       clipPathUnits="userSpaceOnUse"
       id="clipPath65">
      <path
         d="M -6.9,-6.9 H 6.9 V 6.9 H -6.9 Z"
         transform="translate(-1.7831e-6)"
         id="path65" />
    </clipPath>
    <clipPath
       clipPathUnits="userSpaceOnUse"
       id="clipPath67">
      <path
         d="M 40.8775,28.28375 H 247.72298 V 172.88711 H 40.8775 Z"
         transform="matrix(1.3333333,0,0,-1.3333333,0,294.42204)"
         id="path67" />
    </clipPath>
    <clipPath
       clipPathUnits="userSpaceOnUse"
       id="clipPath68">
      <path
         d="M -6.9,-6.9 H 6.9 V 6.9 H -6.9 Z"
         transform="translate(-1.1497e-6)"
         id="path68" />
    </clipPath>
    <clipPath
       clipPathUnits="userSpaceOnUse"
       id="clipPath70">
      <path
         d="M 40.8775,28.28375 H 247.72298 V 172.88711 H 40.8775 Z"
         transform="matrix(1.3333333,0,0,-1.3333333,0,294.42204)"
         id="path70" />
    </clipPath>
    <clipPath
       clipPathUnits="userSpaceOnUse"
       id="clipPath71">
      <path
         d="M -6.9,-6.9 H 6.9 V 6.9 H -6.9 Z"
         id="path71" />
    </clipPath>
    <clipPath
       clipPathUnits="userSpaceOnUse"
       id="clipPath73">
      <path
         d="M 40.8775,28.28375 H 247.72298 V 172.88711 H 40.8775 Z"
         transform="matrix(1.3333333,0,0,-1.3333333,0,294.42204)"
         id="path73" />
    </clipPath>
    <clipPath
       clipPathUnits="userSpaceOnUse"
       id="clipPath74">
      <path
         d="M -6.9,-6.9 H 6.9 V 6.9 H -6.9 Z"
         id="path74" />
    </clipPath>
    <clipPath
       clipPathUnits="userSpaceOnUse"
       id="clipPath76">
      <path
         d="M 40.8775,28.28375 H 247.72298 V 172.88711 H 40.8775 Z"
         transform="matrix(1.3333333,0,0,-1.3333333,0,294.42204)"
         id="path76" />
    </clipPath>
    <clipPath
       clipPathUnits="userSpaceOnUse"
       id="clipPath78">
      <path
         d="M 40.8775,28.28375 H 247.72298 V 172.88711 H 40.8775 Z"
         id="path78" />
    </clipPath>
    <clipPath
       clipPathUnits="userSpaceOnUse"
       id="clipPath79">
      <path
         d="M -6.9,-6.9 H 6.9 V 6.9 H -6.9 Z"
         id="path79" />
    </clipPath>
    <clipPath
       clipPathUnits="userSpaceOnUse"
       id="clipPath81">
      <path
         d="M 40.8775,28.28375 H 247.72298 V 172.88711 H 40.8775 Z"
         transform="matrix(1.3333333,0,0,-1.3333333,0,294.42204)"
         id="path81" />
    </clipPath>
    <clipPath
       clipPathUnits="userSpaceOnUse"
       id="clipPath82">
      <path
         d="M -6.9,-6.9 H 6.9 V 6.9 H -6.9 Z"
         transform="translate(-2.4165001e-6)"
         id="path82" />
    </clipPath>
    <clipPath
       clipPathUnits="userSpaceOnUse"
       id="clipPath84">
      <path
         d="M 40.8775,28.28375 H 247.72298 V 172.88711 H 40.8775 Z"
         transform="matrix(1.3333333,0,0,-1.3333333,0,294.42204)"
         id="path84" />
    </clipPath>
    <clipPath
       clipPathUnits="userSpaceOnUse"
       id="clipPath85">
      <path
         d="M -6.9,-6.9 H 6.9 V 6.9 H -6.9 Z"
         transform="translate(-1.7831e-6)"
         id="path85" />
    </clipPath>
    <clipPath
       clipPathUnits="userSpaceOnUse"
       id="clipPath87">
      <path
         d="M 40.8775,28.28375 H 247.72298 V 172.88711 H 40.8775 Z"
         transform="matrix(1.3333333,0,0,-1.3333333,0,294.42204)"
         id="path87" />
    </clipPath>
    <clipPath
       clipPathUnits="userSpaceOnUse"
       id="clipPath88">
      <path
         d="M -6.9,-6.9 H 6.9 V 6.9 H -6.9 Z"
         transform="translate(-1.1497e-6)"
         id="path88" />
    </clipPath>
    <clipPath
       clipPathUnits="userSpaceOnUse"
       id="clipPath90">
      <path
         d="M 40.8775,28.28375 H 247.72298 V 172.88711 H 40.8775 Z"
         transform="matrix(1.3333333,0,0,-1.3333333,0,294.42204)"
         id="path90" />
    </clipPath>
    <clipPath
       clipPathUnits="userSpaceOnUse"
       id="clipPath91">
      <path
         d="M -6.9,-6.9 H 6.9 V 6.9 H -6.9 Z"
         id="path91" />
    </clipPath>
    <clipPath
       clipPathUnits="userSpaceOnUse"
       id="clipPath93">
      <path
         d="M 40.8775,28.28375 H 247.72298 V 172.88711 H 40.8775 Z"
         transform="matrix(1.3333333,0,0,-1.3333333,0,294.42204)"
         id="path93" />
    </clipPath>
    <clipPath
       clipPathUnits="userSpaceOnUse"
       id="clipPath94">
      <path
         d="M -6.9,-6.9 H 6.9 V 6.9 H -6.9 Z"
         id="path94" />
    </clipPath>
    <clipPath
       clipPathUnits="userSpaceOnUse"
       id="clipPath96">
      <path
         d="M 40.8775,28.28375 H 247.72298 V 172.88711 H 40.8775 Z"
         transform="matrix(1.3333333,0,0,-1.3333333,0,294.42204)"
         id="path96" />
    </clipPath>
    <clipPath
       clipPathUnits="userSpaceOnUse"
       id="clipPath98">
      <path
         d="M 40.8775,28.28375 H 247.72298 V 172.88711 H 40.8775 Z"
         id="path98" />
    </clipPath>
    <clipPath
       clipPathUnits="userSpaceOnUse"
       id="clipPath99">
      <path
         d="M -7.6870058,-7.6870058 H 7.6870058 V 7.6870058 H -7.6870058 Z"
         id="path99" />
    </clipPath>
    <clipPath
       clipPathUnits="userSpaceOnUse"
       id="clipPath101">
      <path
         d="M 40.8775,28.28375 H 247.72298 V 172.88711 H 40.8775 Z"
         transform="matrix(1.3333333,0,0,-1.3333333,0,294.42204)"
         id="path101" />
    </clipPath>
    <clipPath
       clipPathUnits="userSpaceOnUse"
       id="clipPath102">
      <path
         d="M -7.6870058,-7.6870058 H 7.6870058 V 7.6870058 H -7.6870058 Z"
         transform="translate(-2.4165001e-6)"
         id="path102" />
    </clipPath>
    <clipPath
       clipPathUnits="userSpaceOnUse"
       id="clipPath104">
      <path
         d="M 40.8775,28.28375 H 247.72298 V 172.88711 H 40.8775 Z"
         transform="matrix(1.3333333,0,0,-1.3333333,0,294.42204)"
         id="path104" />
    </clipPath>
    <clipPath
       clipPathUnits="userSpaceOnUse"
       id="clipPath105">
      <path
         d="M -7.6870058,-7.6870058 H 7.6870058 V 7.6870058 H -7.6870058 Z"
         transform="translate(-1.7831e-6)"
         id="path105" />
    </clipPath>
    <clipPath
       clipPathUnits="userSpaceOnUse"
       id="clipPath107">
      <path
         d="M 40.8775,28.28375 H 247.72298 V 172.88711 H 40.8775 Z"
         transform="matrix(1.3333333,0,0,-1.3333333,0,294.42204)"
         id="path107" />
    </clipPath>
    <clipPath
       clipPathUnits="userSpaceOnUse"
       id="clipPath108">
      <path
         d="M -7.6870058,-7.6870058 H 7.6870058 V 7.6870058 H -7.6870058 Z"
         transform="translate(-1.1497e-6)"
         id="path108" />
    </clipPath>
    <clipPath
       clipPathUnits="userSpaceOnUse"
       id="clipPath110">
      <path
         d="M 40.8775,28.28375 H 247.72298 V 172.88711 H 40.8775 Z"
         transform="matrix(1.3333333,0,0,-1.3333333,0,294.42204)"
         id="path110" />
    </clipPath>
    <clipPath
       clipPathUnits="userSpaceOnUse"
       id="clipPath111">
      <path
         d="M -7.6870058,-7.6870058 H 7.6870058 V 7.6870058 H -7.6870058 Z"
         id="path111" />
    </clipPath>
    <clipPath
       clipPathUnits="userSpaceOnUse"
       id="clipPath113">
      <path
         d="M 40.8775,28.28375 H 247.72298 V 172.88711 H 40.8775 Z"
         transform="matrix(1.3333333,0,0,-1.3333333,0,294.42204)"
         id="path113" />
    </clipPath>
    <clipPath
       clipPathUnits="userSpaceOnUse"
       id="clipPath114">
      <path
         d="M -7.6870058,-7.6870058 H 7.6870058 V 7.6870058 H -7.6870058 Z"
         id="path114" />
    </clipPath>
    <clipPath
       clipPathUnits="userSpaceOnUse"
       id="clipPath116">
      <path
         d="M 40.8775,28.28375 H 247.72298 V 172.88711 H 40.8775 Z"
         transform="matrix(1.3333333,0,0,-1.3333333,0,294.42204)"
         id="path116" />
    </clipPath>
  </defs>
  <sodipodi:namedview
     id="namedview1"
     pagecolor="#ffffff"
     bordercolor="#000000"
     borderopacity="0.25"
     inkscape:showpageshadow="2"
     inkscape:pageopacity="0.0"
     inkscape:pagecheckerboard="0"
     inkscape:deskcolor="#d1d1d1">
    <inkscape:page
       x="0"
       y="0"
       inkscape:label="1"
       id="page1"
       width="332.21732"
       height="294.42203"
       margin="0"
       bleed="0" />
  </sodipodi:namedview>
  <g
     id="g1"
     inkscape:groupmode="layer"
     inkscape:label="1">
    <path
       id="path1"
       d="m 76.925242,208.78181 h 8 8"
       style="fill:none;stroke:#452a3d;stroke-width:1.6;stroke-linecap:square;stroke-linejoin:round;stroke-miterlimit:10;stroke-dasharray:none;stroke-opacity:1"
       transform="matrix(1.3333333,0,0,-1.3333333,0,294.42204)" />
    <path
       id="path2"
       d="m 84.925242,206.88181 c 0.503886,0 0.987202,0.2002 1.343503,0.5565 0.356301,0.3563 0.556497,0.83962 0.556497,1.3435 0,0.50389 -0.200196,0.9872 -0.556497,1.3435 -0.356301,0.35631 -0.839617,0.5565 -1.343503,0.5565 -0.503886,0 -0.987201,-0.20019 -1.343503,-0.5565 -0.356301,-0.3563 -0.556497,-0.83961 -0.556497,-1.3435 0,-0.50388 0.200196,-0.9872 0.556497,-1.3435 0.356302,-0.3563 0.839617,-0.5565 1.343503,-0.5565 z"
       style="fill:#ffffff;fill-opacity:1;fill-rule:nonzero;stroke:#452a3d;stroke-width:1;stroke-linecap:butt;stroke-linejoin:round;stroke-miterlimit:10;stroke-dasharray:none;stroke-opacity:1"
       transform="matrix(1.3333333,0,0,-1.3333333,0,294.42204)" />
    <text
       id="text2"
       xml:space="preserve"
       transform="matrix(1.3333333,0,0,1.3333333,130.56699,20.712954)"><tspan
         id="tspan2"
         style="font-variant:normal;font-weight:normal;font-size:10px;font-family:'DejaVu Sans';writing-mode:lr-tb;fill:#000000;fill-opacity:1;fill-rule:nonzero;stroke:none"
         x="0"
         y="0">CSR</tspan></text>
    <path
       id="path3"
       d="m 126.20649,208.78181 h 8 8"
       style="fill:none;stroke:#b7b5a0;stroke-width:1.6;stroke-linecap:square;stroke-linejoin:round;stroke-miterlimit:10;stroke-dasharray:none;stroke-opacity:1"
       transform="matrix(1.3333333,0,0,-1.3333333,0,294.42204)" />
    <path
       id="path4"
       d="m 134.20649,210.68181 -1.9,-3.8 h 3.8 z"
       style="fill:#ffffff;fill-opacity:1;fill-rule:nonzero;stroke:#b7b5a0;stroke-width:1;stroke-linecap:butt;stroke-linejoin:miter;stroke-miterlimit:10;stroke-dasharray:none;stroke-opacity:1"
       transform="matrix(1.3333333,0,0,-1.3333333,0,294.42204)" />
    <text
       id="text4"
       xml:space="preserve"
       transform="matrix(1.3333333,0,0,1.3333333,196.27532,20.712954)"><tspan
         id="tspan4"
         style="font-variant:normal;font-weight:normal;font-size:10px;font-family:'DejaVu Sans';writing-mode:lr-tb;fill:#000000;fill-opacity:1;fill-rule:nonzero;stroke:none"
         x="0"
         y="0">CSRv2-linear</tspan></text>
    <path
       id="path5"
       d="m 71.753367,190.96668 h 8 8"
       style="fill:none;stroke:#44757a;stroke-width:1.6;stroke-linecap:square;stroke-linejoin:round;stroke-miterlimit:10;stroke-dasharray:none;stroke-opacity:1"
       transform="matrix(1.3333333,0,0,-1.3333333,0,294.42204)" />
    <path
       id="path6"
       d="m 77.853367,189.06668 h 3.8 v 3.8 h -3.8 z"
       style="fill:#ffffff;fill-opacity:1;fill-rule:nonzero;stroke:#44757a;stroke-width:1;stroke-linecap:butt;stroke-linejoin:miter;stroke-miterlimit:10;stroke-dasharray:none;stroke-opacity:1"
       transform="matrix(1.3333333,0,0,-1.3333333,0,294.42204)" />
    <text
       id="text6"
       xml:space="preserve"
       transform="matrix(1.3333333,0,0,1.3333333,123.67116,44.466466)"><tspan
         id="tspan6"
         style="font-variant:normal;font-weight:normal;font-size:10px;font-family:'DejaVu Sans';writing-mode:lr-tb;fill:#000000;fill-opacity:1;fill-rule:nonzero;stroke:none"
         x="0"
         y="0">CSR+anneal</tspan></text>
    <path
       id="path7"
       d="m 163.28462,190.96668 h 8 8"
       style="fill:none;stroke:#d44c3c;stroke-width:1.6;stroke-linecap:square;stroke-linejoin:round;stroke-miterlimit:10;stroke-dasharray:none;stroke-opacity:1"
       transform="matrix(1.3333333,0,0,-1.3333333,0,294.42204)" />
    <path
       id="path8"
       d="m 171.28462,188.27967 2.687,2.68701 -2.687,2.687 -2.68701,-2.687 z"
       style="fill:#ffffff;fill-opacity:1;fill-rule:nonzero;stroke:#d44c3c;stroke-width:1;stroke-linecap:butt;stroke-linejoin:miter;stroke-miterlimit:10;stroke-dasharray:none;stroke-opacity:1"
       transform="matrix(1.3333333,0,0,-1.3333333,0,294.42204)" />
    <text
       id="text8"
       xml:space="preserve"
       transform="matrix(1.3333333,0,0,1.3333333,245.71282,44.466466)"><tspan
         id="tspan8"
         style="font-variant:normal;font-weight:normal;font-size:10px;font-family:'DejaVu Sans';writing-mode:lr-tb;fill:#000000;fill-opacity:1;fill-rule:nonzero;stroke:none"
         x="0"
         y="0">CSRv2</tspan></text>
    <path
       id="path9"
       d="m 52.676059,28.28375 v 3.5"
       style="fill:#000000;fill-opacity:1;fill-rule:nonzero;stroke:#000000;stroke-width:0.8;stroke-linecap:butt;stroke-linejoin:round;stroke-miterlimit:10;stroke-dasharray:none;stroke-opacity:1"
       transform="matrix(1.3333333,0,0,-1.3333333,0,294.42204)" />
    <path
       id="path10"
       d="m 52.676059,172.88711 v -3.5"
       style="fill:#000000;fill-opacity:1;fill-rule:nonzero;stroke:#000000;stroke-width:0.8;stroke-linecap:butt;stroke-linejoin:round;stroke-miterlimit:10;stroke-dasharray:none;stroke-opacity:1"
       transform="matrix(1.3333333,0,0,-1.3333333,0,294.42204)" />
    <text
       id="text10"
       xml:space="preserve"
       transform="matrix(1.3333333,0,0,1.3333333,65.995163,271.50204)"><tspan
         id="tspan10"
         style="font-variant:normal;font-weight:normal;font-size:10px;font-family:'DejaVu Sans';writing-mode:lr-tb;fill:#000000;fill-opacity:1;fill-rule:nonzero;stroke:none"
         x="0"
         y="0">2</tspan></text>
    <path
       id="path11"
       d="m 89.325733,28.28375 v 3.5"
       style="fill:#000000;fill-opacity:1;fill-rule:nonzero;stroke:#000000;stroke-width:0.8;stroke-linecap:butt;stroke-linejoin:round;stroke-miterlimit:10;stroke-dasharray:none;stroke-opacity:1"
       transform="matrix(1.3333333,0,0,-1.3333333,0,294.42204)" />
    <path
       id="path12"
       d="m 89.325733,172.88711 v -3.5"
       style="fill:#000000;fill-opacity:1;fill-rule:nonzero;stroke:#000000;stroke-width:0.8;stroke-linecap:butt;stroke-linejoin:round;stroke-miterlimit:10;stroke-dasharray:none;stroke-opacity:1"
       transform="matrix(1.3333333,0,0,-1.3333333,0,294.42204)" />
    <text
       id="text12"
       xml:space="preserve"
       transform="matrix(1.3333333,0,0,1.3333333,114.86139,271.50204)"><tspan
         id="tspan12"
         style="font-variant:normal;font-weight:normal;font-size:10px;font-family:'DejaVu Sans';writing-mode:lr-tb;fill:#000000;fill-opacity:1;fill-rule:nonzero;stroke:none"
         x="0"
         y="0">4</tspan></text>
    <path
       id="path13"
       d="m 125.97541,28.28375 v 3.5"
       style="fill:#000000;fill-opacity:1;fill-rule:nonzero;stroke:#000000;stroke-width:0.8;stroke-linecap:butt;stroke-linejoin:round;stroke-miterlimit:10;stroke-dasharray:none;stroke-opacity:1"
       transform="matrix(1.3333333,0,0,-1.3333333,0,294.42204)" />
    <path
       id="path14"
       d="m 125.97541,172.88711 v -3.5"
       style="fill:#000000;fill-opacity:1;fill-rule:nonzero;stroke:#000000;stroke-width:0.8;stroke-linecap:butt;stroke-linejoin:round;stroke-miterlimit:10;stroke-dasharray:none;stroke-opacity:1"
       transform="matrix(1.3333333,0,0,-1.3333333,0,294.42204)" />
    <text
       id="text14"
       xml:space="preserve"
       transform="matrix(1.3333333,0,0,1.3333333,163.72762,271.50204)"><tspan
         id="tspan14"
         style="font-variant:normal;font-weight:normal;font-size:10px;font-family:'DejaVu Sans';writing-mode:lr-tb;fill:#000000;fill-opacity:1;fill-rule:nonzero;stroke:none"
         x="0"
         y="0">8</tspan></text>
    <path
       id="path15"
       d="m 162.62508,28.28375 v 3.5"
       style="fill:#000000;fill-opacity:1;fill-rule:nonzero;stroke:#000000;stroke-width:0.8;stroke-linecap:butt;stroke-linejoin:round;stroke-miterlimit:10;stroke-dasharray:none;stroke-opacity:1"
       transform="matrix(1.3333333,0,0,-1.3333333,0,294.42204)" />
    <path
       id="path16"
       d="m 162.62508,172.88711 v -3.5"
       style="fill:#000000;fill-opacity:1;fill-rule:nonzero;stroke:#000000;stroke-width:0.8;stroke-linecap:butt;stroke-linejoin:round;stroke-miterlimit:10;stroke-dasharray:none;stroke-opacity:1"
       transform="matrix(1.3333333,0,0,-1.3333333,0,294.42204)" />
    <text
       id="text16"
       xml:space="preserve"
       transform="matrix(1.3333333,0,0,1.3333333,208.35427,271.50204)"><tspan
         id="tspan16"
         style="font-variant:normal;font-weight:normal;font-size:10px;font-family:'DejaVu Sans';writing-mode:lr-tb;fill:#000000;fill-opacity:1;fill-rule:nonzero;stroke:none"
         x="0"
         y="0">16</tspan></text>
    <path
       id="path17"
       d="m 199.27475,28.28375 v 3.5"
       style="fill:#000000;fill-opacity:1;fill-rule:nonzero;stroke:#000000;stroke-width:0.8;stroke-linecap:butt;stroke-linejoin:round;stroke-miterlimit:10;stroke-dasharray:none;stroke-opacity:1"
       transform="matrix(1.3333333,0,0,-1.3333333,0,294.42204)" />
    <path
       id="path18"
       d="m 199.27475,172.88711 v -3.5"
       style="fill:#000000;fill-opacity:1;fill-rule:nonzero;stroke:#000000;stroke-width:0.8;stroke-linecap:butt;stroke-linejoin:round;stroke-miterlimit:10;stroke-dasharray:none;stroke-opacity:1"
       transform="matrix(1.3333333,0,0,-1.3333333,0,294.42204)" />
    <text
       id="text18"
       xml:space="preserve"
       transform="matrix(1.3333333,0,0,1.3333333,257.2205,271.50204)"><tspan
         id="tspan18"
         style="font-variant:normal;font-weight:normal;font-size:10px;font-family:'DejaVu Sans';writing-mode:lr-tb;fill:#000000;fill-opacity:1;fill-rule:nonzero;stroke:none"
         x="0"
         y="0">32</tspan></text>
    <path
       id="path19"
       d="m 235.92443,28.28375 v 3.5"
       style="fill:#000000;fill-opacity:1;fill-rule:nonzero;stroke:#000000;stroke-width:0.8;stroke-linecap:butt;stroke-linejoin:round;stroke-miterlimit:10;stroke-dasharray:none;stroke-opacity:1"
       transform="matrix(1.3333333,0,0,-1.3333333,0,294.42204)" />
    <path
       id="path20"
       d="m 235.92443,172.88711 v -3.5"
       style="fill:#000000;fill-opacity:1;fill-rule:nonzero;stroke:#000000;stroke-width:0.8;stroke-linecap:butt;stroke-linejoin:round;stroke-miterlimit:10;stroke-dasharray:none;stroke-opacity:1"
       transform="matrix(1.3333333,0,0,-1.3333333,0,294.42204)" />
    <text
       id="text20"
       xml:space="preserve"
       transform="matrix(1.3333333,0,0,1.3333333,306.08673,271.50204)"><tspan
         id="tspan20"
         style="font-variant:normal;font-weight:normal;font-size:10px;font-family:'DejaVu Sans';writing-mode:lr-tb;fill:#000000;fill-opacity:1;fill-rule:nonzero;stroke:none"
         x="0"
         y="0">64</tspan></text>
    <text
       id="text21"
       xml:space="preserve"
       transform="matrix(1.3333333,0,0,1.3333333,156.11907,289.7312)"><tspan
         id="tspan21"
         style="font-variant:normal;font-weight:normal;font-size:10px;font-family:'DejaVu Sans';writing-mode:lr-tb;fill:#000000;fill-opacity:1;fill-rule:nonzero;stroke:none"
         x="0"
         dx="0 -0.171875"
         y="0">Active Dim</tspan></text>
    <path
       id="path21"
       d="M 40.8775,57.204422 H 247.72298"
       style="fill:none;stroke:#b0b0b0;stroke-width:0.5;stroke-linecap:butt;stroke-linejoin:round;stroke-miterlimit:10;stroke-dasharray:1.85, 0.8;stroke-dashoffset:0;stroke-opacity:0.5"
       transform="matrix(1.3333333,0,0,-1.3333333,0,294.42204)"
       clip-path="url(#clipPath22)" />
    <path
       id="path23"
       d="m 40.8775,57.204422 h 3.5"
       style="fill:#000000;fill-opacity:1;fill-rule:nonzero;stroke:#000000;stroke-width:0.8;stroke-linecap:butt;stroke-linejoin:round;stroke-miterlimit:10;stroke-dasharray:none;stroke-opacity:1"
       transform="matrix(1.3333333,0,0,-1.3333333,0,294.42204)" />
    <path
       id="path24"
       d="m 247.72298,57.204422 h -3.5"
       style="fill:#000000;fill-opacity:1;fill-rule:nonzero;stroke:#000000;stroke-width:0.8;stroke-linecap:butt;stroke-linejoin:round;stroke-miterlimit:10;stroke-dasharray:none;stroke-opacity:1"
       transform="matrix(1.3333333,0,0,-1.3333333,0,294.42204)" />
    <text
       id="text24"
       xml:space="preserve"
       transform="matrix(1.3333333,0,0,1.3333333,20.149167,223.21198)"><tspan
         id="tspan24"
         style="font-variant:normal;font-weight:normal;font-size:10px;font-family:'DejaVu Sans';writing-mode:lr-tb;fill:#000000;fill-opacity:1;fill-rule:nonzero;stroke:none"
         x="0"
         y="0">20.0</tspan></text>
    <path
       id="path25"
       d="M 40.8775,86.125093 H 247.72298"
       style="fill:none;stroke:#b0b0b0;stroke-width:0.5;stroke-linecap:butt;stroke-linejoin:round;stroke-miterlimit:10;stroke-dasharray:1.85, 0.8;stroke-dashoffset:0;stroke-opacity:0.5"
       transform="matrix(1.3333333,0,0,-1.3333333,0,294.42204)"
       clip-path="url(#clipPath26)" />
    <path
       id="path27"
       d="m 40.8775,86.125093 h 3.5"
       style="fill:#000000;fill-opacity:1;fill-rule:nonzero;stroke:#000000;stroke-width:0.8;stroke-linecap:butt;stroke-linejoin:round;stroke-miterlimit:10;stroke-dasharray:none;stroke-opacity:1"
       transform="matrix(1.3333333,0,0,-1.3333333,0,294.42204)" />
    <path
       id="path28"
       d="m 247.72298,86.125093 h -3.5"
       style="fill:#000000;fill-opacity:1;fill-rule:nonzero;stroke:#000000;stroke-width:0.8;stroke-linecap:butt;stroke-linejoin:round;stroke-miterlimit:10;stroke-dasharray:none;stroke-opacity:1"
       transform="matrix(1.3333333,0,0,-1.3333333,0,294.42204)" />
    <text
       id="text28"
       xml:space="preserve"
       transform="matrix(1.3333333,0,0,1.3333333,20.149167,184.65108)"><tspan
         id="tspan28"
         style="font-variant:normal;font-weight:normal;font-size:10px;font-family:'DejaVu Sans';writing-mode:lr-tb;fill:#000000;fill-opacity:1;fill-rule:nonzero;stroke:none"
         x="0"
         y="0">40.0</tspan></text>
    <path
       id="path29"
       d="M 40.8775,115.04577 H 247.72298"
       style="fill:none;stroke:#b0b0b0;stroke-width:0.5;stroke-linecap:butt;stroke-linejoin:round;stroke-miterlimit:10;stroke-dasharray:1.85, 0.8;stroke-dashoffset:0;stroke-opacity:0.5"
       transform="matrix(1.3333333,0,0,-1.3333333,0,294.42204)"
       clip-path="url(#clipPath30)" />
    <path
       id="path31"
       d="m 40.8775,115.04577 h 3.5"
       style="fill:#000000;fill-opacity:1;fill-rule:nonzero;stroke:#000000;stroke-width:0.8;stroke-linecap:butt;stroke-linejoin:round;stroke-miterlimit:10;stroke-dasharray:none;stroke-opacity:1"
       transform="matrix(1.3333333,0,0,-1.3333333,0,294.42204)" />
    <path
       id="path32"
       d="m 247.72298,115.04577 h -3.5"
       style="fill:#000000;fill-opacity:1;fill-rule:nonzero;stroke:#000000;stroke-width:0.8;stroke-linecap:butt;stroke-linejoin:round;stroke-miterlimit:10;stroke-dasharray:none;stroke-opacity:1"
       transform="matrix(1.3333333,0,0,-1.3333333,0,294.42204)" />
    <text
       id="text32"
       xml:space="preserve"
       transform="matrix(1.3333333,0,0,1.3333333,20.149167,146.09018)"><tspan
         id="tspan32"
         style="font-variant:normal;font-weight:normal;font-size:10px;font-family:'DejaVu Sans';writing-mode:lr-tb;fill:#000000;fill-opacity:1;fill-rule:nonzero;stroke:none"
         x="0"
         y="0">60.0</tspan></text>
    <path
       id="path33"
       d="M 40.8775,143.96644 H 247.72298"
       style="fill:none;stroke:#b0b0b0;stroke-width:0.5;stroke-linecap:butt;stroke-linejoin:round;stroke-miterlimit:10;stroke-dasharray:1.85, 0.8;stroke-dashoffset:0;stroke-opacity:0.5"
       transform="matrix(1.3333333,0,0,-1.3333333,0,294.42204)"
       clip-path="url(#clipPath34)" />
    <path
       id="path35"
       d="m 40.8775,143.96644 h 3.5"
       style="fill:#000000;fill-opacity:1;fill-rule:nonzero;stroke:#000000;stroke-width:0.8;stroke-linecap:butt;stroke-linejoin:round;stroke-miterlimit:10;stroke-dasharray:none;stroke-opacity:1"
       transform="matrix(1.3333333,0,0,-1.3333333,0,294.42204)" />
    <path
       id="path36"
       d="m 247.72298,143.96644 h -3.5"
       style="fill:#000000;fill-opacity:1;fill-rule:nonzero;stroke:#000000;stroke-width:0.8;stroke-linecap:butt;stroke-linejoin:round;stroke-miterlimit:10;stroke-dasharray:none;stroke-opacity:1"
       transform="matrix(1.3333333,0,0,-1.3333333,0,294.42204)" />
    <text
       id="text36"
       xml:space="preserve"
       transform="matrix(1.3333333,0,0,1.3333333,20.149167,107.52929)"><tspan
         id="tspan36"
         style="font-variant:normal;font-weight:normal;font-size:10px;font-family:'DejaVu Sans';writing-mode:lr-tb;fill:#000000;fill-opacity:1;fill-rule:nonzero;stroke:none"
         x="0"
         y="0">80.0</tspan></text>
    <text
       id="text37"
       xml:space="preserve"
       transform="matrix(0,-1.3333333,1.3333333,0,12.045,234.5998)"><tspan
         id="tspan37"
         style="font-variant:normal;font-weight:normal;font-size:10px;font-family:'DejaVu Sans';writing-mode:lr-tb;fill:#000000;fill-opacity:1;fill-rule:nonzero;stroke:none"
         x="0"
         dx="0 0 0 0 0 0 0 0 0 -0.21875"
         y="0">Dead neuron ratio (%)</tspan></text>
    <path
       id="path37"
       d="m 52.676059,155.65039 36.649674,-27.445 36.649677,-30.685552 36.64967,-23.302687 36.64967,-21.624131 36.64968,-5.814501"
       style="fill:none;stroke:#452a3d;stroke-width:1.6;stroke-linecap:square;stroke-linejoin:round;stroke-miterlimit:10;stroke-dasharray:none;stroke-opacity:1"
       transform="matrix(1.3333333,0,0,-1.3333333,0,294.42204)"
       clip-path="url(#clipPath38)" />
    <g
       id="g40"
       clip-path="url(#clipPath41)">
      <path
         d="m 0,-1.9 c 0.503886,0 0.987202,0.200196 1.343503,0.556497 C 1.699804,-0.987202 1.9,-0.503886 1.9,0 1.9,0.503886 1.699804,0.987202 1.343503,1.343503 0.987202,1.699804 0.503886,1.9 0,1.9 -0.503886,1.9 -0.987202,1.699804 -1.343503,1.343503 -1.699804,0.987202 -1.9,0.503886 -1.9,0 c 0,-0.503886 0.200196,-0.987202 0.556497,-1.343503 C -0.987202,-1.699804 -0.503886,-1.9 0,-1.9 Z"
         style="fill:#ffffff;fill-opacity:1;fill-rule:nonzero;stroke:#452a3d;stroke-width:1;stroke-linecap:butt;stroke-linejoin:round;stroke-miterlimit:10;stroke-dasharray:none;stroke-opacity:1"
         transform="matrix(1.3333333,0,0,-1.3333333,70.234746,86.888187)"
         clip-path="url(#clipPath39)"
         id="path40" />
    </g>
    <g
       id="g43"
       clip-path="url(#clipPath44)">
      <path
         d="m 0,-1.9 c 0.503886,0 0.987202,0.200196 1.343503,0.556497 C 1.699804,-0.987202 1.9,-0.503886 1.9,0 1.9,0.503886 1.699804,0.987202 1.343503,1.343503 0.987202,1.699804 0.503886,1.9 0,1.9 -0.503886,1.9 -0.987202,1.699804 -1.343503,1.343503 -1.699804,0.987202 -1.9,0.503886 -1.9,0 c 0,-0.503886 0.200196,-0.987202 0.556497,-1.343503 C -0.987202,-1.699804 -0.503886,-1.9 0,-1.9 Z"
         style="fill:#ffffff;fill-opacity:1;fill-rule:nonzero;stroke:#452a3d;stroke-width:1;stroke-linecap:butt;stroke-linejoin:round;stroke-miterlimit:10;stroke-dasharray:none;stroke-opacity:1"
         transform="matrix(1.3333333,0,0,-1.3333333,119.10098,123.48151)"
         clip-path="url(#clipPath42)"
         id="path43" />
    </g>
    <g
       id="g46"
       clip-path="url(#clipPath47)">
      <path
         d="m 0,-1.9 c 0.503886,0 0.987202,0.200196 1.343503,0.556497 C 1.699804,-0.987202 1.9,-0.503886 1.9,0 1.9,0.503886 1.699804,0.987202 1.343503,1.343503 0.987202,1.699804 0.503886,1.9 0,1.9 -0.503886,1.9 -0.987202,1.699804 -1.343503,1.343503 -1.699804,0.987202 -1.9,0.503886 -1.9,0 c 0,-0.503886 0.200196,-0.987202 0.556497,-1.343503 C -0.987202,-1.699804 -0.503886,-1.9 0,-1.9 Z"
         style="fill:#ffffff;fill-opacity:1;fill-rule:nonzero;stroke:#452a3d;stroke-width:1;stroke-linecap:butt;stroke-linejoin:round;stroke-miterlimit:10;stroke-dasharray:none;stroke-opacity:1"
         transform="matrix(1.3333333,0,0,-1.3333333,167.96721,164.39559)"
         clip-path="url(#clipPath45)"
         id="path46" />
    </g>
    <g
       id="g49"
       clip-path="url(#clipPath50)">
      <path
         d="m 0,-1.9 c 0.503886,0 0.987202,0.200196 1.343503,0.556497 C 1.699804,-0.987202 1.9,-0.503886 1.9,0 1.9,0.503886 1.699804,0.987202 1.343503,1.343503 0.987202,1.699804 0.503886,1.9 0,1.9 -0.503886,1.9 -0.987202,1.699804 -1.343503,1.343503 -1.699804,0.987202 -1.9,0.503886 -1.9,0 c 0,-0.503886 0.200196,-0.987202 0.556497,-1.343503 C -0.987202,-1.699804 -0.503886,-1.9 0,-1.9 Z"
         style="fill:#ffffff;fill-opacity:1;fill-rule:nonzero;stroke:#452a3d;stroke-width:1;stroke-linecap:butt;stroke-linejoin:round;stroke-miterlimit:10;stroke-dasharray:none;stroke-opacity:1"
         transform="matrix(1.3333333,0,0,-1.3333333,216.83344,195.46584)"
         clip-path="url(#clipPath48)"
         id="path49" />
    </g>
    <g
       id="g52"
       clip-path="url(#clipPath53)">
      <path
         d="m 0,-1.9 c 0.503886,0 0.987202,0.200196 1.343503,0.556497 C 1.699804,-0.987202 1.9,-0.503886 1.9,0 1.9,0.503886 1.699804,0.987202 1.343503,1.343503 0.987202,1.699804 0.503886,1.9 0,1.9 -0.503886,1.9 -0.987202,1.699804 -1.343503,1.343503 -1.699804,0.987202 -1.9,0.503886 -1.9,0 c 0,-0.503886 0.200196,-0.987202 0.556497,-1.343503 C -0.987202,-1.699804 -0.503886,-1.9 0,-1.9 Z"
         style="fill:#ffffff;fill-opacity:1;fill-rule:nonzero;stroke:#452a3d;stroke-width:1;stroke-linecap:butt;stroke-linejoin:round;stroke-miterlimit:10;stroke-dasharray:none;stroke-opacity:1"
         transform="matrix(1.3333333,0,0,-1.3333333,265.69967,224.29801)"
         clip-path="url(#clipPath51)"
         id="path52" />
    </g>
    <g
       id="g55"
       clip-path="url(#clipPath56)">
      <path
         d="m 0,-1.9 c 0.503886,0 0.987202,0.200196 1.343503,0.556497 C 1.699804,-0.987202 1.9,-0.503886 1.9,0 1.9,0.503886 1.699804,0.987202 1.343503,1.343503 0.987202,1.699804 0.503886,1.9 0,1.9 -0.503886,1.9 -0.987202,1.699804 -1.343503,1.343503 -1.699804,0.987202 -1.9,0.503886 -1.9,0 c 0,-0.503886 0.200196,-0.987202 0.556497,-1.343503 C -0.987202,-1.699804 -0.503886,-1.9 0,-1.9 Z"
         style="fill:#ffffff;fill-opacity:1;fill-rule:nonzero;stroke:#452a3d;stroke-width:1;stroke-linecap:butt;stroke-linejoin:round;stroke-miterlimit:10;stroke-dasharray:none;stroke-opacity:1"
         transform="matrix(1.3333333,0,0,-1.3333333,314.5659,232.05068)"
         clip-path="url(#clipPath54)"
         id="path55" />
    </g>
    <path
       id="path57"
       d="m 52.676059,67.283276 36.649674,-4.916515 36.649677,-2.429336 36.64967,-1.373732 36.64967,-5.249102 36.64968,-8.343614"
       style="fill:none;stroke:#44757a;stroke-width:1.6;stroke-linecap:square;stroke-linejoin:round;stroke-miterlimit:10;stroke-dasharray:none;stroke-opacity:1"
       transform="matrix(1.3333333,0,0,-1.3333333,0,294.42204)"
       clip-path="url(#clipPath58)" />
    <g
       id="g60"
       clip-path="url(#clipPath61)">
      <path
         d="M -1.9,-1.9 H 1.9 V 1.9 H -1.9 Z"
         style="fill:#ffffff;fill-opacity:1;fill-rule:nonzero;stroke:#44757a;stroke-width:1;stroke-linecap:butt;stroke-linejoin:miter;stroke-miterlimit:10;stroke-dasharray:none;stroke-opacity:1"
         transform="matrix(1.3333333,0,0,-1.3333333,70.234746,204.711)"
         clip-path="url(#clipPath59)"
         id="path60" />
    </g>
    <g
       id="g63"
       clip-path="url(#clipPath64)">
      <path
         d="M -1.9,-1.9 H 1.9 V 1.9 H -1.9 Z"
         style="fill:#ffffff;fill-opacity:1;fill-rule:nonzero;stroke:#44757a;stroke-width:1;stroke-linecap:butt;stroke-linejoin:miter;stroke-miterlimit:10;stroke-dasharray:none;stroke-opacity:1"
         transform="matrix(1.3333333,0,0,-1.3333333,119.10098,211.26636)"
         clip-path="url(#clipPath62)"
         id="path63" />
    </g>
    <g
       id="g66"
       clip-path="url(#clipPath67)">
      <path
         d="M -1.9,-1.9 H 1.9 V 1.9 H -1.9 Z"
         style="fill:#ffffff;fill-opacity:1;fill-rule:nonzero;stroke:#44757a;stroke-width:1;stroke-linecap:butt;stroke-linejoin:miter;stroke-miterlimit:10;stroke-dasharray:none;stroke-opacity:1"
         transform="matrix(1.3333333,0,0,-1.3333333,167.96721,214.50547)"
         clip-path="url(#clipPath65)"
         id="path66" />
    </g>
    <g
       id="g69"
       clip-path="url(#clipPath70)">
      <path
         d="M -1.9,-1.9 H 1.9 V 1.9 H -1.9 Z"
         style="fill:#ffffff;fill-opacity:1;fill-rule:nonzero;stroke:#44757a;stroke-width:1;stroke-linecap:butt;stroke-linejoin:miter;stroke-miterlimit:10;stroke-dasharray:none;stroke-opacity:1"
         transform="matrix(1.3333333,0,0,-1.3333333,216.83344,216.33711)"
         clip-path="url(#clipPath68)"
         id="path69" />
    </g>
    <g
       id="g72"
       clip-path="url(#clipPath73)">
      <path
         d="M -1.9,-1.9 H 1.9 V 1.9 H -1.9 Z"
         style="fill:#ffffff;fill-opacity:1;fill-rule:nonzero;stroke:#44757a;stroke-width:1;stroke-linecap:butt;stroke-linejoin:miter;stroke-miterlimit:10;stroke-dasharray:none;stroke-opacity:1"
         transform="matrix(1.3333333,0,0,-1.3333333,265.69967,223.33592)"
         clip-path="url(#clipPath71)"
         id="path72" />
    </g>
    <g
       id="g75"
       clip-path="url(#clipPath76)">
      <path
         d="M -1.9,-1.9 H 1.9 V 1.9 H -1.9 Z"
         style="fill:#ffffff;fill-opacity:1;fill-rule:nonzero;stroke:#44757a;stroke-width:1;stroke-linecap:butt;stroke-linejoin:miter;stroke-miterlimit:10;stroke-dasharray:none;stroke-opacity:1"
         transform="matrix(1.3333333,0,0,-1.3333333,314.5659,234.46073)"
         clip-path="url(#clipPath74)"
         id="path75" />
    </g>
    <path
       id="path77"
       d="m 52.676059,59.011964 36.649674,-0.40489 36.649677,-4.468244 36.64967,-1.344811 36.64967,-1.532795 36.64968,-4.555006"
       style="fill:none;stroke:#b7b5a0;stroke-width:1.6;stroke-linecap:square;stroke-linejoin:round;stroke-miterlimit:10;stroke-dasharray:none;stroke-opacity:1"
       transform="matrix(1.3333333,0,0,-1.3333333,0,294.42204)"
       clip-path="url(#clipPath78)" />
    <g
       id="g80"
       clip-path="url(#clipPath81)">
      <path
         d="M 0,1.9 -1.9,-1.9 H 1.9 Z"
         style="fill:#ffffff;fill-opacity:1;fill-rule:nonzero;stroke:#b7b5a0;stroke-width:1;stroke-linecap:butt;stroke-linejoin:miter;stroke-miterlimit:10;stroke-dasharray:none;stroke-opacity:1"
         transform="matrix(1.3333333,0,0,-1.3333333,70.234746,215.73942)"
         clip-path="url(#clipPath79)"
         id="path80" />
    </g>
    <g
       id="g83"
       clip-path="url(#clipPath84)">
      <path
         d="M 0,1.9 -1.9,-1.9 H 1.9 Z"
         style="fill:#ffffff;fill-opacity:1;fill-rule:nonzero;stroke:#b7b5a0;stroke-width:1;stroke-linecap:butt;stroke-linejoin:miter;stroke-miterlimit:10;stroke-dasharray:none;stroke-opacity:1"
         transform="matrix(1.3333333,0,0,-1.3333333,119.10098,216.27927)"
         clip-path="url(#clipPath82)"
         id="path83" />
    </g>
    <g
       id="g86"
       clip-path="url(#clipPath87)">
      <path
         d="M 0,1.9 -1.9,-1.9 H 1.9 Z"
         style="fill:#ffffff;fill-opacity:1;fill-rule:nonzero;stroke:#b7b5a0;stroke-width:1;stroke-linecap:butt;stroke-linejoin:miter;stroke-miterlimit:10;stroke-dasharray:none;stroke-opacity:1"
         transform="matrix(1.3333333,0,0,-1.3333333,167.96721,222.23693)"
         clip-path="url(#clipPath85)"
         id="path86" />
    </g>
    <g
       id="g89"
       clip-path="url(#clipPath90)">
      <path
         d="M 0,1.9 -1.9,-1.9 H 1.9 Z"
         style="fill:#ffffff;fill-opacity:1;fill-rule:nonzero;stroke:#b7b5a0;stroke-width:1;stroke-linecap:butt;stroke-linejoin:miter;stroke-miterlimit:10;stroke-dasharray:none;stroke-opacity:1"
         transform="matrix(1.3333333,0,0,-1.3333333,216.83344,224.03001)"
         clip-path="url(#clipPath88)"
         id="path89" />
    </g>
    <g
       id="g92"
       clip-path="url(#clipPath93)">
      <path
         d="M 0,1.9 -1.9,-1.9 H 1.9 Z"
         style="fill:#ffffff;fill-opacity:1;fill-rule:nonzero;stroke:#b7b5a0;stroke-width:1;stroke-linecap:butt;stroke-linejoin:miter;stroke-miterlimit:10;stroke-dasharray:none;stroke-opacity:1"
         transform="matrix(1.3333333,0,0,-1.3333333,265.69967,226.07374)"
         clip-path="url(#clipPath91)"
         id="path92" />
    </g>
    <g
       id="g95"
       clip-path="url(#clipPath96)">
      <path
         d="M 0,1.9 -1.9,-1.9 H 1.9 Z"
         style="fill:#ffffff;fill-opacity:1;fill-rule:nonzero;stroke:#b7b5a0;stroke-width:1;stroke-linecap:butt;stroke-linejoin:miter;stroke-miterlimit:10;stroke-dasharray:none;stroke-opacity:1"
         transform="matrix(1.3333333,0,0,-1.3333333,314.5659,232.14708)"
         clip-path="url(#clipPath94)"
         id="path95" />
    </g>
    <path
       id="path97"
       d="m 52.676059,60.15433 36.649674,-1.662939 36.649677,-3.224654 36.64967,-3.658465 36.64967,-1.041145 36.64968,-3.398178"
       style="fill:none;stroke:#d44c3c;stroke-width:1.6;stroke-linecap:square;stroke-linejoin:round;stroke-miterlimit:10;stroke-dasharray:none;stroke-opacity:1"
       transform="matrix(1.3333333,0,0,-1.3333333,0,294.42204)"
       clip-path="url(#clipPath98)" />
    <g
       id="g100"
       clip-path="url(#clipPath101)">
      <path
         d="M 0,-2.687006 2.687006,0 0,2.687006 -2.687006,0 Z"
         style="fill:#ffffff;fill-opacity:1;fill-rule:nonzero;stroke:#d44c3c;stroke-width:1;stroke-linecap:butt;stroke-linejoin:miter;stroke-miterlimit:10;stroke-dasharray:none;stroke-opacity:1"
         transform="matrix(1.3333333,0,0,-1.3333333,70.234746,214.21626)"
         clip-path="url(#clipPath99)"
         id="path100" />
    </g>
    <g
       id="g103"
       clip-path="url(#clipPath104)">
      <path
         d="M 0,-2.687006 2.687006,0 0,2.687006 -2.687006,0 Z"
         style="fill:#ffffff;fill-opacity:1;fill-rule:nonzero;stroke:#d44c3c;stroke-width:1;stroke-linecap:butt;stroke-linejoin:miter;stroke-miterlimit:10;stroke-dasharray:none;stroke-opacity:1"
         transform="matrix(1.3333333,0,0,-1.3333333,119.10098,216.43352)"
         clip-path="url(#clipPath102)"
         id="path103" />
    </g>
    <g
       id="g106"
       clip-path="url(#clipPath107)">
      <path
         d="M 0,-2.687006 2.687006,0 0,2.687006 -2.687006,0 Z"
         style="fill:#ffffff;fill-opacity:1;fill-rule:nonzero;stroke:#d44c3c;stroke-width:1;stroke-linecap:butt;stroke-linejoin:miter;stroke-miterlimit:10;stroke-dasharray:none;stroke-opacity:1"
         transform="matrix(1.3333333,0,0,-1.3333333,167.96721,220.73306)"
         clip-path="url(#clipPath105)"
         id="path106" />
    </g>
    <g
       id="g109"
       clip-path="url(#clipPath110)">
      <path
         d="M 0,-2.687006 2.687006,0 0,2.687006 -2.687006,0 Z"
         style="fill:#ffffff;fill-opacity:1;fill-rule:nonzero;stroke:#d44c3c;stroke-width:1;stroke-linecap:butt;stroke-linejoin:miter;stroke-miterlimit:10;stroke-dasharray:none;stroke-opacity:1"
         transform="matrix(1.3333333,0,0,-1.3333333,216.83344,225.61101)"
         clip-path="url(#clipPath108)"
         id="path109" />
    </g>
    <g
       id="g112"
       clip-path="url(#clipPath113)">
      <path
         d="M 0,-2.687006 2.687006,0 0,2.687006 -2.687006,0 Z"
         style="fill:#ffffff;fill-opacity:1;fill-rule:nonzero;stroke:#d44c3c;stroke-width:1;stroke-linecap:butt;stroke-linejoin:miter;stroke-miterlimit:10;stroke-dasharray:none;stroke-opacity:1"
         transform="matrix(1.3333333,0,0,-1.3333333,265.69967,226.9992)"
         clip-path="url(#clipPath111)"
         id="path112" />
    </g>
    <g
       id="g115"
       clip-path="url(#clipPath116)">
      <path
         d="M 0,-2.687006 2.687006,0 0,2.687006 -2.687006,0 Z"
         style="fill:#ffffff;fill-opacity:1;fill-rule:nonzero;stroke:#d44c3c;stroke-width:1;stroke-linecap:butt;stroke-linejoin:miter;stroke-miterlimit:10;stroke-dasharray:none;stroke-opacity:1"
         transform="matrix(1.3333333,0,0,-1.3333333,314.5659,231.53011)"
         clip-path="url(#clipPath114)"
         id="path115" />
    </g>
    <path
       id="path117"
       d="M 40.8775,28.28375 V 172.88711"
       style="fill:none;stroke:#000000;stroke-width:0.8;stroke-linecap:square;stroke-linejoin:miter;stroke-miterlimit:10;stroke-dasharray:none;stroke-opacity:1"
       transform="matrix(1.3333333,0,0,-1.3333333,0,294.42204)" />
    <path
       id="path118"
       d="M 247.72298,28.28375 V 172.88711"
       style="fill:none;stroke:#000000;stroke-width:0.8;stroke-linecap:square;stroke-linejoin:miter;stroke-miterlimit:10;stroke-dasharray:none;stroke-opacity:1"
       transform="matrix(1.3333333,0,0,-1.3333333,0,294.42204)" />
    <path
       id="path119"
       d="M 40.8775,28.28375 H 247.72298"
       style="fill:none;stroke:#000000;stroke-width:0.8;stroke-linecap:square;stroke-linejoin:miter;stroke-miterlimit:10;stroke-dasharray:none;stroke-opacity:1"
       transform="matrix(1.3333333,0,0,-1.3333333,0,294.42204)" />
    <path
       id="path120"
       d="M 40.8775,172.88711 H 247.72298"
       style="fill:none;stroke:#000000;stroke-width:0.8;stroke-linecap:square;stroke-linejoin:miter;stroke-miterlimit:10;stroke-dasharray:none;stroke-opacity:1"
       transform="matrix(1.3333333,0,0,-1.3333333,0,294.42204)" />
  </g>
</svg>
