<?xml version="1.0" encoding="UTF-8" standalone="no"?>
<!-- Created with Inkscape (http://www.inkscape.org/) -->

<svg
   version="1.1"
   id="svg1"
   width="330.18094"
   height="222.61101"
   viewBox="0 0 330.18094 222.61101"
   sodipodi:docname="upload_hgglqxkgykrwx7wzcz2i5mxvyp.pdf"
   xmlns:inkscape="http://www.inkscape.org/namespaces/inkscape"
   xmlns:sodipodi="http://sodipodi.sourceforge.net/DTD/sodipodi-0.dtd"
   xmlns="http://www.w3.org/2000/svg"
   xmlns:svg="http://www.w3.org/2000/svg">
  <defs
     id="defs1">
    <clipPath
       clipPathUnits="userSpaceOnUse"
       id="clipPath12">
      <path
         d="M 27.518125,25.3775 H 232.20143 V 129.65136 H 27.518125 Z"
         id="path12" />
    </clipPath>
    <clipPath
       clipPathUnits="userSpaceOnUse"
       id="clipPath26">
      <path
         d="M 27.518125,25.3775 H 232.20143 V 129.65136 H 27.518125 Z"
         id="path26" />
    </clipPath>
    <clipPath
       clipPathUnits="userSpaceOnUse"
       id="clipPath30">
      <path
         d="M 27.518125,25.3775 H 232.20143 V 129.65136 H 27.518125 Z"
         id="path30" />
    </clipPath>
    <clipPath
       clipPathUnits="userSpaceOnUse"
       id="clipPath34">
      <path
         d="M 27.518125,25.3775 H 232.20143 V 129.65136 H 27.518125 Z"
         id="path34" />
    </clipPath>
    <clipPath
       clipPathUnits="userSpaceOnUse"
       id="clipPath38">
      <path
         d="M 27.518125,25.3775 H 232.20143 V 129.65136 H 27.518125 Z"
         id="path38" />
    </clipPath>
    <clipPath
       clipPathUnits="userSpaceOnUse"
       id="clipPath39">
      <path
         d="M -6.9,-6.9 H 6.9 V 6.9 H -6.9 Z"
         id="path39" />
    </clipPath>
    <clipPath
       clipPathUnits="userSpaceOnUse"
       id="clipPath41">
      <path
         d="M 27.518125,25.3775 H 232.20143 V 129.65136 H 27.518125 Z"
         transform="matrix(1.3333333,0,0,-1.3333333,0,222.61101)"
         id="path41" />
    </clipPath>
    <clipPath
       clipPathUnits="userSpaceOnUse"
       id="clipPath42">
      <path
         d="M -6.9,-6.9 H 6.9 V 6.9 H -6.9 Z"
         id="path42" />
    </clipPath>
    <clipPath
       clipPathUnits="userSpaceOnUse"
       id="clipPath44">
      <path
         d="M 27.518125,25.3775 H 232.20143 V 129.65136 H 27.518125 Z"
         transform="matrix(1.3333333,0,0,-1.3333333,0,222.61101)"
         id="path44" />
    </clipPath>
    <clipPath
       clipPathUnits="userSpaceOnUse"
       id="clipPath45">
      <path
         d="M -6.9,-6.9 H 6.9 V 6.9 H -6.9 Z"
         transform="translate(-2.7122e-6)"
         id="path45" />
    </clipPath>
    <clipPath
       clipPathUnits="userSpaceOnUse"
       id="clipPath47">
      <path
         d="M 27.518125,25.3775 H 232.20143 V 129.65136 H 27.518125 Z"
         transform="matrix(1.3333333,0,0,-1.3333333,0,222.61101)"
         id="path47" />
    </clipPath>
    <clipPath
       clipPathUnits="userSpaceOnUse"
       id="clipPath48">
      <path
         d="M -6.9,-6.9 H 6.9 V 6.9 H -6.9 Z"
         transform="translate(2.0723001e-6)"
         id="path48" />
    </clipPath>
    <clipPath
       clipPathUnits="userSpaceOnUse"
       id="clipPath50">
      <path
         d="M 27.518125,25.3775 H 232.20143 V 129.65136 H 27.518125 Z"
         transform="matrix(1.3333333,0,0,-1.3333333,0,222.61101)"
         id="path50" />
    </clipPath>
    <clipPath
       clipPathUnits="userSpaceOnUse"
       id="clipPath51">
      <path
         d="M -6.9,-6.9 H 6.9 V 6.9 H -6.9 Z"
         id="path51" />
    </clipPath>
    <clipPath
       clipPathUnits="userSpaceOnUse"
       id="clipPath53">
      <path
         d="M 27.518125,25.3775 H 232.20143 V 129.65136 H 27.518125 Z"
         transform="matrix(1.3333333,0,0,-1.3333333,0,222.61101)"
         id="path53" />
    </clipPath>
    <clipPath
       clipPathUnits="userSpaceOnUse"
       id="clipPath54">
      <path
         d="M -6.9,-6.9 H 6.9 V 6.9 H -6.9 Z"
         transform="translate(-3.3587001e-6)"
         id="path54" />
    </clipPath>
    <clipPath
       clipPathUnits="userSpaceOnUse"
       id="clipPath56">
      <path
         d="M 27.518125,25.3775 H 232.20143 V 129.65136 H 27.518125 Z"
         transform="matrix(1.3333333,0,0,-1.3333333,0,222.61101)"
         id="path56" />
    </clipPath>
    <clipPath
       clipPathUnits="userSpaceOnUse"
       id="clipPath58">
      <path
         d="M 27.518125,25.3775 H 232.20143 V 129.65136 H 27.518125 Z"
         id="path58" />
    </clipPath>
    <clipPath
       clipPathUnits="userSpaceOnUse"
       id="clipPath59">
      <path
         d="M -6.9,-6.9 H 6.9 V 6.9 H -6.9 Z"
         id="path59" />
    </clipPath>
    <clipPath
       clipPathUnits="userSpaceOnUse"
       id="clipPath61">
      <path
         d="M 27.518125,25.3775 H 232.20143 V 129.65136 H 27.518125 Z"
         transform="matrix(1.3333333,0,0,-1.3333333,0,222.61101)"
         id="path61" />
    </clipPath>
    <clipPath
       clipPathUnits="userSpaceOnUse"
       id="clipPath62">
      <path
         d="M -6.9,-6.9 H 6.9 V 6.9 H -6.9 Z"
         id="path62" />
    </clipPath>
    <clipPath
       clipPathUnits="userSpaceOnUse"
       id="clipPath64">
      <path
         d="M 27.518125,25.3775 H 232.20143 V 129.65136 H 27.518125 Z"
         transform="matrix(1.3333333,0,0,-1.3333333,0,222.61101)"
         id="path64" />
    </clipPath>
    <clipPath
       clipPathUnits="userSpaceOnUse"
       id="clipPath65">
      <path
         d="M -6.9,-6.9 H 6.9 V 6.9 H -6.9 Z"
         transform="translate(-2.7122e-6)"
         id="path65" />
    </clipPath>
    <clipPath
       clipPathUnits="userSpaceOnUse"
       id="clipPath67">
      <path
         d="M 27.518125,25.3775 H 232.20143 V 129.65136 H 27.518125 Z"
         transform="matrix(1.3333333,0,0,-1.3333333,0,222.61101)"
         id="path67" />
    </clipPath>
    <clipPath
       clipPathUnits="userSpaceOnUse"
       id="clipPath68">
      <path
         d="M -6.9,-6.9 H 6.9 V 6.9 H -6.9 Z"
         transform="translate(2.0723001e-6)"
         id="path68" />
    </clipPath>
    <clipPath
       clipPathUnits="userSpaceOnUse"
       id="clipPath70">
      <path
         d="M 27.518125,25.3775 H 232.20143 V 129.65136 H 27.518125 Z"
         transform="matrix(1.3333333,0,0,-1.3333333,0,222.61101)"
         id="path70" />
    </clipPath>
    <clipPath
       clipPathUnits="userSpaceOnUse"
       id="clipPath71">
      <path
         d="M -6.9,-6.9 H 6.9 V 6.9 H -6.9 Z"
         id="path71" />
    </clipPath>
    <clipPath
       clipPathUnits="userSpaceOnUse"
       id="clipPath73">
      <path
         d="M 27.518125,25.3775 H 232.20143 V 129.65136 H 27.518125 Z"
         transform="matrix(1.3333333,0,0,-1.3333333,0,222.61101)"
         id="path73" />
    </clipPath>
    <clipPath
       clipPathUnits="userSpaceOnUse"
       id="clipPath74">
      <path
         d="M -6.9,-6.9 H 6.9 V 6.9 H -6.9 Z"
         transform="translate(-3.3587001e-6)"
         id="path74" />
    </clipPath>
    <clipPath
       clipPathUnits="userSpaceOnUse"
       id="clipPath76">
      <path
         d="M 27.518125,25.3775 H 232.20143 V 129.65136 H 27.518125 Z"
         transform="matrix(1.3333333,0,0,-1.3333333,0,222.61101)"
         id="path76" />
    </clipPath>
    <clipPath
       clipPathUnits="userSpaceOnUse"
       id="clipPath78">
      <path
         d="M 27.518125,25.3775 H 232.20143 V 129.65136 H 27.518125 Z"
         id="path78" />
    </clipPath>
    <clipPath
       clipPathUnits="userSpaceOnUse"
       id="clipPath79">
      <path
         d="M -6.9,-6.9 H 6.9 V 6.9 H -6.9 Z"
         id="path79" />
    </clipPath>
    <clipPath
       clipPathUnits="userSpaceOnUse"
       id="clipPath81">
      <path
         d="M 27.518125,25.3775 H 232.20143 V 129.65136 H 27.518125 Z"
         transform="matrix(1.3333333,0,0,-1.3333333,0,222.61101)"
         id="path81" />
    </clipPath>
    <clipPath
       clipPathUnits="userSpaceOnUse"
       id="clipPath82">
      <path
         d="M -6.9,-6.9 H 6.9 V 6.9 H -6.9 Z"
         id="path82" />
    </clipPath>
    <clipPath
       clipPathUnits="userSpaceOnUse"
       id="clipPath84">
      <path
         d="M 27.518125,25.3775 H 232.20143 V 129.65136 H 27.518125 Z"
         transform="matrix(1.3333333,0,0,-1.3333333,0,222.61101)"
         id="path84" />
    </clipPath>
    <clipPath
       clipPathUnits="userSpaceOnUse"
       id="clipPath85">
      <path
         d="M -6.9,-6.9 H 6.9 V 6.9 H -6.9 Z"
         transform="translate(-2.7122e-6)"
         id="path85" />
    </clipPath>
    <clipPath
       clipPathUnits="userSpaceOnUse"
       id="clipPath87">
      <path
         d="M 27.518125,25.3775 H 232.20143 V 129.65136 H 27.518125 Z"
         transform="matrix(1.3333333,0,0,-1.3333333,0,222.61101)"
         id="path87" />
    </clipPath>
    <clipPath
       clipPathUnits="userSpaceOnUse"
       id="clipPath88">
      <path
         d="M -6.9,-6.9 H 6.9 V 6.9 H -6.9 Z"
         transform="translate(2.0723001e-6)"
         id="path88" />
    </clipPath>
    <clipPath
       clipPathUnits="userSpaceOnUse"
       id="clipPath90">
      <path
         d="M 27.518125,25.3775 H 232.20143 V 129.65136 H 27.518125 Z"
         transform="matrix(1.3333333,0,0,-1.3333333,0,222.61101)"
         id="path90" />
    </clipPath>
    <clipPath
       clipPathUnits="userSpaceOnUse"
       id="clipPath91">
      <path
         d="M -6.9,-6.9 H 6.9 V 6.9 H -6.9 Z"
         id="path91" />
    </clipPath>
    <clipPath
       clipPathUnits="userSpaceOnUse"
       id="clipPath93">
      <path
         d="M 27.518125,25.3775 H 232.20143 V 129.65136 H 27.518125 Z"
         transform="matrix(1.3333333,0,0,-1.3333333,0,222.61101)"
         id="path93" />
    </clipPath>
    <clipPath
       clipPathUnits="userSpaceOnUse"
       id="clipPath94">
      <path
         d="M -6.9,-6.9 H 6.9 V 6.9 H -6.9 Z"
         transform="translate(-3.3587001e-6)"
         id="path94" />
    </clipPath>
    <clipPath
       clipPathUnits="userSpaceOnUse"
       id="clipPath96">
      <path
         d="M 27.518125,25.3775 H 232.20143 V 129.65136 H 27.518125 Z"
         transform="matrix(1.3333333,0,0,-1.3333333,0,222.61101)"
         id="path96" />
    </clipPath>
    <clipPath
       clipPathUnits="userSpaceOnUse"
       id="clipPath98">
      <path
         d="M 27.518125,25.3775 H 232.20143 V 129.65136 H 27.518125 Z"
         id="path98" />
    </clipPath>
    <clipPath
       clipPathUnits="userSpaceOnUse"
       id="clipPath99">
      <path
         d="M -6.9,-6.9 H 6.9 V 6.9 H -6.9 Z"
         id="path99" />
    </clipPath>
    <clipPath
       clipPathUnits="userSpaceOnUse"
       id="clipPath101">
      <path
         d="M 27.518125,25.3775 H 232.20143 V 129.65136 H 27.518125 Z"
         transform="matrix(1.3333333,0,0,-1.3333333,0,222.61101)"
         id="path101" />
    </clipPath>
    <clipPath
       clipPathUnits="userSpaceOnUse"
       id="clipPath102">
      <path
         d="M -6.9,-6.9 H 6.9 V 6.9 H -6.9 Z"
         id="path102" />
    </clipPath>
    <clipPath
       clipPathUnits="userSpaceOnUse"
       id="clipPath104">
      <path
         d="M 27.518125,25.3775 H 232.20143 V 129.65136 H 27.518125 Z"
         transform="matrix(1.3333333,0,0,-1.3333333,0,222.61101)"
         id="path104" />
    </clipPath>
    <clipPath
       clipPathUnits="userSpaceOnUse"
       id="clipPath105">
      <path
         d="M -6.9,-6.9 H 6.9 V 6.9 H -6.9 Z"
         transform="translate(-2.7122e-6)"
         id="path105" />
    </clipPath>
    <clipPath
       clipPathUnits="userSpaceOnUse"
       id="clipPath107">
      <path
         d="M 27.518125,25.3775 H 232.20143 V 129.65136 H 27.518125 Z"
         transform="matrix(1.3333333,0,0,-1.3333333,0,222.61101)"
         id="path107" />
    </clipPath>
    <clipPath
       clipPathUnits="userSpaceOnUse"
       id="clipPath108">
      <path
         d="M -6.9,-6.9 H 6.9 V 6.9 H -6.9 Z"
         transform="translate(2.0723001e-6)"
         id="path108" />
    </clipPath>
    <clipPath
       clipPathUnits="userSpaceOnUse"
       id="clipPath110">
      <path
         d="M 27.518125,25.3775 H 232.20143 V 129.65136 H 27.518125 Z"
         transform="matrix(1.3333333,0,0,-1.3333333,0,222.61101)"
         id="path110" />
    </clipPath>
    <clipPath
       clipPathUnits="userSpaceOnUse"
       id="clipPath111">
      <path
         d="M -6.9,-6.9 H 6.9 V 6.9 H -6.9 Z"
         id="path111" />
    </clipPath>
    <clipPath
       clipPathUnits="userSpaceOnUse"
       id="clipPath113">
      <path
         d="M 27.518125,25.3775 H 232.20143 V 129.65136 H 27.518125 Z"
         transform="matrix(1.3333333,0,0,-1.3333333,0,222.61101)"
         id="path113" />
    </clipPath>
    <clipPath
       clipPathUnits="userSpaceOnUse"
       id="clipPath114">
      <path
         d="M -6.9,-6.9 H 6.9 V 6.9 H -6.9 Z"
         transform="translate(-3.3587001e-6)"
         id="path114" />
    </clipPath>
    <clipPath
       clipPathUnits="userSpaceOnUse"
       id="clipPath116">
      <path
         d="M 27.518125,25.3775 H 232.20143 V 129.65136 H 27.518125 Z"
         transform="matrix(1.3333333,0,0,-1.3333333,0,222.61101)"
         id="path116" />
    </clipPath>
    <clipPath
       clipPathUnits="userSpaceOnUse"
       id="clipPath118">
      <path
         d="M 27.518125,25.3775 H 232.20143 V 129.65136 H 27.518125 Z"
         id="path118" />
    </clipPath>
  </defs>
  <sodipodi:namedview
     id="namedview1"
     pagecolor="#ffffff"
     bordercolor="#000000"
     borderopacity="0.25"
     inkscape:showpageshadow="2"
     inkscape:pageopacity="0.0"
     inkscape:pagecheckerboard="0"
     inkscape:deskcolor="#d1d1d1">
    <inkscape:page
       x="0"
       y="0"
       inkscape:label="1"
       id="page1"
       width="330.18094"
       height="222.61101"
       margin="0"
       bleed="0" />
  </sodipodi:namedview>
  <g
     id="g1"
     inkscape:groupmode="layer"
     inkscape:label="1">
    <path
       id="path1"
       d="m 37.406652,158.08538 h 8 8"
       style="fill:none;stroke:#452a3d;stroke-width:1.6;stroke-linecap:square;stroke-linejoin:round;stroke-miterlimit:10;stroke-dasharray:none;stroke-opacity:1"
       transform="matrix(1.3333333,0,0,-1.3333333,0,222.61101)" />
    <path
       id="path2"
       d="m 45.406652,156.18538 c 0.503886,0 0.987202,0.20019 1.343503,0.55649 0.356301,0.3563 0.556497,0.83962 0.556497,1.34351 0,0.50388 -0.200196,0.9872 -0.556497,1.3435 -0.356301,0.3563 -0.839617,0.5565 -1.343503,0.5565 -0.503886,0 -0.987202,-0.2002 -1.343503,-0.5565 -0.356301,-0.3563 -0.556497,-0.83962 -0.556497,-1.3435 0,-0.50389 0.200196,-0.98721 0.556497,-1.34351 0.356301,-0.3563 0.839617,-0.55649 1.343503,-0.55649 z"
       style="fill:#ffffff;fill-opacity:1;fill-rule:nonzero;stroke:#452a3d;stroke-width:1;stroke-linecap:butt;stroke-linejoin:round;stroke-miterlimit:10;stroke-dasharray:none;stroke-opacity:1"
       transform="matrix(1.3333333,0,0,-1.3333333,0,222.61101)" />
    <text
       id="text2"
       xml:space="preserve"
       transform="matrix(1.3333333,0,0,1.3333333,77.875536,16.497177)"><tspan
         id="tspan2"
         style="font-variant:normal;font-weight:normal;font-size:10px;font-family:'DejaVu Sans';writing-mode:lr-tb;fill:#000000;fill-opacity:1;fill-rule:nonzero;stroke:none"
         x="0"
         y="0">MRL</tspan></text>
    <path
       id="path3"
       d="m 87.562902,158.08538 h 8 7.999998"
       style="fill:none;stroke:#44757a;stroke-width:1.6;stroke-linecap:square;stroke-linejoin:round;stroke-miterlimit:10;stroke-dasharray:none;stroke-opacity:1"
       transform="matrix(1.3333333,0,0,-1.3333333,0,222.61101)" />
    <path
       id="path4"
       d="m 93.662902,156.18538 h 3.8 v 3.8 h -3.8 z"
       style="fill:#ffffff;fill-opacity:1;fill-rule:nonzero;stroke:#44757a;stroke-width:1;stroke-linecap:butt;stroke-linejoin:miter;stroke-miterlimit:10;stroke-dasharray:none;stroke-opacity:1"
       transform="matrix(1.3333333,0,0,-1.3333333,0,222.61101)" />
    <text
       id="text4"
       xml:space="preserve"
       transform="matrix(1.3333333,0,0,1.3333333,144.75054,16.497177)"><tspan
         id="tspan4"
         style="font-variant:normal;font-weight:normal;font-size:10px;font-family:'DejaVu Sans';writing-mode:lr-tb;fill:#000000;fill-opacity:1;fill-rule:nonzero;stroke:none"
         x="0"
         y="0">CSR</tspan></text>
    <path
       id="path5"
       d="m 136.84415,158.08538 h 8 8"
       style="fill:none;stroke:#d44c3c;stroke-width:1.6;stroke-linecap:butt;stroke-linejoin:round;stroke-miterlimit:10;stroke-dasharray:5.92, 2.56;stroke-dashoffset:0;stroke-opacity:1"
       transform="matrix(1.3333333,0,0,-1.3333333,0,222.61101)" />
    <path
       id="path6"
       d="m 144.84415,156.18538 1.9,3.8 h -3.8 z"
       style="fill:#ffffff;fill-opacity:1;fill-rule:nonzero;stroke:#d44c3c;stroke-width:1;stroke-linecap:butt;stroke-linejoin:miter;stroke-miterlimit:10;stroke-dasharray:none;stroke-opacity:1"
       transform="matrix(1.3333333,0,0,-1.3333333,0,222.61101)" />
    <text
       id="text6"
       xml:space="preserve"
       transform="matrix(1.3333333,0,0,1.3333333,210.45887,16.497177)"><tspan
         id="tspan6"
         style="font-variant:normal;font-weight:normal;font-size:10px;font-family:'DejaVu Sans';writing-mode:lr-tb;fill:#000000;fill-opacity:1;fill-rule:nonzero;stroke:none"
         x="0"
         y="0">CSRv2-linear</tspan></text>
    <path
       id="path7"
       d="m 17.52384,145.23884 h 8 8"
       style="fill:none;stroke:#d44c3c;stroke-width:1.6;stroke-linecap:square;stroke-linejoin:round;stroke-miterlimit:10;stroke-dasharray:none;stroke-opacity:1"
       transform="matrix(1.3333333,0,0,-1.3333333,0,222.61101)" />
    <path
       id="path8"
       d="m 24.890506,143.33884 h 1.266667 v 1.26666 h 1.266667 v 1.26667 h -1.266667 v 1.26667 h -1.266667 v -1.26667 H 23.62384 v -1.26667 h 1.266666 z"
       style="fill:#ffffff;fill-opacity:1;fill-rule:nonzero;stroke:#d44c3c;stroke-width:1;stroke-linecap:butt;stroke-linejoin:miter;stroke-miterlimit:10;stroke-dasharray:none;stroke-opacity:1"
       transform="matrix(1.3333333,0,0,-1.3333333,0,222.61101)" />
    <text
       id="text8"
       xml:space="preserve"
       transform="matrix(1.3333333,0,0,1.3333333,51.36512,33.625897)"><tspan
         id="tspan8"
         style="font-variant:normal;font-weight:normal;font-size:10px;font-family:'DejaVu Sans';writing-mode:lr-tb;fill:#000000;fill-opacity:1;fill-rule:nonzero;stroke:none"
         x="0"
         y="0">CSRv2</tspan></text>
    <path
       id="path9"
       d="m 79.08634,145.23884 h 8 8"
       style="fill:none;stroke:#808080;stroke-width:1.5;stroke-linecap:butt;stroke-linejoin:round;stroke-miterlimit:10;stroke-dasharray:9.6, 2.4, 1.5, 2.4;stroke-dashoffset:0;stroke-opacity:1"
       transform="matrix(1.3333333,0,0,-1.3333333,0,222.61101)" />
    <text
       id="text9"
       xml:space="preserve"
       transform="matrix(1.3333333,0,0,1.3333333,133.44845,33.625897)"><tspan
         id="tspan9"
         style="font-variant:normal;font-weight:normal;font-size:10px;font-family:'DejaVu Sans';writing-mode:lr-tb;fill:#000000;fill-opacity:1;fill-rule:nonzero;stroke:none"
         x="0"
         y="0">Backbone</tspan></text>
    <path
       id="path10"
       d="m 157.33634,145.23884 h 8 8"
       style="fill:none;stroke:#d44c3c;stroke-width:1.2;stroke-linecap:butt;stroke-linejoin:round;stroke-miterlimit:10;stroke-dasharray:1.2, 1.98;stroke-dashoffset:0;stroke-opacity:1"
       transform="matrix(1.3333333,0,0,-1.3333333,0,222.61101)" />
    <text
       id="text10"
       xml:space="preserve"
       transform="matrix(1.3333333,0,0,1.3333333,237.78179,33.625897)"><tspan
         id="tspan10"
         style="font-variant:normal;font-weight:normal;font-size:10px;font-family:'DejaVu Sans';writing-mode:lr-tb;fill:#000000;fill-opacity:1;fill-rule:nonzero;stroke:none"
         x="0"
         y="0">CSRv2@K=2</tspan></text>
    <path
       id="path11"
       d="M 27.518125,122.81397 H 232.20143"
       style="fill:none;stroke:#808080;stroke-width:1.5;stroke-linecap:butt;stroke-linejoin:round;stroke-miterlimit:10;stroke-dasharray:9.6, 2.4, 1.5, 2.4;stroke-dashoffset:0;stroke-opacity:1"
       transform="matrix(1.3333333,0,0,-1.3333333,0,222.61101)"
       clip-path="url(#clipPath12)" />
    <path
       id="path13"
       d="m 39.193353,25.3775 v 3.5"
       style="fill:#000000;fill-opacity:1;fill-rule:nonzero;stroke:#000000;stroke-width:0.8;stroke-linecap:butt;stroke-linejoin:round;stroke-miterlimit:10;stroke-dasharray:none;stroke-opacity:1"
       transform="matrix(1.3333333,0,0,-1.3333333,0,222.61101)" />
    <path
       id="path14"
       d="m 39.193353,129.65136 v -3.5"
       style="fill:#000000;fill-opacity:1;fill-rule:nonzero;stroke:#000000;stroke-width:0.8;stroke-linecap:butt;stroke-linejoin:round;stroke-miterlimit:10;stroke-dasharray:none;stroke-opacity:1"
       transform="matrix(1.3333333,0,0,-1.3333333,0,222.61101)" />
    <text
       id="text14"
       xml:space="preserve"
       transform="matrix(1.3333333,0,0,1.3333333,49.289054,200.52435)"><tspan
         id="tspan14"
         style="font-variant:normal;font-weight:normal;font-size:7px;font-family:'DejaVu Sans';writing-mode:lr-tb;fill:#000000;fill-opacity:1;fill-rule:nonzero;stroke:none"
         x="0"
         y="0">2</tspan></text>
    <path
       id="path15"
       d="m 75.459923,25.3775 v 3.5"
       style="fill:#000000;fill-opacity:1;fill-rule:nonzero;stroke:#000000;stroke-width:0.8;stroke-linecap:butt;stroke-linejoin:round;stroke-miterlimit:10;stroke-dasharray:none;stroke-opacity:1"
       transform="matrix(1.3333333,0,0,-1.3333333,0,222.61101)" />
    <path
       id="path16"
       d="m 75.459923,129.65136 v -3.5"
       style="fill:#000000;fill-opacity:1;fill-rule:nonzero;stroke:#000000;stroke-width:0.8;stroke-linecap:butt;stroke-linejoin:round;stroke-miterlimit:10;stroke-dasharray:none;stroke-opacity:1"
       transform="matrix(1.3333333,0,0,-1.3333333,0,222.61101)" />
    <text
       id="text16"
       xml:space="preserve"
       transform="matrix(1.3333333,0,0,1.3333333,97.64448,200.52435)"><tspan
         id="tspan16"
         style="font-variant:normal;font-weight:normal;font-size:7px;font-family:'DejaVu Sans';writing-mode:lr-tb;fill:#000000;fill-opacity:1;fill-rule:nonzero;stroke:none"
         x="0"
         y="0">4</tspan></text>
    <path
       id="path17"
       d="m 111.72649,25.3775 v 3.5"
       style="fill:#000000;fill-opacity:1;fill-rule:nonzero;stroke:#000000;stroke-width:0.8;stroke-linecap:butt;stroke-linejoin:round;stroke-miterlimit:10;stroke-dasharray:none;stroke-opacity:1"
       transform="matrix(1.3333333,0,0,-1.3333333,0,222.61101)" />
    <path
       id="path18"
       d="m 111.72649,129.65136 v -3.5"
       style="fill:#000000;fill-opacity:1;fill-rule:nonzero;stroke:#000000;stroke-width:0.8;stroke-linecap:butt;stroke-linejoin:round;stroke-miterlimit:10;stroke-dasharray:none;stroke-opacity:1"
       transform="matrix(1.3333333,0,0,-1.3333333,0,222.61101)" />
    <text
       id="text18"
       xml:space="preserve"
       transform="matrix(1.3333333,0,0,1.3333333,145.99991,200.52435)"><tspan
         id="tspan18"
         style="font-variant:normal;font-weight:normal;font-size:7px;font-family:'DejaVu Sans';writing-mode:lr-tb;fill:#000000;fill-opacity:1;fill-rule:nonzero;stroke:none"
         x="0"
         y="0">8</tspan></text>
    <path
       id="path19"
       d="m 147.99306,25.3775 v 3.5"
       style="fill:#000000;fill-opacity:1;fill-rule:nonzero;stroke:#000000;stroke-width:0.8;stroke-linecap:butt;stroke-linejoin:round;stroke-miterlimit:10;stroke-dasharray:none;stroke-opacity:1"
       transform="matrix(1.3333333,0,0,-1.3333333,0,222.61101)" />
    <path
       id="path20"
       d="m 147.99306,129.65136 v -3.5"
       style="fill:#000000;fill-opacity:1;fill-rule:nonzero;stroke:#000000;stroke-width:0.8;stroke-linecap:butt;stroke-linejoin:round;stroke-miterlimit:10;stroke-dasharray:none;stroke-opacity:1"
       transform="matrix(1.3333333,0,0,-1.3333333,0,222.61101)" />
    <text
       id="text20"
       xml:space="preserve"
       transform="matrix(1.3333333,0,0,1.3333333,191.38658,200.52435)"><tspan
         id="tspan20"
         style="font-variant:normal;font-weight:normal;font-size:7px;font-family:'DejaVu Sans';writing-mode:lr-tb;fill:#000000;fill-opacity:1;fill-rule:nonzero;stroke:none"
         x="0"
         y="0">16</tspan></text>
    <path
       id="path21"
       d="m 184.25963,25.3775 v 3.5"
       style="fill:#000000;fill-opacity:1;fill-rule:nonzero;stroke:#000000;stroke-width:0.8;stroke-linecap:butt;stroke-linejoin:round;stroke-miterlimit:10;stroke-dasharray:none;stroke-opacity:1"
       transform="matrix(1.3333333,0,0,-1.3333333,0,222.61101)" />
    <path
       id="path22"
       d="m 184.25963,129.65136 v -3.5"
       style="fill:#000000;fill-opacity:1;fill-rule:nonzero;stroke:#000000;stroke-width:0.8;stroke-linecap:butt;stroke-linejoin:round;stroke-miterlimit:10;stroke-dasharray:none;stroke-opacity:1"
       transform="matrix(1.3333333,0,0,-1.3333333,0,222.61101)" />
    <text
       id="text22"
       xml:space="preserve"
       transform="matrix(1.3333333,0,0,1.3333333,239.74201,200.52435)"><tspan
         id="tspan22"
         style="font-variant:normal;font-weight:normal;font-size:7px;font-family:'DejaVu Sans';writing-mode:lr-tb;fill:#000000;fill-opacity:1;fill-rule:nonzero;stroke:none"
         x="0"
         y="0">32</tspan></text>
    <path
       id="path23"
       d="m 220.5262,25.3775 v 3.5"
       style="fill:#000000;fill-opacity:1;fill-rule:nonzero;stroke:#000000;stroke-width:0.8;stroke-linecap:butt;stroke-linejoin:round;stroke-miterlimit:10;stroke-dasharray:none;stroke-opacity:1"
       transform="matrix(1.3333333,0,0,-1.3333333,0,222.61101)" />
    <path
       id="path24"
       d="m 220.5262,129.65136 v -3.5"
       style="fill:#000000;fill-opacity:1;fill-rule:nonzero;stroke:#000000;stroke-width:0.8;stroke-linecap:butt;stroke-linejoin:round;stroke-miterlimit:10;stroke-dasharray:none;stroke-opacity:1"
       transform="matrix(1.3333333,0,0,-1.3333333,0,222.61101)" />
    <text
       id="text24"
       xml:space="preserve"
       transform="matrix(1.3333333,0,0,1.3333333,288.09744,200.52435)"><tspan
         id="tspan24"
         style="font-variant:normal;font-weight:normal;font-size:7px;font-family:'DejaVu Sans';writing-mode:lr-tb;fill:#000000;fill-opacity:1;fill-rule:nonzero;stroke:none"
         x="0"
         y="0">64</tspan></text>
    <text
       id="text25"
       xml:space="preserve"
       transform="matrix(1.3333333,0,0,1.3333333,136.86512,217.92018)"><tspan
         id="tspan25"
         style="font-variant:normal;font-weight:normal;font-size:10px;font-family:'DejaVu Sans';writing-mode:lr-tb;fill:#000000;fill-opacity:1;fill-rule:nonzero;stroke:none"
         x="0"
         dx="0 -0.171875"
         y="0">Active Dim</tspan></text>
    <path
       id="path25"
       d="M 27.518125,30.724877 H 232.20143"
       style="fill:none;stroke:#b0b0b0;stroke-width:0.5;stroke-linecap:butt;stroke-linejoin:round;stroke-miterlimit:10;stroke-dasharray:1.85, 0.8;stroke-dashoffset:0;stroke-opacity:0.5"
       transform="matrix(1.3333333,0,0,-1.3333333,0,222.61101)"
       clip-path="url(#clipPath26)" />
    <path
       id="path27"
       d="m 27.518125,30.724877 h 3.5"
       style="fill:#000000;fill-opacity:1;fill-rule:nonzero;stroke:#000000;stroke-width:0.8;stroke-linecap:butt;stroke-linejoin:round;stroke-miterlimit:10;stroke-dasharray:none;stroke-opacity:1"
       transform="matrix(1.3333333,0,0,-1.3333333,0,222.61101)" />
    <path
       id="path28"
       d="m 232.20143,30.724877 h -3.5"
       style="fill:#000000;fill-opacity:1;fill-rule:nonzero;stroke:#000000;stroke-width:0.8;stroke-linecap:butt;stroke-linejoin:round;stroke-miterlimit:10;stroke-dasharray:none;stroke-opacity:1"
       transform="matrix(1.3333333,0,0,-1.3333333,0,222.61101)" />
    <text
       id="text28"
       xml:space="preserve"
       transform="matrix(1.3333333,0,0,1.3333333,20.149167,185.18618)"><tspan
         id="tspan28"
         style="font-variant:normal;font-weight:normal;font-size:7px;font-family:'DejaVu Sans';writing-mode:lr-tb;fill:#000000;fill-opacity:1;fill-rule:nonzero;stroke:none"
         x="0"
         y="0">35</tspan></text>
    <path
       id="path29"
       d="M 27.518125,70.830208 H 232.20143"
       style="fill:none;stroke:#b0b0b0;stroke-width:0.5;stroke-linecap:butt;stroke-linejoin:round;stroke-miterlimit:10;stroke-dasharray:1.85, 0.8;stroke-dashoffset:0;stroke-opacity:0.5"
       transform="matrix(1.3333333,0,0,-1.3333333,0,222.61101)"
       clip-path="url(#clipPath30)" />
    <path
       id="path31"
       d="m 27.518125,70.830208 h 3.5"
       style="fill:#000000;fill-opacity:1;fill-rule:nonzero;stroke:#000000;stroke-width:0.8;stroke-linecap:butt;stroke-linejoin:round;stroke-miterlimit:10;stroke-dasharray:none;stroke-opacity:1"
       transform="matrix(1.3333333,0,0,-1.3333333,0,222.61101)" />
    <path
       id="path32"
       d="m 232.20143,70.830208 h -3.5"
       style="fill:#000000;fill-opacity:1;fill-rule:nonzero;stroke:#000000;stroke-width:0.8;stroke-linecap:butt;stroke-linejoin:round;stroke-miterlimit:10;stroke-dasharray:none;stroke-opacity:1"
       transform="matrix(1.3333333,0,0,-1.3333333,0,222.61101)" />
    <text
       id="text32"
       xml:space="preserve"
       transform="matrix(1.3333333,0,0,1.3333333,20.149167,131.7124)"><tspan
         id="tspan32"
         style="font-variant:normal;font-weight:normal;font-size:7px;font-family:'DejaVu Sans';writing-mode:lr-tb;fill:#000000;fill-opacity:1;fill-rule:nonzero;stroke:none"
         x="0"
         y="0">50</tspan></text>
    <path
       id="path33"
       d="M 27.518125,110.93554 H 232.20143"
       style="fill:none;stroke:#b0b0b0;stroke-width:0.5;stroke-linecap:butt;stroke-linejoin:round;stroke-miterlimit:10;stroke-dasharray:1.85, 0.8;stroke-dashoffset:0;stroke-opacity:0.5"
       transform="matrix(1.3333333,0,0,-1.3333333,0,222.61101)"
       clip-path="url(#clipPath34)" />
    <path
       id="path35"
       d="m 27.518125,110.93554 h 3.5"
       style="fill:#000000;fill-opacity:1;fill-rule:nonzero;stroke:#000000;stroke-width:0.8;stroke-linecap:butt;stroke-linejoin:round;stroke-miterlimit:10;stroke-dasharray:none;stroke-opacity:1"
       transform="matrix(1.3333333,0,0,-1.3333333,0,222.61101)" />
    <path
       id="path36"
       d="m 232.20143,110.93554 h -3.5"
       style="fill:#000000;fill-opacity:1;fill-rule:nonzero;stroke:#000000;stroke-width:0.8;stroke-linecap:butt;stroke-linejoin:round;stroke-miterlimit:10;stroke-dasharray:none;stroke-opacity:1"
       transform="matrix(1.3333333,0,0,-1.3333333,0,222.61101)" />
    <text
       id="text36"
       xml:space="preserve"
       transform="matrix(1.3333333,0,0,1.3333333,20.149167,78.238628)"><tspan
         id="tspan36"
         style="font-variant:normal;font-weight:normal;font-size:7px;font-family:'DejaVu Sans';writing-mode:lr-tb;fill:#000000;fill-opacity:1;fill-rule:nonzero;stroke:none"
         x="0"
         y="0">65</tspan></text>
    <text
       id="text37"
       xml:space="preserve"
       transform="matrix(0,-1.3333333,1.3333333,0,12.045,163.40427)"><tspan
         id="tspan37"
         style="font-variant:normal;font-weight:normal;font-size:10px;font-family:'DejaVu Sans';writing-mode:lr-tb;fill:#000000;fill-opacity:1;fill-rule:nonzero;stroke:none"
         x="0"
         dx="0 -0.171875"
         y="0">Accuracy (%)</tspan></text>
    <path
       id="path37"
       d="m 39.193353,27.537782 36.26657,18.768258 36.266567,16.73373 36.26657,12.745664 36.26657,12.080247 36.26657,13.644079"
       style="fill:none;stroke:#452a3d;stroke-width:1.6;stroke-linecap:square;stroke-linejoin:round;stroke-miterlimit:10;stroke-dasharray:none;stroke-opacity:1"
       transform="matrix(1.3333333,0,0,-1.3333333,0,222.61101)"
       clip-path="url(#clipPath38)" />
    <g
       id="g40"
       clip-path="url(#clipPath41)">
      <path
         d="m 0,-1.9 c 0.503886,0 0.987202,0.200196 1.343503,0.556497 C 1.699804,-0.987202 1.9,-0.503886 1.9,0 1.9,0.503886 1.699804,0.987202 1.343503,1.343503 0.987202,1.699804 0.503886,1.9 0,1.9 -0.503886,1.9 -0.987202,1.699804 -1.343503,1.343503 -1.699804,0.987202 -1.9,0.503886 -1.9,0 c 0,-0.503886 0.200196,-0.987202 0.556497,-1.343503 C -0.987202,-1.699804 -0.503886,-1.9 0,-1.9 Z"
         style="fill:#ffffff;fill-opacity:1;fill-rule:nonzero;stroke:#452a3d;stroke-width:1;stroke-linecap:butt;stroke-linejoin:round;stroke-miterlimit:10;stroke-dasharray:none;stroke-opacity:1"
         transform="matrix(1.3333333,0,0,-1.3333333,52.257804,185.89397)"
         clip-path="url(#clipPath39)"
         id="path40" />
    </g>
    <g
       id="g43"
       clip-path="url(#clipPath44)">
      <path
         d="m 0,-1.9 c 0.503886,0 0.987202,0.200196 1.343503,0.556497 C 1.699804,-0.987202 1.9,-0.503886 1.9,0 1.9,0.503886 1.699804,0.987202 1.343503,1.343503 0.987202,1.699804 0.503886,1.9 0,1.9 -0.503886,1.9 -0.987202,1.699804 -1.343503,1.343503 -1.699804,0.987202 -1.9,0.503886 -1.9,0 c 0,-0.503886 0.200196,-0.987202 0.556497,-1.343503 C -0.987202,-1.699804 -0.503886,-1.9 0,-1.9 Z"
         style="fill:#ffffff;fill-opacity:1;fill-rule:nonzero;stroke:#452a3d;stroke-width:1;stroke-linecap:butt;stroke-linejoin:round;stroke-miterlimit:10;stroke-dasharray:none;stroke-opacity:1"
         transform="matrix(1.3333333,0,0,-1.3333333,100.61323,160.86963)"
         clip-path="url(#clipPath42)"
         id="path43" />
    </g>
    <g
       id="g46"
       clip-path="url(#clipPath47)">
      <path
         d="m 0,-1.9 c 0.503886,0 0.987202,0.200196 1.343503,0.556497 C 1.699804,-0.987202 1.9,-0.503886 1.9,0 1.9,0.503886 1.699804,0.987202 1.343503,1.343503 0.987202,1.699804 0.503886,1.9 0,1.9 -0.503886,1.9 -0.987202,1.699804 -1.343503,1.343503 -1.699804,0.987202 -1.9,0.503886 -1.9,0 c 0,-0.503886 0.200196,-0.987202 0.556497,-1.343503 C -0.987202,-1.699804 -0.503886,-1.9 0,-1.9 Z"
         style="fill:#ffffff;fill-opacity:1;fill-rule:nonzero;stroke:#452a3d;stroke-width:1;stroke-linecap:butt;stroke-linejoin:round;stroke-miterlimit:10;stroke-dasharray:none;stroke-opacity:1"
         transform="matrix(1.3333333,0,0,-1.3333333,148.96866,138.55799)"
         clip-path="url(#clipPath45)"
         id="path46" />
    </g>
    <g
       id="g49"
       clip-path="url(#clipPath50)">
      <path
         d="m 0,-1.9 c 0.503886,0 0.987202,0.200196 1.343503,0.556497 C 1.699804,-0.987202 1.9,-0.503886 1.9,0 1.9,0.503886 1.699804,0.987202 1.343503,1.343503 0.987202,1.699804 0.503886,1.9 0,1.9 -0.503886,1.9 -0.987202,1.699804 -1.343503,1.343503 -1.699804,0.987202 -1.9,0.503886 -1.9,0 c 0,-0.503886 0.200196,-0.987202 0.556497,-1.343503 C -0.987202,-1.699804 -0.503886,-1.9 0,-1.9 Z"
         style="fill:#ffffff;fill-opacity:1;fill-rule:nonzero;stroke:#452a3d;stroke-width:1;stroke-linecap:butt;stroke-linejoin:round;stroke-miterlimit:10;stroke-dasharray:none;stroke-opacity:1"
         transform="matrix(1.3333333,0,0,-1.3333333,197.32408,121.56377)"
         clip-path="url(#clipPath48)"
         id="path49" />
    </g>
    <g
       id="g52"
       clip-path="url(#clipPath53)">
      <path
         d="m 0,-1.9 c 0.503886,0 0.987202,0.200196 1.343503,0.556497 C 1.699804,-0.987202 1.9,-0.503886 1.9,0 1.9,0.503886 1.699804,0.987202 1.343503,1.343503 0.987202,1.699804 0.503886,1.9 0,1.9 -0.503886,1.9 -0.987202,1.699804 -1.343503,1.343503 -1.699804,0.987202 -1.9,0.503886 -1.9,0 c 0,-0.503886 0.200196,-0.987202 0.556497,-1.343503 C -0.987202,-1.699804 -0.503886,-1.9 0,-1.9 Z"
         style="fill:#ffffff;fill-opacity:1;fill-rule:nonzero;stroke:#452a3d;stroke-width:1;stroke-linecap:butt;stroke-linejoin:round;stroke-miterlimit:10;stroke-dasharray:none;stroke-opacity:1"
         transform="matrix(1.3333333,0,0,-1.3333333,245.67951,105.45677)"
         clip-path="url(#clipPath51)"
         id="path52" />
    </g>
    <g
       id="g55"
       clip-path="url(#clipPath56)">
      <path
         d="m 0,-1.9 c 0.503886,0 0.987202,0.200196 1.343503,0.556497 C 1.699804,-0.987202 1.9,-0.503886 1.9,0 1.9,0.503886 1.699804,0.987202 1.343503,1.343503 0.987202,1.699804 0.503886,1.9 0,1.9 -0.503886,1.9 -0.987202,1.699804 -1.343503,1.343503 -1.699804,0.987202 -1.9,0.503886 -1.9,0 c 0,-0.503886 0.200196,-0.987202 0.556497,-1.343503 C -0.987202,-1.699804 -0.503886,-1.9 0,-1.9 Z"
         style="fill:#ffffff;fill-opacity:1;fill-rule:nonzero;stroke:#452a3d;stroke-width:1;stroke-linecap:butt;stroke-linejoin:round;stroke-miterlimit:10;stroke-dasharray:none;stroke-opacity:1"
         transform="matrix(1.3333333,0,0,-1.3333333,294.03494,87.264664)"
         clip-path="url(#clipPath54)"
         id="path55" />
    </g>
    <path
       id="path57"
       d="m 39.193353,55.255215 36.26657,23.440105 36.266567,14.042422 36.26657,8.520218 36.26657,8.60408 36.26657,5.55528"
       style="fill:none;stroke:#44757a;stroke-width:1.6;stroke-linecap:square;stroke-linejoin:round;stroke-miterlimit:10;stroke-dasharray:none;stroke-opacity:1"
       transform="matrix(1.3333333,0,0,-1.3333333,0,222.61101)"
       clip-path="url(#clipPath58)" />
    <g
       id="g60"
       clip-path="url(#clipPath61)">
      <path
         d="M -1.9,-1.9 H 1.9 V 1.9 H -1.9 Z"
         style="fill:#ffffff;fill-opacity:1;fill-rule:nonzero;stroke:#44757a;stroke-width:1;stroke-linecap:butt;stroke-linejoin:miter;stroke-miterlimit:10;stroke-dasharray:none;stroke-opacity:1"
         transform="matrix(1.3333333,0,0,-1.3333333,52.257804,148.93739)"
         clip-path="url(#clipPath59)"
         id="path60" />
    </g>
    <g
       id="g63"
       clip-path="url(#clipPath64)">
      <path
         d="M -1.9,-1.9 H 1.9 V 1.9 H -1.9 Z"
         style="fill:#ffffff;fill-opacity:1;fill-rule:nonzero;stroke:#44757a;stroke-width:1;stroke-linecap:butt;stroke-linejoin:miter;stroke-miterlimit:10;stroke-dasharray:none;stroke-opacity:1"
         transform="matrix(1.3333333,0,0,-1.3333333,100.61323,117.68392)"
         clip-path="url(#clipPath62)"
         id="path63" />
    </g>
    <g
       id="g66"
       clip-path="url(#clipPath67)">
      <path
         d="M -1.9,-1.9 H 1.9 V 1.9 H -1.9 Z"
         style="fill:#ffffff;fill-opacity:1;fill-rule:nonzero;stroke:#44757a;stroke-width:1;stroke-linecap:butt;stroke-linejoin:miter;stroke-miterlimit:10;stroke-dasharray:none;stroke-opacity:1"
         transform="matrix(1.3333333,0,0,-1.3333333,148.96866,98.960691)"
         clip-path="url(#clipPath65)"
         id="path66" />
    </g>
    <g
       id="g69"
       clip-path="url(#clipPath70)">
      <path
         d="M -1.9,-1.9 H 1.9 V 1.9 H -1.9 Z"
         style="fill:#ffffff;fill-opacity:1;fill-rule:nonzero;stroke:#44757a;stroke-width:1;stroke-linecap:butt;stroke-linejoin:miter;stroke-miterlimit:10;stroke-dasharray:none;stroke-opacity:1"
         transform="matrix(1.3333333,0,0,-1.3333333,197.32408,87.600401)"
         clip-path="url(#clipPath68)"
         id="path69" />
    </g>
    <g
       id="g72"
       clip-path="url(#clipPath73)">
      <path
         d="M -1.9,-1.9 H 1.9 V 1.9 H -1.9 Z"
         style="fill:#ffffff;fill-opacity:1;fill-rule:nonzero;stroke:#44757a;stroke-width:1;stroke-linecap:butt;stroke-linejoin:miter;stroke-miterlimit:10;stroke-dasharray:none;stroke-opacity:1"
         transform="matrix(1.3333333,0,0,-1.3333333,245.67951,76.128294)"
         clip-path="url(#clipPath71)"
         id="path72" />
    </g>
    <g
       id="g75"
       clip-path="url(#clipPath76)">
      <path
         d="M -1.9,-1.9 H 1.9 V 1.9 H -1.9 Z"
         style="fill:#ffffff;fill-opacity:1;fill-rule:nonzero;stroke:#44757a;stroke-width:1;stroke-linecap:butt;stroke-linejoin:miter;stroke-miterlimit:10;stroke-dasharray:none;stroke-opacity:1"
         transform="matrix(1.3333333,0,0,-1.3333333,294.03494,68.721254)"
         clip-path="url(#clipPath74)"
         id="path75" />
    </g>
    <path
       id="path77"
       d="m 39.193353,79.529563 36.26657,14.344092 36.266567,7.773455 36.26657,5.8994 36.26657,5.60543 36.26657,4.67357"
       style="fill:none;stroke:#d44c3c;stroke-width:1.6;stroke-linecap:butt;stroke-linejoin:round;stroke-miterlimit:10;stroke-dasharray:5.92, 2.56;stroke-dashoffset:0;stroke-opacity:1"
       transform="matrix(1.3333333,0,0,-1.3333333,0,222.61101)"
       clip-path="url(#clipPath78)" />
    <g
       id="g80"
       clip-path="url(#clipPath81)">
      <path
         d="M 0,-1.9 1.9,1.9 H -1.9 Z"
         style="fill:#ffffff;fill-opacity:1;fill-rule:nonzero;stroke:#d44c3c;stroke-width:1;stroke-linecap:butt;stroke-linejoin:miter;stroke-miterlimit:10;stroke-dasharray:none;stroke-opacity:1"
         transform="matrix(1.3333333,0,0,-1.3333333,52.257804,116.5716)"
         clip-path="url(#clipPath79)"
         id="path80" />
    </g>
    <g
       id="g83"
       clip-path="url(#clipPath84)">
      <path
         d="M 0,-1.9 1.9,1.9 H -1.9 Z"
         style="fill:#ffffff;fill-opacity:1;fill-rule:nonzero;stroke:#d44c3c;stroke-width:1;stroke-linecap:butt;stroke-linejoin:miter;stroke-miterlimit:10;stroke-dasharray:none;stroke-opacity:1"
         transform="matrix(1.3333333,0,0,-1.3333333,100.61323,97.44614)"
         clip-path="url(#clipPath82)"
         id="path83" />
    </g>
    <g
       id="g86"
       clip-path="url(#clipPath87)">
      <path
         d="M 0,-1.9 1.9,1.9 H -1.9 Z"
         style="fill:#ffffff;fill-opacity:1;fill-rule:nonzero;stroke:#d44c3c;stroke-width:1;stroke-linecap:butt;stroke-linejoin:miter;stroke-miterlimit:10;stroke-dasharray:none;stroke-opacity:1"
         transform="matrix(1.3333333,0,0,-1.3333333,148.96866,87.08154)"
         clip-path="url(#clipPath85)"
         id="path86" />
    </g>
    <g
       id="g89"
       clip-path="url(#clipPath90)">
      <path
         d="M 0,-1.9 1.9,1.9 H -1.9 Z"
         style="fill:#ffffff;fill-opacity:1;fill-rule:nonzero;stroke:#d44c3c;stroke-width:1;stroke-linecap:butt;stroke-linejoin:miter;stroke-miterlimit:10;stroke-dasharray:none;stroke-opacity:1"
         transform="matrix(1.3333333,0,0,-1.3333333,197.32408,79.21567)"
         clip-path="url(#clipPath88)"
         id="path89" />
    </g>
    <g
       id="g92"
       clip-path="url(#clipPath93)">
      <path
         d="M 0,-1.9 1.9,1.9 H -1.9 Z"
         style="fill:#ffffff;fill-opacity:1;fill-rule:nonzero;stroke:#d44c3c;stroke-width:1;stroke-linecap:butt;stroke-linejoin:miter;stroke-miterlimit:10;stroke-dasharray:none;stroke-opacity:1"
         transform="matrix(1.3333333,0,0,-1.3333333,245.67951,71.741758)"
         clip-path="url(#clipPath91)"
         id="path92" />
    </g>
    <g
       id="g95"
       clip-path="url(#clipPath96)">
      <path
         d="M 0,-1.9 1.9,1.9 H -1.9 Z"
         style="fill:#ffffff;fill-opacity:1;fill-rule:nonzero;stroke:#d44c3c;stroke-width:1;stroke-linecap:butt;stroke-linejoin:miter;stroke-miterlimit:10;stroke-dasharray:none;stroke-opacity:1"
         transform="matrix(1.3333333,0,0,-1.3333333,294.03494,65.510332)"
         clip-path="url(#clipPath94)"
         id="path95" />
    </g>
    <path
       id="path97"
       d="m 39.193353,93.131746 36.26657,7.123994 36.266567,7.36139 36.26657,3.91832 36.26657,3.94802 36.26657,3.69475"
       style="fill:none;stroke:#d44c3c;stroke-width:1.6;stroke-linecap:square;stroke-linejoin:round;stroke-miterlimit:10;stroke-dasharray:none;stroke-opacity:1"
       transform="matrix(1.3333333,0,0,-1.3333333,0,222.61101)"
       clip-path="url(#clipPath98)" />
    <g
       id="g100"
       clip-path="url(#clipPath101)">
      <path
         d="m -0.633333,-1.9 h 1.266666 v 1.266667 H 1.9 V 0.633333 H 0.633333 V 1.9 H -0.633333 V 0.633333 H -1.9 v -1.266666 h 1.266667 z"
         style="fill:#ffffff;fill-opacity:1;fill-rule:nonzero;stroke:#d44c3c;stroke-width:1;stroke-linecap:butt;stroke-linejoin:miter;stroke-miterlimit:10;stroke-dasharray:none;stroke-opacity:1"
         transform="matrix(1.3333333,0,0,-1.3333333,52.257804,98.435353)"
         clip-path="url(#clipPath99)"
         id="path100" />
    </g>
    <g
       id="g103"
       clip-path="url(#clipPath104)">
      <path
         d="m -0.633333,-1.9 h 1.266666 v 1.266667 H 1.9 V 0.633333 H 0.633333 V 1.9 H -0.633333 V 0.633333 H -1.9 v -1.266666 h 1.266667 z"
         style="fill:#ffffff;fill-opacity:1;fill-rule:nonzero;stroke:#d44c3c;stroke-width:1;stroke-linecap:butt;stroke-linejoin:miter;stroke-miterlimit:10;stroke-dasharray:none;stroke-opacity:1"
         transform="matrix(1.3333333,0,0,-1.3333333,100.61323,88.936697)"
         clip-path="url(#clipPath102)"
         id="path103" />
    </g>
    <g
       id="g106"
       clip-path="url(#clipPath107)">
      <path
         d="m -0.633333,-1.9 h 1.266666 v 1.266667 H 1.9 V 0.633333 H 0.633333 V 1.9 H -0.633333 V 0.633333 H -1.9 v -1.266666 h 1.266667 z"
         style="fill:#ffffff;fill-opacity:1;fill-rule:nonzero;stroke:#d44c3c;stroke-width:1;stroke-linecap:butt;stroke-linejoin:miter;stroke-miterlimit:10;stroke-dasharray:none;stroke-opacity:1"
         transform="matrix(1.3333333,0,0,-1.3333333,148.96866,79.121512)"
         clip-path="url(#clipPath105)"
         id="path106" />
    </g>
    <g
       id="g109"
       clip-path="url(#clipPath110)">
      <path
         d="m -0.633333,-1.9 h 1.266666 v 1.266667 H 1.9 V 0.633333 H 0.633333 V 1.9 H -0.633333 V 0.633333 H -1.9 v -1.266666 h 1.266667 z"
         style="fill:#ffffff;fill-opacity:1;fill-rule:nonzero;stroke:#d44c3c;stroke-width:1;stroke-linecap:butt;stroke-linejoin:miter;stroke-miterlimit:10;stroke-dasharray:none;stroke-opacity:1"
         transform="matrix(1.3333333,0,0,-1.3333333,197.32408,73.897081)"
         clip-path="url(#clipPath108)"
         id="path109" />
    </g>
    <g
       id="g112"
       clip-path="url(#clipPath113)">
      <path
         d="m -0.633333,-1.9 h 1.266666 v 1.266667 H 1.9 V 0.633333 H 0.633333 V 1.9 H -0.633333 V 0.633333 H -1.9 v -1.266666 h 1.266667 z"
         style="fill:#ffffff;fill-opacity:1;fill-rule:nonzero;stroke:#d44c3c;stroke-width:1;stroke-linecap:butt;stroke-linejoin:miter;stroke-miterlimit:10;stroke-dasharray:none;stroke-opacity:1"
         transform="matrix(1.3333333,0,0,-1.3333333,245.67951,68.633053)"
         clip-path="url(#clipPath111)"
         id="path112" />
    </g>
    <g
       id="g115"
       clip-path="url(#clipPath116)">
      <path
         d="m -0.633333,-1.9 h 1.266666 v 1.266667 H 1.9 V 0.633333 H 0.633333 V 1.9 H -0.633333 V 0.633333 H -1.9 v -1.266666 h 1.266667 z"
         style="fill:#ffffff;fill-opacity:1;fill-rule:nonzero;stroke:#d44c3c;stroke-width:1;stroke-linecap:butt;stroke-linejoin:miter;stroke-miterlimit:10;stroke-dasharray:none;stroke-opacity:1"
         transform="matrix(1.3333333,0,0,-1.3333333,294.03494,63.706719)"
         clip-path="url(#clipPath114)"
         id="path115" />
    </g>
    <path
       id="path117"
       d="M 27.518125,93.131746 H 232.20143"
       style="fill:none;stroke:#d44c3c;stroke-width:1.2;stroke-linecap:butt;stroke-linejoin:round;stroke-miterlimit:10;stroke-dasharray:1.2, 1.98;stroke-dashoffset:0;stroke-opacity:1"
       transform="matrix(1.3333333,0,0,-1.3333333,0,222.61101)"
       clip-path="url(#clipPath118)" />
    <path
       id="path119"
       d="M 27.518125,25.3775 V 129.65136"
       style="fill:none;stroke:#000000;stroke-width:0.8;stroke-linecap:square;stroke-linejoin:miter;stroke-miterlimit:10;stroke-dasharray:none;stroke-opacity:1"
       transform="matrix(1.3333333,0,0,-1.3333333,0,222.61101)" />
    <path
       id="path120"
       d="M 232.20143,25.3775 V 129.65136"
       style="fill:none;stroke:#000000;stroke-width:0.8;stroke-linecap:square;stroke-linejoin:miter;stroke-miterlimit:10;stroke-dasharray:none;stroke-opacity:1"
       transform="matrix(1.3333333,0,0,-1.3333333,0,222.61101)" />
    <path
       id="path121"
       d="M 27.518125,25.3775 H 232.20143"
       style="fill:none;stroke:#000000;stroke-width:0.8;stroke-linecap:square;stroke-linejoin:miter;stroke-miterlimit:10;stroke-dasharray:none;stroke-opacity:1"
       transform="matrix(1.3333333,0,0,-1.3333333,0,222.61101)" />
    <path
       id="path122"
       d="M 27.518125,129.65136 H 232.20143"
       style="fill:none;stroke:#000000;stroke-width:0.8;stroke-linecap:square;stroke-linejoin:miter;stroke-miterlimit:10;stroke-dasharray:none;stroke-opacity:1"
       transform="matrix(1.3333333,0,0,-1.3333333,0,222.61101)" />
  </g>
</svg>
