<?xml version="1.0" encoding="UTF-8" standalone="no"?>
<!-- Created with Inkscape (http://www.inkscape.org/) -->

<svg
   version="1.1"
   id="svg1"
   width="332.21732"
   height="294.42203"
   viewBox="0 0 332.21732 294.42203"
   sodipodi:docname="upload_jf2kmajsmdfejiqwakemc672ip.pdf"
   xmlns:inkscape="http://www.inkscape.org/namespaces/inkscape"
   xmlns:sodipodi="http://sodipodi.sourceforge.net/DTD/sodipodi-0.dtd"
   xmlns="http://www.w3.org/2000/svg"
   xmlns:svg="http://www.w3.org/2000/svg">
  <defs
     id="defs1">
    <clipPath
       clipPathUnits="userSpaceOnUse"
       id="clipPath22">
      <path
         d="M 34.518125,28.28375 H 247.72298 V 172.88711 H 34.518125 Z"
         id="path22" />
    </clipPath>
    <clipPath
       clipPathUnits="userSpaceOnUse"
       id="clipPath26">
      <path
         d="M 34.518125,28.28375 H 247.72298 V 172.88711 H 34.518125 Z"
         id="path26" />
    </clipPath>
    <clipPath
       clipPathUnits="userSpaceOnUse"
       id="clipPath30">
      <path
         d="M 34.518125,28.28375 H 247.72298 V 172.88711 H 34.518125 Z"
         id="path30" />
    </clipPath>
    <clipPath
       clipPathUnits="userSpaceOnUse"
       id="clipPath34">
      <path
         d="M 34.518125,28.28375 H 247.72298 V 172.88711 H 34.518125 Z"
         id="path34" />
    </clipPath>
    <clipPath
       clipPathUnits="userSpaceOnUse"
       id="clipPath38">
      <path
         d="M 34.518125,28.28375 H 247.72298 V 172.88711 H 34.518125 Z"
         id="path38" />
    </clipPath>
    <clipPath
       clipPathUnits="userSpaceOnUse"
       id="clipPath39">
      <path
         d="M -6.9,-6.9 H 6.9 V 6.9 H -6.9 Z"
         id="path39" />
    </clipPath>
    <clipPath
       clipPathUnits="userSpaceOnUse"
       id="clipPath41">
      <path
         d="M 34.518125,28.28375 H 247.72298 V 172.88711 H 34.518125 Z"
         transform="matrix(1.3333333,0,0,-1.3333333,0,294.42204)"
         id="path41" />
    </clipPath>
    <clipPath
       clipPathUnits="userSpaceOnUse"
       id="clipPath42">
      <path
         d="M -6.9,-6.9 H 6.9 V 6.9 H -6.9 Z"
         transform="translate(-2.4509001e-6)"
         id="path42" />
    </clipPath>
    <clipPath
       clipPathUnits="userSpaceOnUse"
       id="clipPath44">
      <path
         d="M 34.518125,28.28375 H 247.72298 V 172.88711 H 34.518125 Z"
         transform="matrix(1.3333333,0,0,-1.3333333,0,294.42204)"
         id="path44" />
    </clipPath>
    <clipPath
       clipPathUnits="userSpaceOnUse"
       id="clipPath45">
      <path
         d="M -6.9,-6.9 H 6.9 V 6.9 H -6.9 Z"
         id="path45" />
    </clipPath>
    <clipPath
       clipPathUnits="userSpaceOnUse"
       id="clipPath47">
      <path
         d="M 34.518125,28.28375 H 247.72298 V 172.88711 H 34.518125 Z"
         transform="matrix(1.3333333,0,0,-1.3333333,0,294.42204)"
         id="path47" />
    </clipPath>
    <clipPath
       clipPathUnits="userSpaceOnUse"
       id="clipPath48">
      <path
         d="M -6.9,-6.9 H 6.9 V 6.9 H -6.9 Z"
         id="path48" />
    </clipPath>
    <clipPath
       clipPathUnits="userSpaceOnUse"
       id="clipPath50">
      <path
         d="M 34.518125,28.28375 H 247.72298 V 172.88711 H 34.518125 Z"
         transform="matrix(1.3333333,0,0,-1.3333333,0,294.42204)"
         id="path50" />
    </clipPath>
    <clipPath
       clipPathUnits="userSpaceOnUse"
       id="clipPath51">
      <path
         d="M -6.9,-6.9 H 6.9 V 6.9 H -6.9 Z"
         transform="translate(2.0176e-6)"
         id="path51" />
    </clipPath>
    <clipPath
       clipPathUnits="userSpaceOnUse"
       id="clipPath53">
      <path
         d="M 34.518125,28.28375 H 247.72298 V 172.88711 H 34.518125 Z"
         transform="matrix(1.3333333,0,0,-1.3333333,0,294.42204)"
         id="path53" />
    </clipPath>
    <clipPath
       clipPathUnits="userSpaceOnUse"
       id="clipPath54">
      <path
         d="M -6.9,-6.9 H 6.9 V 6.9 H -6.9 Z"
         transform="translate(3.5071e-6)"
         id="path54" />
    </clipPath>
    <clipPath
       clipPathUnits="userSpaceOnUse"
       id="clipPath56">
      <path
         d="M 34.518125,28.28375 H 247.72298 V 172.88711 H 34.518125 Z"
         transform="matrix(1.3333333,0,0,-1.3333333,0,294.42204)"
         id="path56" />
    </clipPath>
    <clipPath
       clipPathUnits="userSpaceOnUse"
       id="clipPath58">
      <path
         d="M 34.518125,28.28375 H 247.72298 V 172.88711 H 34.518125 Z"
         id="path58" />
    </clipPath>
    <clipPath
       clipPathUnits="userSpaceOnUse"
       id="clipPath59">
      <path
         d="M -6.9,-6.9 H 6.9 V 6.9 H -6.9 Z"
         id="path59" />
    </clipPath>
    <clipPath
       clipPathUnits="userSpaceOnUse"
       id="clipPath61">
      <path
         d="M 34.518125,28.28375 H 247.72298 V 172.88711 H 34.518125 Z"
         transform="matrix(1.3333333,0,0,-1.3333333,0,294.42204)"
         id="path61" />
    </clipPath>
    <clipPath
       clipPathUnits="userSpaceOnUse"
       id="clipPath62">
      <path
         d="M -6.9,-6.9 H 6.9 V 6.9 H -6.9 Z"
         transform="translate(-2.4509001e-6)"
         id="path62" />
    </clipPath>
    <clipPath
       clipPathUnits="userSpaceOnUse"
       id="clipPath64">
      <path
         d="M 34.518125,28.28375 H 247.72298 V 172.88711 H 34.518125 Z"
         transform="matrix(1.3333333,0,0,-1.3333333,0,294.42204)"
         id="path64" />
    </clipPath>
    <clipPath
       clipPathUnits="userSpaceOnUse"
       id="clipPath65">
      <path
         d="M -6.9,-6.9 H 6.9 V 6.9 H -6.9 Z"
         id="path65" />
    </clipPath>
    <clipPath
       clipPathUnits="userSpaceOnUse"
       id="clipPath67">
      <path
         d="M 34.518125,28.28375 H 247.72298 V 172.88711 H 34.518125 Z"
         transform="matrix(1.3333333,0,0,-1.3333333,0,294.42204)"
         id="path67" />
    </clipPath>
    <clipPath
       clipPathUnits="userSpaceOnUse"
       id="clipPath68">
      <path
         d="M -6.9,-6.9 H 6.9 V 6.9 H -6.9 Z"
         id="path68" />
    </clipPath>
    <clipPath
       clipPathUnits="userSpaceOnUse"
       id="clipPath70">
      <path
         d="M 34.518125,28.28375 H 247.72298 V 172.88711 H 34.518125 Z"
         transform="matrix(1.3333333,0,0,-1.3333333,0,294.42204)"
         id="path70" />
    </clipPath>
    <clipPath
       clipPathUnits="userSpaceOnUse"
       id="clipPath71">
      <path
         d="M -6.9,-6.9 H 6.9 V 6.9 H -6.9 Z"
         transform="translate(2.0176e-6)"
         id="path71" />
    </clipPath>
    <clipPath
       clipPathUnits="userSpaceOnUse"
       id="clipPath73">
      <path
         d="M 34.518125,28.28375 H 247.72298 V 172.88711 H 34.518125 Z"
         transform="matrix(1.3333333,0,0,-1.3333333,0,294.42204)"
         id="path73" />
    </clipPath>
    <clipPath
       clipPathUnits="userSpaceOnUse"
       id="clipPath74">
      <path
         d="M -6.9,-6.9 H 6.9 V 6.9 H -6.9 Z"
         transform="translate(3.5071e-6)"
         id="path74" />
    </clipPath>
    <clipPath
       clipPathUnits="userSpaceOnUse"
       id="clipPath76">
      <path
         d="M 34.518125,28.28375 H 247.72298 V 172.88711 H 34.518125 Z"
         transform="matrix(1.3333333,0,0,-1.3333333,0,294.42204)"
         id="path76" />
    </clipPath>
    <clipPath
       clipPathUnits="userSpaceOnUse"
       id="clipPath78">
      <path
         d="M 34.518125,28.28375 H 247.72298 V 172.88711 H 34.518125 Z"
         id="path78" />
    </clipPath>
    <clipPath
       clipPathUnits="userSpaceOnUse"
       id="clipPath79">
      <path
         d="M -6.9,-6.9 H 6.9 V 6.9 H -6.9 Z"
         id="path79" />
    </clipPath>
    <clipPath
       clipPathUnits="userSpaceOnUse"
       id="clipPath81">
      <path
         d="M 34.518125,28.28375 H 247.72298 V 172.88711 H 34.518125 Z"
         transform="matrix(1.3333333,0,0,-1.3333333,0,294.42204)"
         id="path81" />
    </clipPath>
    <clipPath
       clipPathUnits="userSpaceOnUse"
       id="clipPath82">
      <path
         d="M -6.9,-6.9 H 6.9 V 6.9 H -6.9 Z"
         transform="translate(-2.4509001e-6)"
         id="path82" />
    </clipPath>
    <clipPath
       clipPathUnits="userSpaceOnUse"
       id="clipPath84">
      <path
         d="M 34.518125,28.28375 H 247.72298 V 172.88711 H 34.518125 Z"
         transform="matrix(1.3333333,0,0,-1.3333333,0,294.42204)"
         id="path84" />
    </clipPath>
    <clipPath
       clipPathUnits="userSpaceOnUse"
       id="clipPath85">
      <path
         d="M -6.9,-6.9 H 6.9 V 6.9 H -6.9 Z"
         id="path85" />
    </clipPath>
    <clipPath
       clipPathUnits="userSpaceOnUse"
       id="clipPath87">
      <path
         d="M 34.518125,28.28375 H 247.72298 V 172.88711 H 34.518125 Z"
         transform="matrix(1.3333333,0,0,-1.3333333,0,294.42204)"
         id="path87" />
    </clipPath>
    <clipPath
       clipPathUnits="userSpaceOnUse"
       id="clipPath88">
      <path
         d="M -6.9,-6.9 H 6.9 V 6.9 H -6.9 Z"
         id="path88" />
    </clipPath>
    <clipPath
       clipPathUnits="userSpaceOnUse"
       id="clipPath90">
      <path
         d="M 34.518125,28.28375 H 247.72298 V 172.88711 H 34.518125 Z"
         transform="matrix(1.3333333,0,0,-1.3333333,0,294.42204)"
         id="path90" />
    </clipPath>
    <clipPath
       clipPathUnits="userSpaceOnUse"
       id="clipPath91">
      <path
         d="M -6.9,-6.9 H 6.9 V 6.9 H -6.9 Z"
         transform="translate(2.0176e-6)"
         id="path91" />
    </clipPath>
    <clipPath
       clipPathUnits="userSpaceOnUse"
       id="clipPath93">
      <path
         d="M 34.518125,28.28375 H 247.72298 V 172.88711 H 34.518125 Z"
         transform="matrix(1.3333333,0,0,-1.3333333,0,294.42204)"
         id="path93" />
    </clipPath>
    <clipPath
       clipPathUnits="userSpaceOnUse"
       id="clipPath94">
      <path
         d="M -6.9,-6.9 H 6.9 V 6.9 H -6.9 Z"
         transform="translate(3.5071e-6)"
         id="path94" />
    </clipPath>
    <clipPath
       clipPathUnits="userSpaceOnUse"
       id="clipPath96">
      <path
         d="M 34.518125,28.28375 H 247.72298 V 172.88711 H 34.518125 Z"
         transform="matrix(1.3333333,0,0,-1.3333333,0,294.42204)"
         id="path96" />
    </clipPath>
    <clipPath
       clipPathUnits="userSpaceOnUse"
       id="clipPath98">
      <path
         d="M 34.518125,28.28375 H 247.72298 V 172.88711 H 34.518125 Z"
         id="path98" />
    </clipPath>
    <clipPath
       clipPathUnits="userSpaceOnUse"
       id="clipPath99">
      <path
         d="M -7.6870058,-7.6870058 H 7.6870058 V 7.6870058 H -7.6870058 Z"
         id="path99" />
    </clipPath>
    <clipPath
       clipPathUnits="userSpaceOnUse"
       id="clipPath101">
      <path
         d="M 34.518125,28.28375 H 247.72298 V 172.88711 H 34.518125 Z"
         transform="matrix(1.3333333,0,0,-1.3333333,0,294.42204)"
         id="path101" />
    </clipPath>
    <clipPath
       clipPathUnits="userSpaceOnUse"
       id="clipPath102">
      <path
         d="M -7.6870058,-7.6870058 H 7.6870058 V 7.6870058 H -7.6870058 Z"
         transform="translate(-2.4509001e-6)"
         id="path102" />
    </clipPath>
    <clipPath
       clipPathUnits="userSpaceOnUse"
       id="clipPath104">
      <path
         d="M 34.518125,28.28375 H 247.72298 V 172.88711 H 34.518125 Z"
         transform="matrix(1.3333333,0,0,-1.3333333,0,294.42204)"
         id="path104" />
    </clipPath>
    <clipPath
       clipPathUnits="userSpaceOnUse"
       id="clipPath105">
      <path
         d="M -7.6870058,-7.6870058 H 7.6870058 V 7.6870058 H -7.6870058 Z"
         id="path105" />
    </clipPath>
    <clipPath
       clipPathUnits="userSpaceOnUse"
       id="clipPath107">
      <path
         d="M 34.518125,28.28375 H 247.72298 V 172.88711 H 34.518125 Z"
         transform="matrix(1.3333333,0,0,-1.3333333,0,294.42204)"
         id="path107" />
    </clipPath>
    <clipPath
       clipPathUnits="userSpaceOnUse"
       id="clipPath108">
      <path
         d="M -7.6870058,-7.6870058 H 7.6870058 V 7.6870058 H -7.6870058 Z"
         id="path108" />
    </clipPath>
    <clipPath
       clipPathUnits="userSpaceOnUse"
       id="clipPath110">
      <path
         d="M 34.518125,28.28375 H 247.72298 V 172.88711 H 34.518125 Z"
         transform="matrix(1.3333333,0,0,-1.3333333,0,294.42204)"
         id="path110" />
    </clipPath>
    <clipPath
       clipPathUnits="userSpaceOnUse"
       id="clipPath111">
      <path
         d="M -7.6870058,-7.6870058 H 7.6870058 V 7.6870058 H -7.6870058 Z"
         transform="translate(2.0176e-6)"
         id="path111" />
    </clipPath>
    <clipPath
       clipPathUnits="userSpaceOnUse"
       id="clipPath113">
      <path
         d="M 34.518125,28.28375 H 247.72298 V 172.88711 H 34.518125 Z"
         transform="matrix(1.3333333,0,0,-1.3333333,0,294.42204)"
         id="path113" />
    </clipPath>
    <clipPath
       clipPathUnits="userSpaceOnUse"
       id="clipPath114">
      <path
         d="M -7.6870058,-7.6870058 H 7.6870058 V 7.6870058 H -7.6870058 Z"
         transform="translate(3.5071e-6)"
         id="path114" />
    </clipPath>
    <clipPath
       clipPathUnits="userSpaceOnUse"
       id="clipPath116">
      <path
         d="M 34.518125,28.28375 H 247.72298 V 172.88711 H 34.518125 Z"
         transform="matrix(1.3333333,0,0,-1.3333333,0,294.42204)"
         id="path116" />
    </clipPath>
  </defs>
  <sodipodi:namedview
     id="namedview1"
     pagecolor="#ffffff"
     bordercolor="#000000"
     borderopacity="0.25"
     inkscape:showpageshadow="2"
     inkscape:pageopacity="0.0"
     inkscape:pagecheckerboard="0"
     inkscape:deskcolor="#d1d1d1">
    <inkscape:page
       x="0"
       y="0"
       inkscape:label="1"
       id="page1"
       width="332.21732"
       height="294.42203"
       margin="0"
       bleed="0" />
  </sodipodi:namedview>
  <g
     id="g1"
     inkscape:groupmode="layer"
     inkscape:label="1">
    <path
       id="path1"
       d="m 36.47993,208.78181 h 8 8"
       style="fill:none;stroke:#452a3d;stroke-width:1.6;stroke-linecap:square;stroke-linejoin:round;stroke-miterlimit:10;stroke-dasharray:none;stroke-opacity:1"
       transform="matrix(1.3333333,0,0,-1.3333333,0,294.42204)" />
    <path
       id="path2"
       d="m 44.47993,206.88181 c 0.503886,0 0.987202,0.2002 1.343503,0.5565 0.356301,0.3563 0.556497,0.83962 0.556497,1.3435 0,0.50389 -0.200196,0.9872 -0.556497,1.3435 -0.356301,0.35631 -0.839617,0.5565 -1.343503,0.5565 -0.503886,0 -0.987202,-0.20019 -1.343503,-0.5565 -0.356301,-0.3563 -0.556497,-0.83961 -0.556497,-1.3435 0,-0.50388 0.200196,-0.9872 0.556497,-1.3435 0.356301,-0.3563 0.839617,-0.5565 1.343503,-0.5565 z"
       style="fill:#ffffff;fill-opacity:1;fill-rule:nonzero;stroke:#452a3d;stroke-width:1;stroke-linecap:butt;stroke-linejoin:round;stroke-miterlimit:10;stroke-dasharray:none;stroke-opacity:1"
       transform="matrix(1.3333333,0,0,-1.3333333,0,294.42204)" />
    <text
       id="text2"
       xml:space="preserve"
       transform="matrix(1.3333333,0,0,1.3333333,76.639906,20.712954)"><tspan
         id="tspan2"
         style="font-variant:normal;font-weight:normal;font-size:10px;font-family:'DejaVu Sans';writing-mode:lr-tb;fill:#000000;fill-opacity:1;fill-rule:nonzero;stroke:none"
         x="0"
         dx="0 0 0 0 0 0 0 0 0 0 0 0 -0.4375"
         y="0">MRL (Dense Rep.)</tspan></text>
    <path
       id="path3"
       d="m 154.54243,208.78181 h 8 8"
       style="fill:none;stroke:#44757a;stroke-width:1.6;stroke-linecap:square;stroke-linejoin:round;stroke-miterlimit:10;stroke-dasharray:none;stroke-opacity:1"
       transform="matrix(1.3333333,0,0,-1.3333333,0,294.42204)" />
    <path
       id="path4"
       d="m 160.64243,206.88181 h 3.8 v 3.8 h -3.8 z"
       style="fill:#ffffff;fill-opacity:1;fill-rule:nonzero;stroke:#44757a;stroke-width:1;stroke-linecap:butt;stroke-linejoin:miter;stroke-miterlimit:10;stroke-dasharray:none;stroke-opacity:1"
       transform="matrix(1.3333333,0,0,-1.3333333,0,294.42204)" />
    <text
       id="text4"
       xml:space="preserve"
       transform="matrix(1.3333333,0,0,1.3333333,234.05657,20.712954)"><tspan
         id="tspan4"
         style="font-variant:normal;font-weight:normal;font-size:10px;font-family:'DejaVu Sans';writing-mode:lr-tb;fill:#000000;fill-opacity:1;fill-rule:nonzero;stroke:none"
         x="0"
         y="0">h=4d (16384)</tspan></text>
    <path
       id="path5"
       d="m 42.722117,190.96668 h 8 8"
       style="fill:none;stroke:#b7b5a0;stroke-width:1.6;stroke-linecap:square;stroke-linejoin:round;stroke-miterlimit:10;stroke-dasharray:none;stroke-opacity:1"
       transform="matrix(1.3333333,0,0,-1.3333333,0,294.42204)" />
    <path
       id="path6"
       d="m 50.722117,192.86668 -1.9,-3.8 h 3.8 z"
       style="fill:#ffffff;fill-opacity:1;fill-rule:nonzero;stroke:#b7b5a0;stroke-width:1;stroke-linecap:butt;stroke-linejoin:miter;stroke-miterlimit:10;stroke-dasharray:none;stroke-opacity:1"
       transform="matrix(1.3333333,0,0,-1.3333333,0,294.42204)" />
    <text
       id="text6"
       xml:space="preserve"
       transform="matrix(1.3333333,0,0,1.3333333,84.962823,44.466466)"><tspan
         id="tspan6"
         style="font-variant:normal;font-weight:normal;font-size:10px;font-family:'DejaVu Sans';writing-mode:lr-tb;fill:#000000;fill-opacity:1;fill-rule:nonzero;stroke:none"
         x="0"
         y="0">h=8d (32768)</tspan></text>
    <path
       id="path7"
       d="m 141.94087,190.96668 h 8 8"
       style="fill:none;stroke:#d44c3c;stroke-width:1.6;stroke-linecap:square;stroke-linejoin:round;stroke-miterlimit:10;stroke-dasharray:none;stroke-opacity:1"
       transform="matrix(1.3333333,0,0,-1.3333333,0,294.42204)" />
    <path
       id="path8"
       d="m 149.94087,188.27967 2.687,2.68701 -2.687,2.687 -2.68701,-2.687 z"
       style="fill:#ffffff;fill-opacity:1;fill-rule:nonzero;stroke:#d44c3c;stroke-width:1;stroke-linecap:butt;stroke-linejoin:miter;stroke-miterlimit:10;stroke-dasharray:none;stroke-opacity:1"
       transform="matrix(1.3333333,0,0,-1.3333333,0,294.42204)" />
    <text
       id="text8"
       xml:space="preserve"
       transform="matrix(1.3333333,0,0,1.3333333,217.25449,44.466466)"><tspan
         id="tspan8"
         style="font-variant:normal;font-weight:normal;font-size:10px;font-family:'DejaVu Sans';writing-mode:lr-tb;fill:#000000;fill-opacity:1;fill-rule:nonzero;stroke:none"
         x="0"
         y="0">h=16d (65536)</tspan></text>
    <path
       id="path9"
       d="m 46.679426,28.28375 v 3.5"
       style="fill:#000000;fill-opacity:1;fill-rule:nonzero;stroke:#000000;stroke-width:0.8;stroke-linecap:butt;stroke-linejoin:round;stroke-miterlimit:10;stroke-dasharray:none;stroke-opacity:1"
       transform="matrix(1.3333333,0,0,-1.3333333,0,294.42204)" />
    <path
       id="path10"
       d="m 46.679426,172.88711 v -3.5"
       style="fill:#000000;fill-opacity:1;fill-rule:nonzero;stroke:#000000;stroke-width:0.8;stroke-linecap:butt;stroke-linejoin:round;stroke-miterlimit:10;stroke-dasharray:none;stroke-opacity:1"
       transform="matrix(1.3333333,0,0,-1.3333333,0,294.42204)" />
    <text
       id="text10"
       xml:space="preserve"
       transform="matrix(1.3333333,0,0,1.3333333,57.999651,271.50204)"><tspan
         id="tspan10"
         style="font-variant:normal;font-weight:normal;font-size:10px;font-family:'DejaVu Sans';writing-mode:lr-tb;fill:#000000;fill-opacity:1;fill-rule:nonzero;stroke:none"
         x="0"
         y="0">2</tspan></text>
    <path
       id="path11"
       d="m 84.455878,28.28375 v 3.5"
       style="fill:#000000;fill-opacity:1;fill-rule:nonzero;stroke:#000000;stroke-width:0.8;stroke-linecap:butt;stroke-linejoin:round;stroke-miterlimit:10;stroke-dasharray:none;stroke-opacity:1"
       transform="matrix(1.3333333,0,0,-1.3333333,0,294.42204)" />
    <path
       id="path12"
       d="m 84.455878,172.88711 v -3.5"
       style="fill:#000000;fill-opacity:1;fill-rule:nonzero;stroke:#000000;stroke-width:0.8;stroke-linecap:butt;stroke-linejoin:round;stroke-miterlimit:10;stroke-dasharray:none;stroke-opacity:1"
       transform="matrix(1.3333333,0,0,-1.3333333,0,294.42204)" />
    <text
       id="text12"
       xml:space="preserve"
       transform="matrix(1.3333333,0,0,1.3333333,108.36825,271.50204)"><tspan
         id="tspan12"
         style="font-variant:normal;font-weight:normal;font-size:10px;font-family:'DejaVu Sans';writing-mode:lr-tb;fill:#000000;fill-opacity:1;fill-rule:nonzero;stroke:none"
         x="0"
         y="0">4</tspan></text>
    <path
       id="path13"
       d="m 122.23233,28.28375 v 3.5"
       style="fill:#000000;fill-opacity:1;fill-rule:nonzero;stroke:#000000;stroke-width:0.8;stroke-linecap:butt;stroke-linejoin:round;stroke-miterlimit:10;stroke-dasharray:none;stroke-opacity:1"
       transform="matrix(1.3333333,0,0,-1.3333333,0,294.42204)" />
    <path
       id="path14"
       d="m 122.23233,172.88711 v -3.5"
       style="fill:#000000;fill-opacity:1;fill-rule:nonzero;stroke:#000000;stroke-width:0.8;stroke-linecap:butt;stroke-linejoin:round;stroke-miterlimit:10;stroke-dasharray:none;stroke-opacity:1"
       transform="matrix(1.3333333,0,0,-1.3333333,0,294.42204)" />
    <text
       id="text14"
       xml:space="preserve"
       transform="matrix(1.3333333,0,0,1.3333333,158.73686,271.50204)"><tspan
         id="tspan14"
         style="font-variant:normal;font-weight:normal;font-size:10px;font-family:'DejaVu Sans';writing-mode:lr-tb;fill:#000000;fill-opacity:1;fill-rule:nonzero;stroke:none"
         x="0"
         y="0">8</tspan></text>
    <path
       id="path15"
       d="m 160.00878,28.28375 v 3.5"
       style="fill:#000000;fill-opacity:1;fill-rule:nonzero;stroke:#000000;stroke-width:0.8;stroke-linecap:butt;stroke-linejoin:round;stroke-miterlimit:10;stroke-dasharray:none;stroke-opacity:1"
       transform="matrix(1.3333333,0,0,-1.3333333,0,294.42204)" />
    <path
       id="path16"
       d="m 160.00878,172.88711 v -3.5"
       style="fill:#000000;fill-opacity:1;fill-rule:nonzero;stroke:#000000;stroke-width:0.8;stroke-linecap:butt;stroke-linejoin:round;stroke-miterlimit:10;stroke-dasharray:none;stroke-opacity:1"
       transform="matrix(1.3333333,0,0,-1.3333333,0,294.42204)" />
    <text
       id="text16"
       xml:space="preserve"
       transform="matrix(1.3333333,0,0,1.3333333,204.86587,271.50204)"><tspan
         id="tspan16"
         style="font-variant:normal;font-weight:normal;font-size:10px;font-family:'DejaVu Sans';writing-mode:lr-tb;fill:#000000;fill-opacity:1;fill-rule:nonzero;stroke:none"
         x="0"
         y="0">16</tspan></text>
    <path
       id="path17"
       d="m 197.78523,28.28375 v 3.5"
       style="fill:#000000;fill-opacity:1;fill-rule:nonzero;stroke:#000000;stroke-width:0.8;stroke-linecap:butt;stroke-linejoin:round;stroke-miterlimit:10;stroke-dasharray:none;stroke-opacity:1"
       transform="matrix(1.3333333,0,0,-1.3333333,0,294.42204)" />
    <path
       id="path18"
       d="m 197.78523,172.88711 v -3.5"
       style="fill:#000000;fill-opacity:1;fill-rule:nonzero;stroke:#000000;stroke-width:0.8;stroke-linecap:butt;stroke-linejoin:round;stroke-miterlimit:10;stroke-dasharray:none;stroke-opacity:1"
       transform="matrix(1.3333333,0,0,-1.3333333,0,294.42204)" />
    <text
       id="text18"
       xml:space="preserve"
       transform="matrix(1.3333333,0,0,1.3333333,255.23448,271.50204)"><tspan
         id="tspan18"
         style="font-variant:normal;font-weight:normal;font-size:10px;font-family:'DejaVu Sans';writing-mode:lr-tb;fill:#000000;fill-opacity:1;fill-rule:nonzero;stroke:none"
         x="0"
         y="0">32</tspan></text>
    <path
       id="path19"
       d="m 235.56168,28.28375 v 3.5"
       style="fill:#000000;fill-opacity:1;fill-rule:nonzero;stroke:#000000;stroke-width:0.8;stroke-linecap:butt;stroke-linejoin:round;stroke-miterlimit:10;stroke-dasharray:none;stroke-opacity:1"
       transform="matrix(1.3333333,0,0,-1.3333333,0,294.42204)" />
    <path
       id="path20"
       d="m 235.56168,172.88711 v -3.5"
       style="fill:#000000;fill-opacity:1;fill-rule:nonzero;stroke:#000000;stroke-width:0.8;stroke-linecap:butt;stroke-linejoin:round;stroke-miterlimit:10;stroke-dasharray:none;stroke-opacity:1"
       transform="matrix(1.3333333,0,0,-1.3333333,0,294.42204)" />
    <text
       id="text20"
       xml:space="preserve"
       transform="matrix(1.3333333,0,0,1.3333333,305.60308,271.50204)"><tspan
         id="tspan20"
         style="font-variant:normal;font-weight:normal;font-size:10px;font-family:'DejaVu Sans';writing-mode:lr-tb;fill:#000000;fill-opacity:1;fill-rule:nonzero;stroke:none"
         x="0"
         y="0">64</tspan></text>
    <text
       id="text21"
       xml:space="preserve"
       transform="matrix(1.3333333,0,0,1.3333333,151.87949,289.7312)"><tspan
         id="tspan21"
         style="font-variant:normal;font-weight:normal;font-size:10px;font-family:'DejaVu Sans';writing-mode:lr-tb;fill:#000000;fill-opacity:1;fill-rule:nonzero;stroke:none"
         x="0"
         dx="0 -0.171875"
         y="0">Active Dim</tspan></text>
    <path
       id="path21"
       d="M 34.518125,57.204422 H 247.72298"
       style="fill:none;stroke:#b0b0b0;stroke-width:0.5;stroke-linecap:butt;stroke-linejoin:round;stroke-miterlimit:10;stroke-dasharray:1.85, 0.8;stroke-dashoffset:0;stroke-opacity:0.5"
       transform="matrix(1.3333333,0,0,-1.3333333,0,294.42204)"
       clip-path="url(#clipPath22)" />
    <path
       id="path23"
       d="m 34.518125,57.204422 h 3.5"
       style="fill:#000000;fill-opacity:1;fill-rule:nonzero;stroke:#000000;stroke-width:0.8;stroke-linecap:butt;stroke-linejoin:round;stroke-miterlimit:10;stroke-dasharray:none;stroke-opacity:1"
       transform="matrix(1.3333333,0,0,-1.3333333,0,294.42204)" />
    <path
       id="path24"
       d="m 247.72298,57.204422 h -3.5"
       style="fill:#000000;fill-opacity:1;fill-rule:nonzero;stroke:#000000;stroke-width:0.8;stroke-linecap:butt;stroke-linejoin:round;stroke-miterlimit:10;stroke-dasharray:none;stroke-opacity:1"
       transform="matrix(1.3333333,0,0,-1.3333333,0,294.42204)" />
    <text
       id="text24"
       xml:space="preserve"
       transform="matrix(1.3333333,0,0,1.3333333,20.149167,223.21198)"><tspan
         id="tspan24"
         style="font-variant:normal;font-weight:normal;font-size:10px;font-family:'DejaVu Sans';writing-mode:lr-tb;fill:#000000;fill-opacity:1;fill-rule:nonzero;stroke:none"
         x="0"
         y="0">1.4</tspan></text>
    <path
       id="path25"
       d="M 34.518125,86.125093 H 247.72298"
       style="fill:none;stroke:#b0b0b0;stroke-width:0.5;stroke-linecap:butt;stroke-linejoin:round;stroke-miterlimit:10;stroke-dasharray:1.85, 0.8;stroke-dashoffset:0;stroke-opacity:0.5"
       transform="matrix(1.3333333,0,0,-1.3333333,0,294.42204)"
       clip-path="url(#clipPath26)" />
    <path
       id="path27"
       d="m 34.518125,86.125093 h 3.5"
       style="fill:#000000;fill-opacity:1;fill-rule:nonzero;stroke:#000000;stroke-width:0.8;stroke-linecap:butt;stroke-linejoin:round;stroke-miterlimit:10;stroke-dasharray:none;stroke-opacity:1"
       transform="matrix(1.3333333,0,0,-1.3333333,0,294.42204)" />
    <path
       id="path28"
       d="m 247.72298,86.125093 h -3.5"
       style="fill:#000000;fill-opacity:1;fill-rule:nonzero;stroke:#000000;stroke-width:0.8;stroke-linecap:butt;stroke-linejoin:round;stroke-miterlimit:10;stroke-dasharray:none;stroke-opacity:1"
       transform="matrix(1.3333333,0,0,-1.3333333,0,294.42204)" />
    <text
       id="text28"
       xml:space="preserve"
       transform="matrix(1.3333333,0,0,1.3333333,20.149167,184.65108)"><tspan
         id="tspan28"
         style="font-variant:normal;font-weight:normal;font-size:10px;font-family:'DejaVu Sans';writing-mode:lr-tb;fill:#000000;fill-opacity:1;fill-rule:nonzero;stroke:none"
         x="0"
         y="0">2.8</tspan></text>
    <path
       id="path29"
       d="M 34.518125,115.04577 H 247.72298"
       style="fill:none;stroke:#b0b0b0;stroke-width:0.5;stroke-linecap:butt;stroke-linejoin:round;stroke-miterlimit:10;stroke-dasharray:1.85, 0.8;stroke-dashoffset:0;stroke-opacity:0.5"
       transform="matrix(1.3333333,0,0,-1.3333333,0,294.42204)"
       clip-path="url(#clipPath30)" />
    <path
       id="path31"
       d="m 34.518125,115.04577 h 3.5"
       style="fill:#000000;fill-opacity:1;fill-rule:nonzero;stroke:#000000;stroke-width:0.8;stroke-linecap:butt;stroke-linejoin:round;stroke-miterlimit:10;stroke-dasharray:none;stroke-opacity:1"
       transform="matrix(1.3333333,0,0,-1.3333333,0,294.42204)" />
    <path
       id="path32"
       d="m 247.72298,115.04577 h -3.5"
       style="fill:#000000;fill-opacity:1;fill-rule:nonzero;stroke:#000000;stroke-width:0.8;stroke-linecap:butt;stroke-linejoin:round;stroke-miterlimit:10;stroke-dasharray:none;stroke-opacity:1"
       transform="matrix(1.3333333,0,0,-1.3333333,0,294.42204)" />
    <text
       id="text32"
       xml:space="preserve"
       transform="matrix(1.3333333,0,0,1.3333333,20.149167,146.09018)"><tspan
         id="tspan32"
         style="font-variant:normal;font-weight:normal;font-size:10px;font-family:'DejaVu Sans';writing-mode:lr-tb;fill:#000000;fill-opacity:1;fill-rule:nonzero;stroke:none"
         x="0"
         y="0">4.2</tspan></text>
    <path
       id="path33"
       d="M 34.518125,143.96644 H 247.72298"
       style="fill:none;stroke:#b0b0b0;stroke-width:0.5;stroke-linecap:butt;stroke-linejoin:round;stroke-miterlimit:10;stroke-dasharray:1.85, 0.8;stroke-dashoffset:0;stroke-opacity:0.5"
       transform="matrix(1.3333333,0,0,-1.3333333,0,294.42204)"
       clip-path="url(#clipPath34)" />
    <path
       id="path35"
       d="m 34.518125,143.96644 h 3.5"
       style="fill:#000000;fill-opacity:1;fill-rule:nonzero;stroke:#000000;stroke-width:0.8;stroke-linecap:butt;stroke-linejoin:round;stroke-miterlimit:10;stroke-dasharray:none;stroke-opacity:1"
       transform="matrix(1.3333333,0,0,-1.3333333,0,294.42204)" />
    <path
       id="path36"
       d="m 247.72298,143.96644 h -3.5"
       style="fill:#000000;fill-opacity:1;fill-rule:nonzero;stroke:#000000;stroke-width:0.8;stroke-linecap:butt;stroke-linejoin:round;stroke-miterlimit:10;stroke-dasharray:none;stroke-opacity:1"
       transform="matrix(1.3333333,0,0,-1.3333333,0,294.42204)" />
    <text
       id="text36"
       xml:space="preserve"
       transform="matrix(1.3333333,0,0,1.3333333,20.149167,107.52929)"><tspan
         id="tspan36"
         style="font-variant:normal;font-weight:normal;font-size:10px;font-family:'DejaVu Sans';writing-mode:lr-tb;fill:#000000;fill-opacity:1;fill-rule:nonzero;stroke:none"
         x="0"
         y="0">5.6</tspan></text>
    <text
       id="text37"
       xml:space="preserve"
       transform="matrix(0,-1.3333333,1.3333333,0,12.045,282.14147)"><tspan
         id="tspan37"
         style="font-variant:normal;font-weight:normal;font-size:10px;font-family:'DejaVu Sans';writing-mode:lr-tb;fill:#000000;fill-opacity:1;fill-rule:nonzero;stroke:none"
         x="0"
         dx="0 -0.4375 0 0 0 0 0 0 0 0 0 -0.296875 0 0 0 0 -0.34375"
         y="0">Retrieval Time Per Batch Query (ms)</tspan></text>
    <path
       id="path37"
       d="m 46.679426,75.42651 37.776452,0.733346 37.776452,2.233089 37.77645,8.953014 37.77645,16.978501 37.77645,55.51116"
       style="fill:none;stroke:#452a3d;stroke-width:1.6;stroke-linecap:square;stroke-linejoin:round;stroke-miterlimit:10;stroke-dasharray:none;stroke-opacity:1"
       transform="matrix(1.3333333,0,0,-1.3333333,0,294.42204)"
       clip-path="url(#clipPath38)" />
    <g
       id="g40"
       clip-path="url(#clipPath41)">
      <path
         d="m 0,-1.9 c 0.503886,0 0.987202,0.200196 1.343503,0.556497 C 1.699804,-0.987202 1.9,-0.503886 1.9,0 1.9,0.503886 1.699804,0.987202 1.343503,1.343503 0.987202,1.699804 0.503886,1.9 0,1.9 -0.503886,1.9 -0.987202,1.699804 -1.343503,1.343503 -1.699804,0.987202 -1.9,0.503886 -1.9,0 c 0,-0.503886 0.200196,-0.987202 0.556497,-1.343503 C -0.987202,-1.699804 -0.503886,-1.9 0,-1.9 Z"
         style="fill:#ffffff;fill-opacity:1;fill-rule:nonzero;stroke:#452a3d;stroke-width:1;stroke-linecap:butt;stroke-linejoin:round;stroke-miterlimit:10;stroke-dasharray:none;stroke-opacity:1"
         transform="matrix(1.3333333,0,0,-1.3333333,62.239235,193.85336)"
         clip-path="url(#clipPath39)"
         id="path40" />
    </g>
    <g
       id="g43"
       clip-path="url(#clipPath44)">
      <path
         d="m 0,-1.9 c 0.503886,0 0.987202,0.200196 1.343503,0.556497 C 1.699804,-0.987202 1.9,-0.503886 1.9,0 1.9,0.503886 1.699804,0.987202 1.343503,1.343503 0.987202,1.699804 0.503886,1.9 0,1.9 -0.503886,1.9 -0.987202,1.699804 -1.343503,1.343503 -1.699804,0.987202 -1.9,0.503886 -1.9,0 c 0,-0.503886 0.200196,-0.987202 0.556497,-1.343503 C -0.987202,-1.699804 -0.503886,-1.9 0,-1.9 Z"
         style="fill:#ffffff;fill-opacity:1;fill-rule:nonzero;stroke:#452a3d;stroke-width:1;stroke-linecap:butt;stroke-linejoin:round;stroke-miterlimit:10;stroke-dasharray:none;stroke-opacity:1"
         transform="matrix(1.3333333,0,0,-1.3333333,112.60784,192.87556)"
         clip-path="url(#clipPath42)"
         id="path43" />
    </g>
    <g
       id="g46"
       clip-path="url(#clipPath47)">
      <path
         d="m 0,-1.9 c 0.503886,0 0.987202,0.200196 1.343503,0.556497 C 1.699804,-0.987202 1.9,-0.503886 1.9,0 1.9,0.503886 1.699804,0.987202 1.343503,1.343503 0.987202,1.699804 0.503886,1.9 0,1.9 -0.503886,1.9 -0.987202,1.699804 -1.343503,1.343503 -1.699804,0.987202 -1.9,0.503886 -1.9,0 c 0,-0.503886 0.200196,-0.987202 0.556497,-1.343503 C -0.987202,-1.699804 -0.503886,-1.9 0,-1.9 Z"
         style="fill:#ffffff;fill-opacity:1;fill-rule:nonzero;stroke:#452a3d;stroke-width:1;stroke-linecap:butt;stroke-linejoin:round;stroke-miterlimit:10;stroke-dasharray:none;stroke-opacity:1"
         transform="matrix(1.3333333,0,0,-1.3333333,162.97644,189.89811)"
         clip-path="url(#clipPath45)"
         id="path46" />
    </g>
    <g
       id="g49"
       clip-path="url(#clipPath50)">
      <path
         d="m 0,-1.9 c 0.503886,0 0.987202,0.200196 1.343503,0.556497 C 1.699804,-0.987202 1.9,-0.503886 1.9,0 1.9,0.503886 1.699804,0.987202 1.343503,1.343503 0.987202,1.699804 0.503886,1.9 0,1.9 -0.503886,1.9 -0.987202,1.699804 -1.343503,1.343503 -1.699804,0.987202 -1.9,0.503886 -1.9,0 c 0,-0.503886 0.200196,-0.987202 0.556497,-1.343503 C -0.987202,-1.699804 -0.503886,-1.9 0,-1.9 Z"
         style="fill:#ffffff;fill-opacity:1;fill-rule:nonzero;stroke:#452a3d;stroke-width:1;stroke-linecap:butt;stroke-linejoin:round;stroke-miterlimit:10;stroke-dasharray:none;stroke-opacity:1"
         transform="matrix(1.3333333,0,0,-1.3333333,213.34504,177.96076)"
         clip-path="url(#clipPath48)"
         id="path49" />
    </g>
    <g
       id="g52"
       clip-path="url(#clipPath53)">
      <path
         d="m 0,-1.9 c 0.503886,0 0.987202,0.200196 1.343503,0.556497 C 1.699804,-0.987202 1.9,-0.503886 1.9,0 1.9,0.503886 1.699804,0.987202 1.343503,1.343503 0.987202,1.699804 0.503886,1.9 0,1.9 -0.503886,1.9 -0.987202,1.699804 -1.343503,1.343503 -1.699804,0.987202 -1.9,0.503886 -1.9,0 c 0,-0.503886 0.200196,-0.987202 0.556497,-1.343503 C -0.987202,-1.699804 -0.503886,-1.9 0,-1.9 Z"
         style="fill:#ffffff;fill-opacity:1;fill-rule:nonzero;stroke:#452a3d;stroke-width:1;stroke-linecap:butt;stroke-linejoin:round;stroke-miterlimit:10;stroke-dasharray:none;stroke-opacity:1"
         transform="matrix(1.3333333,0,0,-1.3333333,263.71364,155.32276)"
         clip-path="url(#clipPath51)"
         id="path52" />
    </g>
    <g
       id="g55"
       clip-path="url(#clipPath56)">
      <path
         d="m 0,-1.9 c 0.503886,0 0.987202,0.200196 1.343503,0.556497 C 1.699804,-0.987202 1.9,-0.503886 1.9,0 1.9,0.503886 1.699804,0.987202 1.343503,1.343503 0.987202,1.699804 0.503886,1.9 0,1.9 -0.503886,1.9 -0.987202,1.699804 -1.343503,1.343503 -1.699804,0.987202 -1.9,0.503886 -1.9,0 c 0,-0.503886 0.200196,-0.987202 0.556497,-1.343503 C -0.987202,-1.699804 -0.503886,-1.9 0,-1.9 Z"
         style="fill:#ffffff;fill-opacity:1;fill-rule:nonzero;stroke:#452a3d;stroke-width:1;stroke-linecap:butt;stroke-linejoin:round;stroke-miterlimit:10;stroke-dasharray:none;stroke-opacity:1"
         transform="matrix(1.3333333,0,0,-1.3333333,314.08224,81.307875)"
         clip-path="url(#clipPath54)"
         id="path55" />
    </g>
    <path
       id="path57"
       d="m 46.679426,35.889887 37.776452,4.769845 37.776452,5.635399 37.77645,8.705122 37.77645,18.083683 37.77645,34.673824"
       style="fill:none;stroke:#44757a;stroke-width:1.6;stroke-linecap:square;stroke-linejoin:round;stroke-miterlimit:10;stroke-dasharray:none;stroke-opacity:1"
       transform="matrix(1.3333333,0,0,-1.3333333,0,294.42204)"
       clip-path="url(#clipPath58)" />
    <g
       id="g60"
       clip-path="url(#clipPath61)">
      <path
         d="M -1.9,-1.9 H 1.9 V 1.9 H -1.9 Z"
         style="fill:#ffffff;fill-opacity:1;fill-rule:nonzero;stroke:#44757a;stroke-width:1;stroke-linecap:butt;stroke-linejoin:miter;stroke-miterlimit:10;stroke-dasharray:none;stroke-opacity:1"
         transform="matrix(1.3333333,0,0,-1.3333333,62.239235,246.56886)"
         clip-path="url(#clipPath59)"
         id="path60" />
    </g>
    <g
       id="g63"
       clip-path="url(#clipPath64)">
      <path
         d="M -1.9,-1.9 H 1.9 V 1.9 H -1.9 Z"
         style="fill:#ffffff;fill-opacity:1;fill-rule:nonzero;stroke:#44757a;stroke-width:1;stroke-linecap:butt;stroke-linejoin:miter;stroke-miterlimit:10;stroke-dasharray:none;stroke-opacity:1"
         transform="matrix(1.3333333,0,0,-1.3333333,112.60784,240.20906)"
         clip-path="url(#clipPath62)"
         id="path63" />
    </g>
    <g
       id="g66"
       clip-path="url(#clipPath67)">
      <path
         d="M -1.9,-1.9 H 1.9 V 1.9 H -1.9 Z"
         style="fill:#ffffff;fill-opacity:1;fill-rule:nonzero;stroke:#44757a;stroke-width:1;stroke-linecap:butt;stroke-linejoin:miter;stroke-miterlimit:10;stroke-dasharray:none;stroke-opacity:1"
         transform="matrix(1.3333333,0,0,-1.3333333,162.97644,232.6952)"
         clip-path="url(#clipPath65)"
         id="path66" />
    </g>
    <g
       id="g69"
       clip-path="url(#clipPath70)">
      <path
         d="M -1.9,-1.9 H 1.9 V 1.9 H -1.9 Z"
         style="fill:#ffffff;fill-opacity:1;fill-rule:nonzero;stroke:#44757a;stroke-width:1;stroke-linecap:butt;stroke-linejoin:miter;stroke-miterlimit:10;stroke-dasharray:none;stroke-opacity:1"
         transform="matrix(1.3333333,0,0,-1.3333333,213.34504,221.08837)"
         clip-path="url(#clipPath68)"
         id="path69" />
    </g>
    <g
       id="g72"
       clip-path="url(#clipPath73)">
      <path
         d="M -1.9,-1.9 H 1.9 V 1.9 H -1.9 Z"
         style="fill:#ffffff;fill-opacity:1;fill-rule:nonzero;stroke:#44757a;stroke-width:1;stroke-linecap:butt;stroke-linejoin:miter;stroke-miterlimit:10;stroke-dasharray:none;stroke-opacity:1"
         transform="matrix(1.3333333,0,0,-1.3333333,263.71364,196.97679)"
         clip-path="url(#clipPath71)"
         id="path72" />
    </g>
    <g
       id="g75"
       clip-path="url(#clipPath76)">
      <path
         d="M -1.9,-1.9 H 1.9 V 1.9 H -1.9 Z"
         style="fill:#ffffff;fill-opacity:1;fill-rule:nonzero;stroke:#44757a;stroke-width:1;stroke-linecap:butt;stroke-linejoin:miter;stroke-miterlimit:10;stroke-dasharray:none;stroke-opacity:1"
         transform="matrix(1.3333333,0,0,-1.3333333,314.08224,150.74503)"
         clip-path="url(#clipPath74)"
         id="path75" />
    </g>
    <path
       id="path77"
       d="m 46.679426,35.294947 37.776452,4.559137 37.776452,3.912554 37.77645,7.337588 37.77645,17.486677 37.77645,35.002277"
       style="fill:none;stroke:#b7b5a0;stroke-width:1.6;stroke-linecap:square;stroke-linejoin:round;stroke-miterlimit:10;stroke-dasharray:none;stroke-opacity:1"
       transform="matrix(1.3333333,0,0,-1.3333333,0,294.42204)"
       clip-path="url(#clipPath78)" />
    <g
       id="g80"
       clip-path="url(#clipPath81)">
      <path
         d="M 0,1.9 -1.9,-1.9 H 1.9 Z"
         style="fill:#ffffff;fill-opacity:1;fill-rule:nonzero;stroke:#b7b5a0;stroke-width:1;stroke-linecap:butt;stroke-linejoin:miter;stroke-miterlimit:10;stroke-dasharray:none;stroke-opacity:1"
         transform="matrix(1.3333333,0,0,-1.3333333,62.239235,247.36211)"
         clip-path="url(#clipPath79)"
         id="path80" />
    </g>
    <g
       id="g83"
       clip-path="url(#clipPath84)">
      <path
         d="M 0,1.9 -1.9,-1.9 H 1.9 Z"
         style="fill:#ffffff;fill-opacity:1;fill-rule:nonzero;stroke:#b7b5a0;stroke-width:1;stroke-linecap:butt;stroke-linejoin:miter;stroke-miterlimit:10;stroke-dasharray:none;stroke-opacity:1"
         transform="matrix(1.3333333,0,0,-1.3333333,112.60784,241.28326)"
         clip-path="url(#clipPath82)"
         id="path83" />
    </g>
    <g
       id="g86"
       clip-path="url(#clipPath87)">
      <path
         d="M 0,1.9 -1.9,-1.9 H 1.9 Z"
         style="fill:#ffffff;fill-opacity:1;fill-rule:nonzero;stroke:#b7b5a0;stroke-width:1;stroke-linecap:butt;stroke-linejoin:miter;stroke-miterlimit:10;stroke-dasharray:none;stroke-opacity:1"
         transform="matrix(1.3333333,0,0,-1.3333333,162.97644,236.06652)"
         clip-path="url(#clipPath85)"
         id="path86" />
    </g>
    <g
       id="g89"
       clip-path="url(#clipPath90)">
      <path
         d="M 0,1.9 -1.9,-1.9 H 1.9 Z"
         style="fill:#ffffff;fill-opacity:1;fill-rule:nonzero;stroke:#b7b5a0;stroke-width:1;stroke-linecap:butt;stroke-linejoin:miter;stroke-miterlimit:10;stroke-dasharray:none;stroke-opacity:1"
         transform="matrix(1.3333333,0,0,-1.3333333,213.34504,226.28307)"
         clip-path="url(#clipPath88)"
         id="path89" />
    </g>
    <g
       id="g92"
       clip-path="url(#clipPath93)">
      <path
         d="M 0,1.9 -1.9,-1.9 H 1.9 Z"
         style="fill:#ffffff;fill-opacity:1;fill-rule:nonzero;stroke:#b7b5a0;stroke-width:1;stroke-linecap:butt;stroke-linejoin:miter;stroke-miterlimit:10;stroke-dasharray:none;stroke-opacity:1"
         transform="matrix(1.3333333,0,0,-1.3333333,263.71364,202.9675)"
         clip-path="url(#clipPath91)"
         id="path92" />
    </g>
    <g
       id="g95"
       clip-path="url(#clipPath96)">
      <path
         d="M 0,1.9 -1.9,-1.9 H 1.9 Z"
         style="fill:#ffffff;fill-opacity:1;fill-rule:nonzero;stroke:#b7b5a0;stroke-width:1;stroke-linecap:butt;stroke-linejoin:miter;stroke-miterlimit:10;stroke-dasharray:none;stroke-opacity:1"
         transform="matrix(1.3333333,0,0,-1.3333333,314.08224,156.2978)"
         clip-path="url(#clipPath94)"
         id="path95" />
    </g>
    <path
       id="path97"
       d="m 46.679426,33.869571 37.776452,4.282325 37.776452,3.652268 37.77645,6.387337 37.77645,15.81341 37.77645,30.238628"
       style="fill:none;stroke:#d44c3c;stroke-width:1.6;stroke-linecap:square;stroke-linejoin:round;stroke-miterlimit:10;stroke-dasharray:none;stroke-opacity:1"
       transform="matrix(1.3333333,0,0,-1.3333333,0,294.42204)"
       clip-path="url(#clipPath98)" />
    <g
       id="g100"
       clip-path="url(#clipPath101)">
      <path
         d="M 0,-2.687006 2.687006,0 0,2.687006 -2.687006,0 Z"
         style="fill:#ffffff;fill-opacity:1;fill-rule:nonzero;stroke:#d44c3c;stroke-width:1;stroke-linecap:butt;stroke-linejoin:miter;stroke-miterlimit:10;stroke-dasharray:none;stroke-opacity:1"
         transform="matrix(1.3333333,0,0,-1.3333333,62.239235,249.26261)"
         clip-path="url(#clipPath99)"
         id="path100" />
    </g>
    <g
       id="g103"
       clip-path="url(#clipPath104)">
      <path
         d="M 0,-2.687006 2.687006,0 0,2.687006 -2.687006,0 Z"
         style="fill:#ffffff;fill-opacity:1;fill-rule:nonzero;stroke:#d44c3c;stroke-width:1;stroke-linecap:butt;stroke-linejoin:miter;stroke-miterlimit:10;stroke-dasharray:none;stroke-opacity:1"
         transform="matrix(1.3333333,0,0,-1.3333333,112.60784,243.55284)"
         clip-path="url(#clipPath102)"
         id="path103" />
    </g>
    <g
       id="g106"
       clip-path="url(#clipPath107)">
      <path
         d="M 0,-2.687006 2.687006,0 0,2.687006 -2.687006,0 Z"
         style="fill:#ffffff;fill-opacity:1;fill-rule:nonzero;stroke:#d44c3c;stroke-width:1;stroke-linecap:butt;stroke-linejoin:miter;stroke-miterlimit:10;stroke-dasharray:none;stroke-opacity:1"
         transform="matrix(1.3333333,0,0,-1.3333333,162.97644,238.68315)"
         clip-path="url(#clipPath105)"
         id="path106" />
    </g>
    <g
       id="g109"
       clip-path="url(#clipPath110)">
      <path
         d="M 0,-2.687006 2.687006,0 0,2.687006 -2.687006,0 Z"
         style="fill:#ffffff;fill-opacity:1;fill-rule:nonzero;stroke:#d44c3c;stroke-width:1;stroke-linecap:butt;stroke-linejoin:miter;stroke-miterlimit:10;stroke-dasharray:none;stroke-opacity:1"
         transform="matrix(1.3333333,0,0,-1.3333333,213.34504,230.1667)"
         clip-path="url(#clipPath108)"
         id="path109" />
    </g>
    <g
       id="g112"
       clip-path="url(#clipPath113)">
      <path
         d="M 0,-2.687006 2.687006,0 0,2.687006 -2.687006,0 Z"
         style="fill:#ffffff;fill-opacity:1;fill-rule:nonzero;stroke:#d44c3c;stroke-width:1;stroke-linecap:butt;stroke-linejoin:miter;stroke-miterlimit:10;stroke-dasharray:none;stroke-opacity:1"
         transform="matrix(1.3333333,0,0,-1.3333333,263.71364,209.08216)"
         clip-path="url(#clipPath111)"
         id="path112" />
    </g>
    <g
       id="g115"
       clip-path="url(#clipPath116)">
      <path
         d="M 0,-2.687006 2.687006,0 0,2.687006 -2.687006,0 Z"
         style="fill:#ffffff;fill-opacity:1;fill-rule:nonzero;stroke:#d44c3c;stroke-width:1;stroke-linecap:butt;stroke-linejoin:miter;stroke-miterlimit:10;stroke-dasharray:none;stroke-opacity:1"
         transform="matrix(1.3333333,0,0,-1.3333333,314.08224,168.76399)"
         clip-path="url(#clipPath114)"
         id="path115" />
    </g>
    <path
       id="path117"
       d="M 34.518125,28.28375 V 172.88711"
       style="fill:none;stroke:#000000;stroke-width:0.8;stroke-linecap:square;stroke-linejoin:miter;stroke-miterlimit:10;stroke-dasharray:none;stroke-opacity:1"
       transform="matrix(1.3333333,0,0,-1.3333333,0,294.42204)" />
    <path
       id="path118"
       d="M 247.72298,28.28375 V 172.88711"
       style="fill:none;stroke:#000000;stroke-width:0.8;stroke-linecap:square;stroke-linejoin:miter;stroke-miterlimit:10;stroke-dasharray:none;stroke-opacity:1"
       transform="matrix(1.3333333,0,0,-1.3333333,0,294.42204)" />
    <path
       id="path119"
       d="M 34.518125,28.28375 H 247.72298"
       style="fill:none;stroke:#000000;stroke-width:0.8;stroke-linecap:square;stroke-linejoin:miter;stroke-miterlimit:10;stroke-dasharray:none;stroke-opacity:1"
       transform="matrix(1.3333333,0,0,-1.3333333,0,294.42204)" />
    <path
       id="path120"
       d="M 34.518125,172.88711 H 247.72298"
       style="fill:none;stroke:#000000;stroke-width:0.8;stroke-linecap:square;stroke-linejoin:miter;stroke-miterlimit:10;stroke-dasharray:none;stroke-opacity:1"
       transform="matrix(1.3333333,0,0,-1.3333333,0,294.42204)" />
  </g>
</svg>
