<?xml version="1.0" encoding="UTF-8" standalone="no"?>
<!-- Created with Inkscape (http://www.inkscape.org/) -->

<svg
   version="1.1"
   id="svg1"
   width="332.21732"
   height="294.42203"
   viewBox="0 0 332.21732 294.42203"
   sodipodi:docname="upload_e4c5v6jnszid5qobbggoskjyst.pdf"
   xmlns:inkscape="http://www.inkscape.org/namespaces/inkscape"
   xmlns:sodipodi="http://sodipodi.sourceforge.net/DTD/sodipodi-0.dtd"
   xmlns="http://www.w3.org/2000/svg"
   xmlns:svg="http://www.w3.org/2000/svg">
  <defs
     id="defs1">
    <clipPath
       clipPathUnits="userSpaceOnUse"
       id="clipPath11">
      <path
         d="M 31.330625,28.28375 H 247.72298 V 172.88711 H 31.330625 Z"
         id="path11" />
    </clipPath>
    <clipPath
       clipPathUnits="userSpaceOnUse"
       id="clipPath25">
      <path
         d="M 31.330625,28.28375 H 247.72298 V 172.88711 H 31.330625 Z"
         id="path25" />
    </clipPath>
    <clipPath
       clipPathUnits="userSpaceOnUse"
       id="clipPath29">
      <path
         d="M 31.330625,28.28375 H 247.72298 V 172.88711 H 31.330625 Z"
         id="path29" />
    </clipPath>
    <clipPath
       clipPathUnits="userSpaceOnUse"
       id="clipPath33">
      <path
         d="M 31.330625,28.28375 H 247.72298 V 172.88711 H 31.330625 Z"
         id="path33" />
    </clipPath>
    <clipPath
       clipPathUnits="userSpaceOnUse"
       id="clipPath37">
      <path
         d="M 31.330625,28.28375 H 247.72298 V 172.88711 H 31.330625 Z"
         id="path37" />
    </clipPath>
    <clipPath
       clipPathUnits="userSpaceOnUse"
       id="clipPath38">
      <path
         d="M -6.9,-6.9 H 6.9 V 6.9 H -6.9 Z"
         id="path38" />
    </clipPath>
    <clipPath
       clipPathUnits="userSpaceOnUse"
       id="clipPath40">
      <path
         d="M 31.330625,28.28375 H 247.72298 V 172.88711 H 31.330625 Z"
         transform="matrix(1.3333333,0,0,-1.3333333,0,294.42204)"
         id="path40" />
    </clipPath>
    <clipPath
       clipPathUnits="userSpaceOnUse"
       id="clipPath41">
      <path
         d="M -6.9,-6.9 H 6.9 V 6.9 H -6.9 Z"
         id="path41" />
    </clipPath>
    <clipPath
       clipPathUnits="userSpaceOnUse"
       id="clipPath43">
      <path
         d="M 31.330625,28.28375 H 247.72298 V 172.88711 H 31.330625 Z"
         transform="matrix(1.3333333,0,0,-1.3333333,0,294.42204)"
         id="path43" />
    </clipPath>
    <clipPath
       clipPathUnits="userSpaceOnUse"
       id="clipPath44">
      <path
         d="M -6.9,-6.9 H 6.9 V 6.9 H -6.9 Z"
         transform="translate(2.3253e-6)"
         id="path44" />
    </clipPath>
    <clipPath
       clipPathUnits="userSpaceOnUse"
       id="clipPath46">
      <path
         d="M 31.330625,28.28375 H 247.72298 V 172.88711 H 31.330625 Z"
         transform="matrix(1.3333333,0,0,-1.3333333,0,294.42204)"
         id="path46" />
    </clipPath>
    <clipPath
       clipPathUnits="userSpaceOnUse"
       id="clipPath47">
      <path
         d="M -6.9,-6.9 H 6.9 V 6.9 H -6.9 Z"
         transform="translate(-2.7585001e-6)"
         id="path47" />
    </clipPath>
    <clipPath
       clipPathUnits="userSpaceOnUse"
       id="clipPath49">
      <path
         d="M 31.330625,28.28375 H 247.72298 V 172.88711 H 31.330625 Z"
         transform="matrix(1.3333333,0,0,-1.3333333,0,294.42204)"
         id="path49" />
    </clipPath>
    <clipPath
       clipPathUnits="userSpaceOnUse"
       id="clipPath50">
      <path
         d="M -6.9,-6.9 H 6.9 V 6.9 H -6.9 Z"
         id="path50" />
    </clipPath>
    <clipPath
       clipPathUnits="userSpaceOnUse"
       id="clipPath52">
      <path
         d="M 31.330625,28.28375 H 247.72298 V 172.88711 H 31.330625 Z"
         transform="matrix(1.3333333,0,0,-1.3333333,0,294.42204)"
         id="path52" />
    </clipPath>
    <clipPath
       clipPathUnits="userSpaceOnUse"
       id="clipPath53">
      <path
         d="M -6.9,-6.9 H 6.9 V 6.9 H -6.9 Z"
         transform="translate(2.0739e-6)"
         id="path53" />
    </clipPath>
    <clipPath
       clipPathUnits="userSpaceOnUse"
       id="clipPath55">
      <path
         d="M 31.330625,28.28375 H 247.72298 V 172.88711 H 31.330625 Z"
         transform="matrix(1.3333333,0,0,-1.3333333,0,294.42204)"
         id="path55" />
    </clipPath>
    <clipPath
       clipPathUnits="userSpaceOnUse"
       id="clipPath57">
      <path
         d="M 31.330625,28.28375 H 247.72298 V 172.88711 H 31.330625 Z"
         id="path57" />
    </clipPath>
    <clipPath
       clipPathUnits="userSpaceOnUse"
       id="clipPath58">
      <path
         d="M -6.9,-6.9 H 6.9 V 6.9 H -6.9 Z"
         id="path58" />
    </clipPath>
    <clipPath
       clipPathUnits="userSpaceOnUse"
       id="clipPath60">
      <path
         d="M 31.330625,28.28375 H 247.72298 V 172.88711 H 31.330625 Z"
         transform="matrix(1.3333333,0,0,-1.3333333,0,294.42204)"
         id="path60" />
    </clipPath>
    <clipPath
       clipPathUnits="userSpaceOnUse"
       id="clipPath61">
      <path
         d="M -6.9,-6.9 H 6.9 V 6.9 H -6.9 Z"
         id="path61" />
    </clipPath>
    <clipPath
       clipPathUnits="userSpaceOnUse"
       id="clipPath63">
      <path
         d="M 31.330625,28.28375 H 247.72298 V 172.88711 H 31.330625 Z"
         transform="matrix(1.3333333,0,0,-1.3333333,0,294.42204)"
         id="path63" />
    </clipPath>
    <clipPath
       clipPathUnits="userSpaceOnUse"
       id="clipPath64">
      <path
         d="M -6.9,-6.9 H 6.9 V 6.9 H -6.9 Z"
         transform="translate(2.3253e-6)"
         id="path64" />
    </clipPath>
    <clipPath
       clipPathUnits="userSpaceOnUse"
       id="clipPath66">
      <path
         d="M 31.330625,28.28375 H 247.72298 V 172.88711 H 31.330625 Z"
         transform="matrix(1.3333333,0,0,-1.3333333,0,294.42204)"
         id="path66" />
    </clipPath>
    <clipPath
       clipPathUnits="userSpaceOnUse"
       id="clipPath67">
      <path
         d="M -6.9,-6.9 H 6.9 V 6.9 H -6.9 Z"
         transform="translate(-2.7585001e-6)"
         id="path67" />
    </clipPath>
    <clipPath
       clipPathUnits="userSpaceOnUse"
       id="clipPath69">
      <path
         d="M 31.330625,28.28375 H 247.72298 V 172.88711 H 31.330625 Z"
         transform="matrix(1.3333333,0,0,-1.3333333,0,294.42204)"
         id="path69" />
    </clipPath>
    <clipPath
       clipPathUnits="userSpaceOnUse"
       id="clipPath70">
      <path
         d="M -6.9,-6.9 H 6.9 V 6.9 H -6.9 Z"
         id="path70" />
    </clipPath>
    <clipPath
       clipPathUnits="userSpaceOnUse"
       id="clipPath72">
      <path
         d="M 31.330625,28.28375 H 247.72298 V 172.88711 H 31.330625 Z"
         transform="matrix(1.3333333,0,0,-1.3333333,0,294.42204)"
         id="path72" />
    </clipPath>
    <clipPath
       clipPathUnits="userSpaceOnUse"
       id="clipPath73">
      <path
         d="M -6.9,-6.9 H 6.9 V 6.9 H -6.9 Z"
         transform="translate(2.0739e-6)"
         id="path73" />
    </clipPath>
    <clipPath
       clipPathUnits="userSpaceOnUse"
       id="clipPath75">
      <path
         d="M 31.330625,28.28375 H 247.72298 V 172.88711 H 31.330625 Z"
         transform="matrix(1.3333333,0,0,-1.3333333,0,294.42204)"
         id="path75" />
    </clipPath>
    <clipPath
       clipPathUnits="userSpaceOnUse"
       id="clipPath77">
      <path
         d="M 31.330625,28.28375 H 247.72298 V 172.88711 H 31.330625 Z"
         id="path77" />
    </clipPath>
    <clipPath
       clipPathUnits="userSpaceOnUse"
       id="clipPath78">
      <path
         d="M -6.9,-6.9 H 6.9 V 6.9 H -6.9 Z"
         id="path78" />
    </clipPath>
    <clipPath
       clipPathUnits="userSpaceOnUse"
       id="clipPath80">
      <path
         d="M 31.330625,28.28375 H 247.72298 V 172.88711 H 31.330625 Z"
         transform="matrix(1.3333333,0,0,-1.3333333,0,294.42204)"
         id="path80" />
    </clipPath>
    <clipPath
       clipPathUnits="userSpaceOnUse"
       id="clipPath81">
      <path
         d="M -6.9,-6.9 H 6.9 V 6.9 H -6.9 Z"
         id="path81" />
    </clipPath>
    <clipPath
       clipPathUnits="userSpaceOnUse"
       id="clipPath83">
      <path
         d="M 31.330625,28.28375 H 247.72298 V 172.88711 H 31.330625 Z"
         transform="matrix(1.3333333,0,0,-1.3333333,0,294.42204)"
         id="path83" />
    </clipPath>
    <clipPath
       clipPathUnits="userSpaceOnUse"
       id="clipPath84">
      <path
         d="M -6.9,-6.9 H 6.9 V 6.9 H -6.9 Z"
         transform="translate(2.3253e-6)"
         id="path84" />
    </clipPath>
    <clipPath
       clipPathUnits="userSpaceOnUse"
       id="clipPath86">
      <path
         d="M 31.330625,28.28375 H 247.72298 V 172.88711 H 31.330625 Z"
         transform="matrix(1.3333333,0,0,-1.3333333,0,294.42204)"
         id="path86" />
    </clipPath>
    <clipPath
       clipPathUnits="userSpaceOnUse"
       id="clipPath87">
      <path
         d="M -6.9,-6.9 H 6.9 V 6.9 H -6.9 Z"
         transform="translate(-2.7585001e-6)"
         id="path87" />
    </clipPath>
    <clipPath
       clipPathUnits="userSpaceOnUse"
       id="clipPath89">
      <path
         d="M 31.330625,28.28375 H 247.72298 V 172.88711 H 31.330625 Z"
         transform="matrix(1.3333333,0,0,-1.3333333,0,294.42204)"
         id="path89" />
    </clipPath>
    <clipPath
       clipPathUnits="userSpaceOnUse"
       id="clipPath90">
      <path
         d="M -6.9,-6.9 H 6.9 V 6.9 H -6.9 Z"
         id="path90" />
    </clipPath>
    <clipPath
       clipPathUnits="userSpaceOnUse"
       id="clipPath92">
      <path
         d="M 31.330625,28.28375 H 247.72298 V 172.88711 H 31.330625 Z"
         transform="matrix(1.3333333,0,0,-1.3333333,0,294.42204)"
         id="path92" />
    </clipPath>
    <clipPath
       clipPathUnits="userSpaceOnUse"
       id="clipPath93">
      <path
         d="M -6.9,-6.9 H 6.9 V 6.9 H -6.9 Z"
         transform="translate(2.0739e-6)"
         id="path93" />
    </clipPath>
    <clipPath
       clipPathUnits="userSpaceOnUse"
       id="clipPath95">
      <path
         d="M 31.330625,28.28375 H 247.72298 V 172.88711 H 31.330625 Z"
         transform="matrix(1.3333333,0,0,-1.3333333,0,294.42204)"
         id="path95" />
    </clipPath>
    <clipPath
       clipPathUnits="userSpaceOnUse"
       id="clipPath97">
      <path
         d="M 31.330625,28.28375 H 247.72298 V 172.88711 H 31.330625 Z"
         id="path97" />
    </clipPath>
    <clipPath
       clipPathUnits="userSpaceOnUse"
       id="clipPath98">
      <path
         d="M -6.9,-6.9 H 6.9 V 6.9 H -6.9 Z"
         id="path98" />
    </clipPath>
    <clipPath
       clipPathUnits="userSpaceOnUse"
       id="clipPath100">
      <path
         d="M 31.330625,28.28375 H 247.72298 V 172.88711 H 31.330625 Z"
         transform="matrix(1.3333333,0,0,-1.3333333,0,294.42204)"
         id="path100" />
    </clipPath>
    <clipPath
       clipPathUnits="userSpaceOnUse"
       id="clipPath101">
      <path
         d="M -6.9,-6.9 H 6.9 V 6.9 H -6.9 Z"
         id="path101" />
    </clipPath>
    <clipPath
       clipPathUnits="userSpaceOnUse"
       id="clipPath103">
      <path
         d="M 31.330625,28.28375 H 247.72298 V 172.88711 H 31.330625 Z"
         transform="matrix(1.3333333,0,0,-1.3333333,0,294.42204)"
         id="path103" />
    </clipPath>
    <clipPath
       clipPathUnits="userSpaceOnUse"
       id="clipPath104">
      <path
         d="M -6.9,-6.9 H 6.9 V 6.9 H -6.9 Z"
         transform="translate(2.3253e-6)"
         id="path104" />
    </clipPath>
    <clipPath
       clipPathUnits="userSpaceOnUse"
       id="clipPath106">
      <path
         d="M 31.330625,28.28375 H 247.72298 V 172.88711 H 31.330625 Z"
         transform="matrix(1.3333333,0,0,-1.3333333,0,294.42204)"
         id="path106" />
    </clipPath>
    <clipPath
       clipPathUnits="userSpaceOnUse"
       id="clipPath107">
      <path
         d="M -6.9,-6.9 H 6.9 V 6.9 H -6.9 Z"
         transform="translate(-2.7585001e-6)"
         id="path107" />
    </clipPath>
    <clipPath
       clipPathUnits="userSpaceOnUse"
       id="clipPath109">
      <path
         d="M 31.330625,28.28375 H 247.72298 V 172.88711 H 31.330625 Z"
         transform="matrix(1.3333333,0,0,-1.3333333,0,294.42204)"
         id="path109" />
    </clipPath>
    <clipPath
       clipPathUnits="userSpaceOnUse"
       id="clipPath110">
      <path
         d="M -6.9,-6.9 H 6.9 V 6.9 H -6.9 Z"
         id="path110" />
    </clipPath>
    <clipPath
       clipPathUnits="userSpaceOnUse"
       id="clipPath112">
      <path
         d="M 31.330625,28.28375 H 247.72298 V 172.88711 H 31.330625 Z"
         transform="matrix(1.3333333,0,0,-1.3333333,0,294.42204)"
         id="path112" />
    </clipPath>
    <clipPath
       clipPathUnits="userSpaceOnUse"
       id="clipPath113">
      <path
         d="M -6.9,-6.9 H 6.9 V 6.9 H -6.9 Z"
         transform="translate(2.0739e-6)"
         id="path113" />
    </clipPath>
    <clipPath
       clipPathUnits="userSpaceOnUse"
       id="clipPath115">
      <path
         d="M 31.330625,28.28375 H 247.72298 V 172.88711 H 31.330625 Z"
         transform="matrix(1.3333333,0,0,-1.3333333,0,294.42204)"
         id="path115" />
    </clipPath>
  </defs>
  <sodipodi:namedview
     id="namedview1"
     pagecolor="#ffffff"
     bordercolor="#000000"
     borderopacity="0.25"
     inkscape:showpageshadow="2"
     inkscape:pageopacity="0.0"
     inkscape:pagecheckerboard="0"
     inkscape:deskcolor="#d1d1d1">
    <inkscape:page
       x="0"
       y="0"
       inkscape:label="1"
       id="page1"
       width="332.21732"
       height="294.42203"
       margin="0"
       bleed="0" />
  </sodipodi:namedview>
  <g
     id="g1"
     inkscape:groupmode="layer"
     inkscape:label="1">
    <path
       id="path1"
       d="m 47.07368,208.78181 h 8 8"
       style="fill:none;stroke:#452a3d;stroke-width:1.6;stroke-linecap:square;stroke-linejoin:round;stroke-miterlimit:10;stroke-dasharray:none;stroke-opacity:1"
       transform="matrix(1.3333333,0,0,-1.3333333,0,294.42204)" />
    <path
       id="path2"
       d="m 55.07368,206.88181 c 0.503886,0 0.987202,0.2002 1.343503,0.5565 0.356301,0.3563 0.556497,0.83962 0.556497,1.3435 0,0.50389 -0.200196,0.9872 -0.556497,1.3435 -0.356301,0.35631 -0.839617,0.5565 -1.343503,0.5565 -0.503886,0 -0.987202,-0.20019 -1.343503,-0.5565 -0.356301,-0.3563 -0.556497,-0.83961 -0.556497,-1.3435 0,-0.50388 0.200196,-0.9872 0.556497,-1.3435 0.356301,-0.3563 0.839617,-0.5565 1.343503,-0.5565 z"
       style="fill:#ffffff;fill-opacity:1;fill-rule:nonzero;stroke:#452a3d;stroke-width:1;stroke-linecap:butt;stroke-linejoin:round;stroke-miterlimit:10;stroke-dasharray:none;stroke-opacity:1"
       transform="matrix(1.3333333,0,0,-1.3333333,0,294.42204)" />
    <text
       id="text2"
       xml:space="preserve"
       transform="matrix(1.3333333,0,0,1.3333333,90.764906,20.712954)"><tspan
         id="tspan2"
         style="font-variant:normal;font-weight:normal;font-size:10px;font-family:'DejaVu Sans';writing-mode:lr-tb;fill:#000000;fill-opacity:1;fill-rule:nonzero;stroke:none"
         x="0"
         y="0">MRL</tspan></text>
    <path
       id="path3"
       d="m 97.22993,208.78181 h 8 8"
       style="fill:none;stroke:#44757a;stroke-width:1.6;stroke-linecap:square;stroke-linejoin:round;stroke-miterlimit:10;stroke-dasharray:none;stroke-opacity:1"
       transform="matrix(1.3333333,0,0,-1.3333333,0,294.42204)" />
    <path
       id="path4"
       d="m 103.32993,206.88181 h 3.8 v 3.8 h -3.8 z"
       style="fill:#ffffff;fill-opacity:1;fill-rule:nonzero;stroke:#44757a;stroke-width:1;stroke-linecap:butt;stroke-linejoin:miter;stroke-miterlimit:10;stroke-dasharray:none;stroke-opacity:1"
       transform="matrix(1.3333333,0,0,-1.3333333,0,294.42204)" />
    <text
       id="text4"
       xml:space="preserve"
       transform="matrix(1.3333333,0,0,1.3333333,157.63991,20.712954)"><tspan
         id="tspan4"
         style="font-variant:normal;font-weight:normal;font-size:10px;font-family:'DejaVu Sans';writing-mode:lr-tb;fill:#000000;fill-opacity:1;fill-rule:nonzero;stroke:none"
         x="0"
         y="0">CSR</tspan></text>
    <path
       id="path5"
       d="m 146.51118,208.78181 h 8 8"
       style="fill:none;stroke:#d44c3c;stroke-width:1.6;stroke-linecap:butt;stroke-linejoin:round;stroke-miterlimit:10;stroke-dasharray:5.92, 2.56;stroke-dashoffset:0;stroke-opacity:1"
       transform="matrix(1.3333333,0,0,-1.3333333,0,294.42204)" />
    <path
       id="path6"
       d="m 154.51118,206.88181 1.9,3.8 h -3.8 z"
       style="fill:#ffffff;fill-opacity:1;fill-rule:nonzero;stroke:#d44c3c;stroke-width:1;stroke-linecap:butt;stroke-linejoin:miter;stroke-miterlimit:10;stroke-dasharray:none;stroke-opacity:1"
       transform="matrix(1.3333333,0,0,-1.3333333,0,294.42204)" />
    <text
       id="text6"
       xml:space="preserve"
       transform="matrix(1.3333333,0,0,1.3333333,223.34824,20.712954)"><tspan
         id="tspan6"
         style="font-variant:normal;font-weight:normal;font-size:10px;font-family:'DejaVu Sans';writing-mode:lr-tb;fill:#000000;fill-opacity:1;fill-rule:nonzero;stroke:none"
         x="0"
         y="0">CSRv2-linear</tspan></text>
    <path
       id="path7"
       d="m 73.620555,190.96668 h 8 8"
       style="fill:none;stroke:#d44c3c;stroke-width:1.6;stroke-linecap:square;stroke-linejoin:round;stroke-miterlimit:10;stroke-dasharray:none;stroke-opacity:1"
       transform="matrix(1.3333333,0,0,-1.3333333,0,294.42204)" />
    <path
       id="path8"
       d="m 80.987221,189.06668 h 1.266667 v 1.26666 h 1.266667 v 1.26667 h -1.266667 v 1.26667 h -1.266667 v -1.26667 h -1.266666 v -1.26667 h 1.266666 z"
       style="fill:#ffffff;fill-opacity:1;fill-rule:nonzero;stroke:#d44c3c;stroke-width:1;stroke-linecap:butt;stroke-linejoin:miter;stroke-miterlimit:10;stroke-dasharray:none;stroke-opacity:1"
       transform="matrix(1.3333333,0,0,-1.3333333,0,294.42204)" />
    <text
       id="text8"
       xml:space="preserve"
       transform="matrix(1.3333333,0,0,1.3333333,126.16074,44.466466)"><tspan
         id="tspan8"
         style="font-variant:normal;font-weight:normal;font-size:10px;font-family:'DejaVu Sans';writing-mode:lr-tb;fill:#000000;fill-opacity:1;fill-rule:nonzero;stroke:none"
         x="0"
         y="0">CSRv2</tspan></text>
    <path
       id="path9"
       d="m 135.18305,190.96668 h 8 8"
       style="fill:none;stroke:#808080;stroke-width:1.5;stroke-linecap:butt;stroke-linejoin:round;stroke-miterlimit:10;stroke-dasharray:9.6, 2.4, 1.5, 2.4;stroke-dashoffset:0;stroke-opacity:1"
       transform="matrix(1.3333333,0,0,-1.3333333,0,294.42204)" />
    <text
       id="text9"
       xml:space="preserve"
       transform="matrix(1.3333333,0,0,1.3333333,208.24407,44.466466)"><tspan
         id="tspan9"
         style="font-variant:normal;font-weight:normal;font-size:10px;font-family:'DejaVu Sans';writing-mode:lr-tb;fill:#000000;fill-opacity:1;fill-rule:nonzero;stroke:none"
         x="0"
         y="0">Backbone</tspan></text>
    <path
       id="path10"
       d="M 31.330625,168.54901 H 247.72298"
       style="fill:none;stroke:#808080;stroke-width:1.5;stroke-linecap:butt;stroke-linejoin:round;stroke-miterlimit:10;stroke-dasharray:9.6, 2.4, 1.5, 2.4;stroke-dashoffset:0;stroke-opacity:1"
       transform="matrix(1.3333333,0,0,-1.3333333,0,294.42204)"
       clip-path="url(#clipPath11)" />
    <path
       id="path12"
       d="m 43.673742,28.28375 v 3.5"
       style="fill:#000000;fill-opacity:1;fill-rule:nonzero;stroke:#000000;stroke-width:0.8;stroke-linecap:butt;stroke-linejoin:round;stroke-miterlimit:10;stroke-dasharray:none;stroke-opacity:1"
       transform="matrix(1.3333333,0,0,-1.3333333,0,294.42204)" />
    <path
       id="path13"
       d="m 43.673742,172.88711 v -3.5"
       style="fill:#000000;fill-opacity:1;fill-rule:nonzero;stroke:#000000;stroke-width:0.8;stroke-linecap:butt;stroke-linejoin:round;stroke-miterlimit:10;stroke-dasharray:none;stroke-opacity:1"
       transform="matrix(1.3333333,0,0,-1.3333333,0,294.42204)" />
    <text
       id="text13"
       xml:space="preserve"
       transform="matrix(1.3333333,0,0,1.3333333,53.992073,271.50204)"><tspan
         id="tspan13"
         style="font-variant:normal;font-weight:normal;font-size:10px;font-family:'DejaVu Sans';writing-mode:lr-tb;fill:#000000;fill-opacity:1;fill-rule:nonzero;stroke:none"
         x="0"
         y="0">2</tspan></text>
    <path
       id="path14"
       d="m 82.014967,28.28375 v 3.5"
       style="fill:#000000;fill-opacity:1;fill-rule:nonzero;stroke:#000000;stroke-width:0.8;stroke-linecap:butt;stroke-linejoin:round;stroke-miterlimit:10;stroke-dasharray:none;stroke-opacity:1"
       transform="matrix(1.3333333,0,0,-1.3333333,0,294.42204)" />
    <path
       id="path15"
       d="m 82.014967,172.88711 v -3.5"
       style="fill:#000000;fill-opacity:1;fill-rule:nonzero;stroke:#000000;stroke-width:0.8;stroke-linecap:butt;stroke-linejoin:round;stroke-miterlimit:10;stroke-dasharray:none;stroke-opacity:1"
       transform="matrix(1.3333333,0,0,-1.3333333,0,294.42204)" />
    <text
       id="text15"
       xml:space="preserve"
       transform="matrix(1.3333333,0,0,1.3333333,105.11371,271.50204)"><tspan
         id="tspan15"
         style="font-variant:normal;font-weight:normal;font-size:10px;font-family:'DejaVu Sans';writing-mode:lr-tb;fill:#000000;fill-opacity:1;fill-rule:nonzero;stroke:none"
         x="0"
         y="0">4</tspan></text>
    <path
       id="path16"
       d="m 120.35619,28.28375 v 3.5"
       style="fill:#000000;fill-opacity:1;fill-rule:nonzero;stroke:#000000;stroke-width:0.8;stroke-linecap:butt;stroke-linejoin:round;stroke-miterlimit:10;stroke-dasharray:none;stroke-opacity:1"
       transform="matrix(1.3333333,0,0,-1.3333333,0,294.42204)" />
    <path
       id="path17"
       d="m 120.35619,172.88711 v -3.5"
       style="fill:#000000;fill-opacity:1;fill-rule:nonzero;stroke:#000000;stroke-width:0.8;stroke-linecap:butt;stroke-linejoin:round;stroke-miterlimit:10;stroke-dasharray:none;stroke-opacity:1"
       transform="matrix(1.3333333,0,0,-1.3333333,0,294.42204)" />
    <text
       id="text17"
       xml:space="preserve"
       transform="matrix(1.3333333,0,0,1.3333333,156.23534,271.50204)"><tspan
         id="tspan17"
         style="font-variant:normal;font-weight:normal;font-size:10px;font-family:'DejaVu Sans';writing-mode:lr-tb;fill:#000000;fill-opacity:1;fill-rule:nonzero;stroke:none"
         x="0"
         y="0">8</tspan></text>
    <path
       id="path18"
       d="m 158.69742,28.28375 v 3.5"
       style="fill:#000000;fill-opacity:1;fill-rule:nonzero;stroke:#000000;stroke-width:0.8;stroke-linecap:butt;stroke-linejoin:round;stroke-miterlimit:10;stroke-dasharray:none;stroke-opacity:1"
       transform="matrix(1.3333333,0,0,-1.3333333,0,294.42204)" />
    <path
       id="path19"
       d="m 158.69742,172.88711 v -3.5"
       style="fill:#000000;fill-opacity:1;fill-rule:nonzero;stroke:#000000;stroke-width:0.8;stroke-linecap:butt;stroke-linejoin:round;stroke-miterlimit:10;stroke-dasharray:none;stroke-opacity:1"
       transform="matrix(1.3333333,0,0,-1.3333333,0,294.42204)" />
    <text
       id="text19"
       xml:space="preserve"
       transform="matrix(1.3333333,0,0,1.3333333,203.11739,271.50204)"><tspan
         id="tspan19"
         style="font-variant:normal;font-weight:normal;font-size:10px;font-family:'DejaVu Sans';writing-mode:lr-tb;fill:#000000;fill-opacity:1;fill-rule:nonzero;stroke:none"
         x="0"
         y="0">16</tspan></text>
    <path
       id="path20"
       d="m 197.03864,28.28375 v 3.5"
       style="fill:#000000;fill-opacity:1;fill-rule:nonzero;stroke:#000000;stroke-width:0.8;stroke-linecap:butt;stroke-linejoin:round;stroke-miterlimit:10;stroke-dasharray:none;stroke-opacity:1"
       transform="matrix(1.3333333,0,0,-1.3333333,0,294.42204)" />
    <path
       id="path21"
       d="m 197.03864,172.88711 v -3.5"
       style="fill:#000000;fill-opacity:1;fill-rule:nonzero;stroke:#000000;stroke-width:0.8;stroke-linecap:butt;stroke-linejoin:round;stroke-miterlimit:10;stroke-dasharray:none;stroke-opacity:1"
       transform="matrix(1.3333333,0,0,-1.3333333,0,294.42204)" />
    <text
       id="text21"
       xml:space="preserve"
       transform="matrix(1.3333333,0,0,1.3333333,254.23902,271.50204)"><tspan
         id="tspan21"
         style="font-variant:normal;font-weight:normal;font-size:10px;font-family:'DejaVu Sans';writing-mode:lr-tb;fill:#000000;fill-opacity:1;fill-rule:nonzero;stroke:none"
         x="0"
         y="0">32</tspan></text>
    <path
       id="path22"
       d="m 235.37987,28.28375 v 3.5"
       style="fill:#000000;fill-opacity:1;fill-rule:nonzero;stroke:#000000;stroke-width:0.8;stroke-linecap:butt;stroke-linejoin:round;stroke-miterlimit:10;stroke-dasharray:none;stroke-opacity:1"
       transform="matrix(1.3333333,0,0,-1.3333333,0,294.42204)" />
    <path
       id="path23"
       d="m 235.37987,172.88711 v -3.5"
       style="fill:#000000;fill-opacity:1;fill-rule:nonzero;stroke:#000000;stroke-width:0.8;stroke-linecap:butt;stroke-linejoin:round;stroke-miterlimit:10;stroke-dasharray:none;stroke-opacity:1"
       transform="matrix(1.3333333,0,0,-1.3333333,0,294.42204)" />
    <text
       id="text23"
       xml:space="preserve"
       transform="matrix(1.3333333,0,0,1.3333333,305.36066,271.50204)"><tspan
         id="tspan23"
         style="font-variant:normal;font-weight:normal;font-size:10px;font-family:'DejaVu Sans';writing-mode:lr-tb;fill:#000000;fill-opacity:1;fill-rule:nonzero;stroke:none"
         x="0"
         y="0">64</tspan></text>
    <text
       id="text24"
       xml:space="preserve"
       transform="matrix(1.3333333,0,0,1.3333333,149.75449,289.7312)"><tspan
         id="tspan24"
         style="font-variant:normal;font-weight:normal;font-size:10px;font-family:'DejaVu Sans';writing-mode:lr-tb;fill:#000000;fill-opacity:1;fill-rule:nonzero;stroke:none"
         x="0"
         dx="0 -0.171875"
         y="0">Active Dim</tspan></text>
    <path
       id="path24"
       d="M 31.330625,55.06215 H 247.72298"
       style="fill:none;stroke:#b0b0b0;stroke-width:0.5;stroke-linecap:butt;stroke-linejoin:round;stroke-miterlimit:10;stroke-dasharray:1.85, 0.8;stroke-dashoffset:0;stroke-opacity:0.5"
       transform="matrix(1.3333333,0,0,-1.3333333,0,294.42204)"
       clip-path="url(#clipPath25)" />
    <path
       id="path26"
       d="m 31.330625,55.06215 h 3.5"
       style="fill:#000000;fill-opacity:1;fill-rule:nonzero;stroke:#000000;stroke-width:0.8;stroke-linecap:butt;stroke-linejoin:round;stroke-miterlimit:10;stroke-dasharray:none;stroke-opacity:1"
       transform="matrix(1.3333333,0,0,-1.3333333,0,294.42204)" />
    <path
       id="path27"
       d="m 247.72298,55.06215 h -3.5"
       style="fill:#000000;fill-opacity:1;fill-rule:nonzero;stroke:#000000;stroke-width:0.8;stroke-linecap:butt;stroke-linejoin:round;stroke-miterlimit:10;stroke-dasharray:none;stroke-opacity:1"
       transform="matrix(1.3333333,0,0,-1.3333333,0,294.42204)" />
    <text
       id="text27"
       xml:space="preserve"
       transform="matrix(1.3333333,0,0,1.3333333,20.149167,226.06834)"><tspan
         id="tspan27"
         style="font-variant:normal;font-weight:normal;font-size:10px;font-family:'DejaVu Sans';writing-mode:lr-tb;fill:#000000;fill-opacity:1;fill-rule:nonzero;stroke:none"
         x="0"
         y="0">50</tspan></text>
    <path
       id="path28"
       d="M 31.330625,108.61895 H 247.72298"
       style="fill:none;stroke:#b0b0b0;stroke-width:0.5;stroke-linecap:butt;stroke-linejoin:round;stroke-miterlimit:10;stroke-dasharray:1.85, 0.8;stroke-dashoffset:0;stroke-opacity:0.5"
       transform="matrix(1.3333333,0,0,-1.3333333,0,294.42204)"
       clip-path="url(#clipPath29)" />
    <path
       id="path30"
       d="m 31.330625,108.61895 h 3.5"
       style="fill:#000000;fill-opacity:1;fill-rule:nonzero;stroke:#000000;stroke-width:0.8;stroke-linecap:butt;stroke-linejoin:round;stroke-miterlimit:10;stroke-dasharray:none;stroke-opacity:1"
       transform="matrix(1.3333333,0,0,-1.3333333,0,294.42204)" />
    <path
       id="path31"
       d="m 247.72298,108.61895 h -3.5"
       style="fill:#000000;fill-opacity:1;fill-rule:nonzero;stroke:#000000;stroke-width:0.8;stroke-linecap:butt;stroke-linejoin:round;stroke-miterlimit:10;stroke-dasharray:none;stroke-opacity:1"
       transform="matrix(1.3333333,0,0,-1.3333333,0,294.42204)" />
    <text
       id="text31"
       xml:space="preserve"
       transform="matrix(1.3333333,0,0,1.3333333,20.149167,154.65927)"><tspan
         id="tspan31"
         style="font-variant:normal;font-weight:normal;font-size:10px;font-family:'DejaVu Sans';writing-mode:lr-tb;fill:#000000;fill-opacity:1;fill-rule:nonzero;stroke:none"
         x="0"
         y="0">60</tspan></text>
    <path
       id="path32"
       d="M 31.330625,162.17575 H 247.72298"
       style="fill:none;stroke:#b0b0b0;stroke-width:0.5;stroke-linecap:butt;stroke-linejoin:round;stroke-miterlimit:10;stroke-dasharray:1.85, 0.8;stroke-dashoffset:0;stroke-opacity:0.5"
       transform="matrix(1.3333333,0,0,-1.3333333,0,294.42204)"
       clip-path="url(#clipPath33)" />
    <path
       id="path34"
       d="m 31.330625,162.17575 h 3.5"
       style="fill:#000000;fill-opacity:1;fill-rule:nonzero;stroke:#000000;stroke-width:0.8;stroke-linecap:butt;stroke-linejoin:round;stroke-miterlimit:10;stroke-dasharray:none;stroke-opacity:1"
       transform="matrix(1.3333333,0,0,-1.3333333,0,294.42204)" />
    <path
       id="path35"
       d="m 247.72298,162.17575 h -3.5"
       style="fill:#000000;fill-opacity:1;fill-rule:nonzero;stroke:#000000;stroke-width:0.8;stroke-linecap:butt;stroke-linejoin:round;stroke-miterlimit:10;stroke-dasharray:none;stroke-opacity:1"
       transform="matrix(1.3333333,0,0,-1.3333333,0,294.42204)" />
    <text
       id="text35"
       xml:space="preserve"
       transform="matrix(1.3333333,0,0,1.3333333,20.149167,83.250207)"><tspan
         id="tspan35"
         style="font-variant:normal;font-weight:normal;font-size:10px;font-family:'DejaVu Sans';writing-mode:lr-tb;fill:#000000;fill-opacity:1;fill-rule:nonzero;stroke:none"
         x="0"
         y="0">70</tspan></text>
    <text
       id="text36"
       xml:space="preserve"
       transform="matrix(0,-1.3333333,1.3333333,0,12.045,204.45397)"><tspan
         id="tspan36"
         style="font-variant:normal;font-weight:normal;font-size:10px;font-family:'DejaVu Sans';writing-mode:lr-tb;fill:#000000;fill-opacity:1;fill-rule:nonzero;stroke:none"
         x="0"
         dx="0 -0.171875"
         y="0">Accuracy (%)</tspan></text>
    <path
       id="path36"
       d="m 43.673742,43.333211 38.341225,41.98853 38.341223,35.026149 38.34123,30.63449 38.34122,8.3013 38.34123,3.80253"
       style="fill:none;stroke:#452a3d;stroke-width:1.6;stroke-linecap:square;stroke-linejoin:round;stroke-miterlimit:10;stroke-dasharray:none;stroke-opacity:1"
       transform="matrix(1.3333333,0,0,-1.3333333,0,294.42204)"
       clip-path="url(#clipPath37)" />
    <g
       id="g39"
       clip-path="url(#clipPath40)">
      <path
         d="m 0,-1.9 c 0.503886,0 0.987202,0.200196 1.343503,0.556497 C 1.699804,-0.987202 1.9,-0.503886 1.9,0 1.9,0.503886 1.699804,0.987202 1.343503,1.343503 0.987202,1.699804 0.503886,1.9 0,1.9 -0.503886,1.9 -0.987202,1.699804 -1.343503,1.343503 -1.699804,0.987202 -1.9,0.503886 -1.9,0 c 0,-0.503886 0.200196,-0.987202 0.556497,-1.343503 C -0.987202,-1.699804 -0.503886,-1.9 0,-1.9 Z"
         style="fill:#ffffff;fill-opacity:1;fill-rule:nonzero;stroke:#452a3d;stroke-width:1;stroke-linecap:butt;stroke-linejoin:round;stroke-miterlimit:10;stroke-dasharray:none;stroke-opacity:1"
         transform="matrix(1.3333333,0,0,-1.3333333,58.231657,236.64442)"
         clip-path="url(#clipPath38)"
         id="path39" />
    </g>
    <g
       id="g42"
       clip-path="url(#clipPath43)">
      <path
         d="m 0,-1.9 c 0.503886,0 0.987202,0.200196 1.343503,0.556497 C 1.699804,-0.987202 1.9,-0.503886 1.9,0 1.9,0.503886 1.699804,0.987202 1.343503,1.343503 0.987202,1.699804 0.503886,1.9 0,1.9 -0.503886,1.9 -0.987202,1.699804 -1.343503,1.343503 -1.699804,0.987202 -1.9,0.503886 -1.9,0 c 0,-0.503886 0.200196,-0.987202 0.556497,-1.343503 C -0.987202,-1.699804 -0.503886,-1.9 0,-1.9 Z"
         style="fill:#ffffff;fill-opacity:1;fill-rule:nonzero;stroke:#452a3d;stroke-width:1;stroke-linecap:butt;stroke-linejoin:round;stroke-miterlimit:10;stroke-dasharray:none;stroke-opacity:1"
         transform="matrix(1.3333333,0,0,-1.3333333,109.35329,180.65972)"
         clip-path="url(#clipPath41)"
         id="path42" />
    </g>
    <g
       id="g45"
       clip-path="url(#clipPath46)">
      <path
         d="m 0,-1.9 c 0.503886,0 0.987202,0.200196 1.343503,0.556497 C 1.699804,-0.987202 1.9,-0.503886 1.9,0 1.9,0.503886 1.699804,0.987202 1.343503,1.343503 0.987202,1.699804 0.503886,1.9 0,1.9 -0.503886,1.9 -0.987202,1.699804 -1.343503,1.343503 -1.699804,0.987202 -1.9,0.503886 -1.9,0 c 0,-0.503886 0.200196,-0.987202 0.556497,-1.343503 C -0.987202,-1.699804 -0.503886,-1.9 0,-1.9 Z"
         style="fill:#ffffff;fill-opacity:1;fill-rule:nonzero;stroke:#452a3d;stroke-width:1;stroke-linecap:butt;stroke-linejoin:round;stroke-miterlimit:10;stroke-dasharray:none;stroke-opacity:1"
         transform="matrix(1.3333333,0,0,-1.3333333,160.47492,133.95819)"
         clip-path="url(#clipPath44)"
         id="path45" />
    </g>
    <g
       id="g48"
       clip-path="url(#clipPath49)">
      <path
         d="m 0,-1.9 c 0.503886,0 0.987202,0.200196 1.343503,0.556497 C 1.699804,-0.987202 1.9,-0.503886 1.9,0 1.9,0.503886 1.699804,0.987202 1.343503,1.343503 0.987202,1.699804 0.503886,1.9 0,1.9 -0.503886,1.9 -0.987202,1.699804 -1.343503,1.343503 -1.699804,0.987202 -1.9,0.503886 -1.9,0 c 0,-0.503886 0.200196,-0.987202 0.556497,-1.343503 C -0.987202,-1.699804 -0.503886,-1.9 0,-1.9 Z"
         style="fill:#ffffff;fill-opacity:1;fill-rule:nonzero;stroke:#452a3d;stroke-width:1;stroke-linecap:butt;stroke-linejoin:round;stroke-miterlimit:10;stroke-dasharray:none;stroke-opacity:1"
         transform="matrix(1.3333333,0,0,-1.3333333,211.59656,93.112201)"
         clip-path="url(#clipPath47)"
         id="path48" />
    </g>
    <g
       id="g51"
       clip-path="url(#clipPath52)">
      <path
         d="m 0,-1.9 c 0.503886,0 0.987202,0.200196 1.343503,0.556497 C 1.699804,-0.987202 1.9,-0.503886 1.9,0 1.9,0.503886 1.699804,0.987202 1.343503,1.343503 0.987202,1.699804 0.503886,1.9 0,1.9 -0.503886,1.9 -0.987202,1.699804 -1.343503,1.343503 -1.699804,0.987202 -1.9,0.503886 -1.9,0 c 0,-0.503886 0.200196,-0.987202 0.556497,-1.343503 C -0.987202,-1.699804 -0.503886,-1.9 0,-1.9 Z"
         style="fill:#ffffff;fill-opacity:1;fill-rule:nonzero;stroke:#452a3d;stroke-width:1;stroke-linecap:butt;stroke-linejoin:round;stroke-miterlimit:10;stroke-dasharray:none;stroke-opacity:1"
         transform="matrix(1.3333333,0,0,-1.3333333,262.71819,82.043796)"
         clip-path="url(#clipPath50)"
         id="path51" />
    </g>
    <g
       id="g54"
       clip-path="url(#clipPath55)">
      <path
         d="m 0,-1.9 c 0.503886,0 0.987202,0.200196 1.343503,0.556497 C 1.699804,-0.987202 1.9,-0.503886 1.9,0 1.9,0.503886 1.699804,0.987202 1.343503,1.343503 0.987202,1.699804 0.503886,1.9 0,1.9 -0.503886,1.9 -0.987202,1.699804 -1.343503,1.343503 -1.699804,0.987202 -1.9,0.503886 -1.9,0 c 0,-0.503886 0.200196,-0.987202 0.556497,-1.343503 C -0.987202,-1.699804 -0.503886,-1.9 0,-1.9 Z"
         style="fill:#ffffff;fill-opacity:1;fill-rule:nonzero;stroke:#452a3d;stroke-width:1;stroke-linecap:butt;stroke-linejoin:round;stroke-miterlimit:10;stroke-dasharray:none;stroke-opacity:1"
         transform="matrix(1.3333333,0,0,-1.3333333,313.83982,76.973753)"
         clip-path="url(#clipPath53)"
         id="path54" />
    </g>
    <path
       id="path56"
       d="m 43.673742,114.24241 38.341225,22.92231 38.341223,13.12142 38.34123,7.44439 38.34122,5.24857 38.34123,4.23099"
       style="fill:none;stroke:#44757a;stroke-width:1.6;stroke-linecap:square;stroke-linejoin:round;stroke-miterlimit:10;stroke-dasharray:none;stroke-opacity:1"
       transform="matrix(1.3333333,0,0,-1.3333333,0,294.42204)"
       clip-path="url(#clipPath57)" />
    <g
       id="g59"
       clip-path="url(#clipPath60)">
      <path
         d="M -1.9,-1.9 H 1.9 V 1.9 H -1.9 Z"
         style="fill:#ffffff;fill-opacity:1;fill-rule:nonzero;stroke:#44757a;stroke-width:1;stroke-linecap:butt;stroke-linejoin:miter;stroke-miterlimit:10;stroke-dasharray:none;stroke-opacity:1"
         transform="matrix(1.3333333,0,0,-1.3333333,58.231657,142.09882)"
         clip-path="url(#clipPath58)"
         id="path59" />
    </g>
    <g
       id="g62"
       clip-path="url(#clipPath63)">
      <path
         d="M -1.9,-1.9 H 1.9 V 1.9 H -1.9 Z"
         style="fill:#ffffff;fill-opacity:1;fill-rule:nonzero;stroke:#44757a;stroke-width:1;stroke-linecap:butt;stroke-linejoin:miter;stroke-miterlimit:10;stroke-dasharray:none;stroke-opacity:1"
         transform="matrix(1.3333333,0,0,-1.3333333,109.35329,111.53574)"
         clip-path="url(#clipPath61)"
         id="path62" />
    </g>
    <g
       id="g65"
       clip-path="url(#clipPath66)">
      <path
         d="M -1.9,-1.9 H 1.9 V 1.9 H -1.9 Z"
         style="fill:#ffffff;fill-opacity:1;fill-rule:nonzero;stroke:#44757a;stroke-width:1;stroke-linecap:butt;stroke-linejoin:miter;stroke-miterlimit:10;stroke-dasharray:none;stroke-opacity:1"
         transform="matrix(1.3333333,0,0,-1.3333333,160.47492,94.040519)"
         clip-path="url(#clipPath64)"
         id="path65" />
    </g>
    <g
       id="g68"
       clip-path="url(#clipPath69)">
      <path
         d="M -1.9,-1.9 H 1.9 V 1.9 H -1.9 Z"
         style="fill:#ffffff;fill-opacity:1;fill-rule:nonzero;stroke:#44757a;stroke-width:1;stroke-linecap:butt;stroke-linejoin:miter;stroke-miterlimit:10;stroke-dasharray:none;stroke-opacity:1"
         transform="matrix(1.3333333,0,0,-1.3333333,211.59656,84.114659)"
         clip-path="url(#clipPath67)"
         id="path68" />
    </g>
    <g
       id="g71"
       clip-path="url(#clipPath72)">
      <path
         d="M -1.9,-1.9 H 1.9 V 1.9 H -1.9 Z"
         style="fill:#ffffff;fill-opacity:1;fill-rule:nonzero;stroke:#44757a;stroke-width:1;stroke-linecap:butt;stroke-linejoin:miter;stroke-miterlimit:10;stroke-dasharray:none;stroke-opacity:1"
         transform="matrix(1.3333333,0,0,-1.3333333,262.71819,77.116571)"
         clip-path="url(#clipPath70)"
         id="path71" />
    </g>
    <g
       id="g74"
       clip-path="url(#clipPath75)">
      <path
         d="M -1.9,-1.9 H 1.9 V 1.9 H -1.9 Z"
         style="fill:#ffffff;fill-opacity:1;fill-rule:nonzero;stroke:#44757a;stroke-width:1;stroke-linecap:butt;stroke-linejoin:miter;stroke-miterlimit:10;stroke-dasharray:none;stroke-opacity:1"
         transform="matrix(1.3333333,0,0,-1.3333333,313.83982,71.475254)"
         clip-path="url(#clipPath73)"
         id="path74" />
    </g>
    <path
       id="path76"
       d="m 43.673742,139.57478 38.341225,8.08707 38.341223,6.05192 38.34123,6.90883 38.34122,3.64186 38.34123,3.32052"
       style="fill:none;stroke:#d44c3c;stroke-width:1.6;stroke-linecap:butt;stroke-linejoin:round;stroke-miterlimit:10;stroke-dasharray:5.92, 2.56;stroke-dashoffset:0;stroke-opacity:1"
       transform="matrix(1.3333333,0,0,-1.3333333,0,294.42204)"
       clip-path="url(#clipPath77)" />
    <g
       id="g79"
       clip-path="url(#clipPath80)">
      <path
         d="M 0,-1.9 1.9,1.9 H -1.9 Z"
         style="fill:#ffffff;fill-opacity:1;fill-rule:nonzero;stroke:#d44c3c;stroke-width:1;stroke-linecap:butt;stroke-linejoin:miter;stroke-miterlimit:10;stroke-dasharray:none;stroke-opacity:1"
         transform="matrix(1.3333333,0,0,-1.3333333,58.231657,108.32233)"
         clip-path="url(#clipPath78)"
         id="path79" />
    </g>
    <g
       id="g82"
       clip-path="url(#clipPath83)">
      <path
         d="M 0,-1.9 1.9,1.9 H -1.9 Z"
         style="fill:#ffffff;fill-opacity:1;fill-rule:nonzero;stroke:#d44c3c;stroke-width:1;stroke-linecap:butt;stroke-linejoin:miter;stroke-miterlimit:10;stroke-dasharray:none;stroke-opacity:1"
         transform="matrix(1.3333333,0,0,-1.3333333,109.35329,97.539563)"
         clip-path="url(#clipPath81)"
         id="path82" />
    </g>
    <g
       id="g85"
       clip-path="url(#clipPath86)">
      <path
         d="M 0,-1.9 1.9,1.9 H -1.9 Z"
         style="fill:#ffffff;fill-opacity:1;fill-rule:nonzero;stroke:#d44c3c;stroke-width:1;stroke-linecap:butt;stroke-linejoin:miter;stroke-miterlimit:10;stroke-dasharray:none;stroke-opacity:1"
         transform="matrix(1.3333333,0,0,-1.3333333,160.47492,89.470339)"
         clip-path="url(#clipPath84)"
         id="path85" />
    </g>
    <g
       id="g88"
       clip-path="url(#clipPath89)">
      <path
         d="M 0,-1.9 1.9,1.9 H -1.9 Z"
         style="fill:#ffffff;fill-opacity:1;fill-rule:nonzero;stroke:#d44c3c;stroke-width:1;stroke-linecap:butt;stroke-linejoin:miter;stroke-miterlimit:10;stroke-dasharray:none;stroke-opacity:1"
         transform="matrix(1.3333333,0,0,-1.3333333,211.59656,80.25857)"
         clip-path="url(#clipPath87)"
         id="path88" />
    </g>
    <g
       id="g91"
       clip-path="url(#clipPath92)">
      <path
         d="M 0,-1.9 1.9,1.9 H -1.9 Z"
         style="fill:#ffffff;fill-opacity:1;fill-rule:nonzero;stroke:#d44c3c;stroke-width:1;stroke-linecap:butt;stroke-linejoin:miter;stroke-miterlimit:10;stroke-dasharray:none;stroke-opacity:1"
         transform="matrix(1.3333333,0,0,-1.3333333,262.71819,75.402753)"
         clip-path="url(#clipPath90)"
         id="path91" />
    </g>
    <g
       id="g94"
       clip-path="url(#clipPath95)">
      <path
         d="M 0,-1.9 1.9,1.9 H -1.9 Z"
         style="fill:#ffffff;fill-opacity:1;fill-rule:nonzero;stroke:#d44c3c;stroke-width:1;stroke-linecap:butt;stroke-linejoin:miter;stroke-miterlimit:10;stroke-dasharray:none;stroke-opacity:1"
         transform="matrix(1.3333333,0,0,-1.3333333,313.83982,70.975391)"
         clip-path="url(#clipPath93)"
         id="path94" />
    </g>
    <path
       id="path96"
       d="m 43.673742,149.48279 38.341225,11.83605 38.341223,0.42845 38.34123,0.7498 38.34122,2.03516 38.34123,3.26696"
       style="fill:none;stroke:#d44c3c;stroke-width:1.6;stroke-linecap:square;stroke-linejoin:round;stroke-miterlimit:10;stroke-dasharray:none;stroke-opacity:1"
       transform="matrix(1.3333333,0,0,-1.3333333,0,294.42204)"
       clip-path="url(#clipPath97)" />
    <g
       id="g99"
       clip-path="url(#clipPath100)">
      <path
         d="m -0.633333,-1.9 h 1.266666 v 1.266667 H 1.9 V 0.633333 H 0.633333 V 1.9 H -0.633333 V 0.633333 H -1.9 v -1.266666 h 1.266667 z"
         style="fill:#ffffff;fill-opacity:1;fill-rule:nonzero;stroke:#d44c3c;stroke-width:1;stroke-linecap:butt;stroke-linejoin:miter;stroke-miterlimit:10;stroke-dasharray:none;stroke-opacity:1"
         transform="matrix(1.3333333,0,0,-1.3333333,58.231657,95.111655)"
         clip-path="url(#clipPath98)"
         id="path99" />
    </g>
    <g
       id="g102"
       clip-path="url(#clipPath103)">
      <path
         d="m -0.633333,-1.9 h 1.266666 v 1.266667 H 1.9 V 0.633333 H 0.633333 V 1.9 H -0.633333 V 0.633333 H -1.9 v -1.266666 h 1.266667 z"
         style="fill:#ffffff;fill-opacity:1;fill-rule:nonzero;stroke:#d44c3c;stroke-width:1;stroke-linecap:butt;stroke-linejoin:miter;stroke-miterlimit:10;stroke-dasharray:none;stroke-opacity:1"
         transform="matrix(1.3333333,0,0,-1.3333333,109.35329,79.330252)"
         clip-path="url(#clipPath101)"
         id="path102" />
    </g>
    <g
       id="g105"
       clip-path="url(#clipPath106)">
      <path
         d="m -0.633333,-1.9 h 1.266666 v 1.266667 H 1.9 V 0.633333 H 0.633333 V 1.9 H -0.633333 V 0.633333 H -1.9 v -1.266666 h 1.266667 z"
         style="fill:#ffffff;fill-opacity:1;fill-rule:nonzero;stroke:#d44c3c;stroke-width:1;stroke-linecap:butt;stroke-linejoin:miter;stroke-miterlimit:10;stroke-dasharray:none;stroke-opacity:1"
         transform="matrix(1.3333333,0,0,-1.3333333,160.47492,78.758979)"
         clip-path="url(#clipPath104)"
         id="path105" />
    </g>
    <g
       id="g108"
       clip-path="url(#clipPath109)">
      <path
         d="m -0.633333,-1.9 h 1.266666 v 1.266667 H 1.9 V 0.633333 H 0.633333 V 1.9 H -0.633333 V 0.633333 H -1.9 v -1.266666 h 1.266667 z"
         style="fill:#ffffff;fill-opacity:1;fill-rule:nonzero;stroke:#d44c3c;stroke-width:1;stroke-linecap:butt;stroke-linejoin:miter;stroke-miterlimit:10;stroke-dasharray:none;stroke-opacity:1"
         transform="matrix(1.3333333,0,0,-1.3333333,211.59656,77.759252)"
         clip-path="url(#clipPath107)"
         id="path108" />
    </g>
    <g
       id="g111"
       clip-path="url(#clipPath112)">
      <path
         d="m -0.633333,-1.9 h 1.266666 v 1.266667 H 1.9 V 0.633333 H 0.633333 V 1.9 H -0.633333 V 0.633333 H -1.9 v -1.266666 h 1.266667 z"
         style="fill:#ffffff;fill-opacity:1;fill-rule:nonzero;stroke:#d44c3c;stroke-width:1;stroke-linecap:butt;stroke-linejoin:miter;stroke-miterlimit:10;stroke-dasharray:none;stroke-opacity:1"
         transform="matrix(1.3333333,0,0,-1.3333333,262.71819,75.045708)"
         clip-path="url(#clipPath110)"
         id="path111" />
    </g>
    <g
       id="g114"
       clip-path="url(#clipPath115)">
      <path
         d="m -0.633333,-1.9 h 1.266666 v 1.266667 H 1.9 V 0.633333 H 0.633333 V 1.9 H -0.633333 V 0.633333 H -1.9 v -1.266666 h 1.266667 z"
         style="fill:#ffffff;fill-opacity:1;fill-rule:nonzero;stroke:#d44c3c;stroke-width:1;stroke-linecap:butt;stroke-linejoin:miter;stroke-miterlimit:10;stroke-dasharray:none;stroke-opacity:1"
         transform="matrix(1.3333333,0,0,-1.3333333,313.83982,70.689755)"
         clip-path="url(#clipPath113)"
         id="path114" />
    </g>
    <path
       id="path116"
       d="M 31.330625,28.28375 V 172.88711"
       style="fill:none;stroke:#000000;stroke-width:0.8;stroke-linecap:square;stroke-linejoin:miter;stroke-miterlimit:10;stroke-dasharray:none;stroke-opacity:1"
       transform="matrix(1.3333333,0,0,-1.3333333,0,294.42204)" />
    <path
       id="path117"
       d="M 247.72298,28.28375 V 172.88711"
       style="fill:none;stroke:#000000;stroke-width:0.8;stroke-linecap:square;stroke-linejoin:miter;stroke-miterlimit:10;stroke-dasharray:none;stroke-opacity:1"
       transform="matrix(1.3333333,0,0,-1.3333333,0,294.42204)" />
    <path
       id="path118"
       d="M 31.330625,28.28375 H 247.72298"
       style="fill:none;stroke:#000000;stroke-width:0.8;stroke-linecap:square;stroke-linejoin:miter;stroke-miterlimit:10;stroke-dasharray:none;stroke-opacity:1"
       transform="matrix(1.3333333,0,0,-1.3333333,0,294.42204)" />
    <path
       id="path119"
       d="M 31.330625,172.88711 H 247.72298"
       style="fill:none;stroke:#000000;stroke-width:0.8;stroke-linecap:square;stroke-linejoin:miter;stroke-miterlimit:10;stroke-dasharray:none;stroke-opacity:1"
       transform="matrix(1.3333333,0,0,-1.3333333,0,294.42204)" />
  </g>
</svg>
